<svg width="80" height="120" fill="none" xmlns="http://www.w3.org/2000/svg"><path d="M0 78.094a7.982 7.982 0 013.99-6.825 7.862 7.862 0 01-1.995-5.149 7.982 7.982 0 017.982-7.982h9.978a8.899 8.899 0 011.996-1.995V35.389a20.055 20.055 0 01-7.823-8.282 1.996 1.996 0 113.552-1.796 15.965 15.965 0 007.144 7.085 1.995 1.995 0 011.118 1.796v20.155a10.923 10.923 0 011.995-.2h9.978V34.192a1.996 1.996 0 011.118-1.796 15.965 15.965 0 002.873-26.72v10.556a1.996 1.996 0 01-1.097 1.776l-7.982 3.99a1.995 1.995 0 01-1.796 0l-7.983-3.99a1.996 1.996 0 01-1.097-1.776V5.675a15.963 15.963 0 00-5.987 12.552 1.996 1.996 0 11-3.991 0A19.836 19.836 0 0123.068.267a1.995 1.995 0 011.996 0 1.995 1.995 0 01.878 1.796v12.832l5.986 2.993 5.987-2.993V2.063a1.995 1.995 0 01.938-1.696 1.996 1.996 0 011.996 0 19.956 19.956 0 011.057 35.022v18.758h9.978c10.417 0 15.406 5.548 17.082 7.982h6.865v-1.995a5.987 5.987 0 015.986-5.987H89.8a5.986 5.986 0 015.628 3.991h22.31a1.996 1.996 0 010 3.991H95.786V84.08a1.996 1.996 0 01-3.991 0V60.134a1.995 1.995 0 00-1.996-1.996h-7.982a1.996 1.996 0 00-1.995 1.996v43.902a1.997 1.997 0 001.995 1.995H89.8a1.996 1.996 0 001.996-1.995V92.062a1.995 1.995 0 113.99 0v9.978h21.952a1.993 1.993 0 011.995 1.996 1.998 1.998 0 01-1.995 1.995h-22.31a5.987 5.987 0 01-5.628 3.991h-7.982a5.985 5.985 0 01-5.986-5.986v-1.996h-6.865c-1.676 2.435-6.665 7.982-17.082 7.982h-9.978a9.98 9.98 0 01-17.033 7.056 9.98 9.98 0 01-2.922-7.056h-5.987a7.982 7.982 0 01-7.982-7.982 7.843 7.843 0 011.377-4.47 7.982 7.982 0 01-5.368-7.503 7.843 7.843 0 011.377-4.47A7.983 7.983 0 010 78.094zm9.977-15.965a3.991 3.991 0 000 7.982h7.983v-5.986c.005-.67.072-1.338.2-1.996H9.976zm41.907 43.902c10.496 0 13.969-6.605 14.188-6.884a1.996 1.996 0 011.776-1.098h7.983V66.12h-7.983a1.995 1.995 0 01-1.776-1.097c-.22-.28-3.692-6.885-14.188-6.885H27.937a5.987 5.987 0 00-5.986 5.987v17.76a9.978 9.978 0 007.982-9.778v-3.991a1.996 1.996 0 011.995-1.996h7.983a1.995 1.995 0 011.995 1.716c0 .5 1.876 12.253 11.974 12.253a1.996 1.996 0 010 3.991 14.487 14.487 0 01-11.974-6.106v28.057h9.978zm-19.956 9.978a5.986 5.986 0 005.987-5.987v-39.91h-3.991v1.995a13.968 13.968 0 01-4.89 10.596 7.982 7.982 0 012.136 13.35 7.982 7.982 0 01-5.228 13.969 5.985 5.985 0 005.986 5.987zm-15.964-9.978h9.978a3.989 3.989 0 003.99-3.991 3.991 3.991 0 00-3.99-3.991h-9.978a3.991 3.991 0 000 7.982zm-3.991-11.973h13.969a3.991 3.991 0 100-7.982H11.973a3.99 3.99 0 100 7.982zM7.982 82.085h9.978v-7.982H7.982a3.991 3.991 0 000 7.982z" fill="#fff" fill-opacity=".15"/></svg>