<svg width="91" height="122" fill="none" xmlns="http://www.w3.org/2000/svg"><path d="M61 121c33.137 0 60-26.863 60-60S94.137 1 61 1 1 27.863 1 61s26.863 60 60 60zm0-110v8.125m-35.356 6.52l5.745 5.745M11 61h8.125m6.519 35.356l5.745-5.746M61 111v-8.125m35.355-6.519l-5.746-5.746m5.746-64.965l-5.746 5.745M56.97 65.457l-16.624 18.35m20.649-28.826V38.906" stroke="#000" stroke-opacity=".1" stroke-width="2" stroke-miterlimit="10" stroke-linecap="round" stroke-linejoin="round"/><path d="M67.032 61c0 3.325-2.7 6.025-6.024 6.025A6.028 6.028 0 0154.981 61c0-3.325 2.7-6.025 6.026-6.025 3.325 0 6.024 2.7 6.024 6.025z" stroke="#000" stroke-opacity=".1" stroke-width="2" stroke-miterlimit="10" stroke-linecap="round" stroke-linejoin="round"/></svg>