<svg width="98" height="148" fill="none" xmlns="http://www.w3.org/2000/svg"><path d="M72.385 34.857a40.794 40.794 0 00-22.658 6.871 40.758 40.758 0 00-6.18 62.729 40.8 40.8 0 0044.446 8.838 40.781 40.781 0 0018.303-15.017 40.757 40.757 0 006.874-22.65 40.812 40.812 0 00-11.959-28.816 40.838 40.838 0 00-28.826-11.955zm0 78.038a37.29 37.29 0 01-20.711-6.281 37.256 37.256 0 01-5.65-57.338 37.285 37.285 0 0140.628-8.079 37.26 37.26 0 0123.013 34.43 37.3 37.3 0 01-10.931 26.34 37.326 37.326 0 01-26.349 10.928zm16.962-55.747a1.753 1.753 0 00-2.472.182L76.28 69.59a6.876 6.876 0 00-9.901 5.793 6.87 6.87 0 001.206 4.275L65.3 82.303a1.752 1.752 0 002.652 2.29l2.288-2.65a6.878 6.878 0 009.875-5.794 6.872 6.872 0 00-1.188-4.265l10.6-12.275a1.754 1.754 0 00-.181-2.47v.008zM73.249 79.134a3.376 3.376 0 01-3.31-4.033 3.372 3.372 0 014.603-2.457 3.375 3.375 0 012.082 3.118 3.377 3.377 0 01-3.375 3.372zM20.14 75.628a52.217 52.217 0 0022.997 43.32 52.267 52.267 0 0048.785 5.164 52.255 52.255 0 0020.464-14.839 52.215 52.215 0 00-2.391-69.857l4.536-5.087 2.682 2.38a1.753 1.753 0 002.473-.133l5.975-6.702a1.75 1.75 0 00-.143-2.473l-13.982-12.46a1.755 1.755 0 00-2.474.143l-5.975 6.7a1.757 1.757 0 00-.442 1.266 1.75 1.75 0 00.584 1.207l2.686 2.388-4.801 5.376a51.919 51.919 0 00-21.913-8.184v-9.042h4.975a1.753 1.753 0 001.751-1.752V1.75A1.75 1.75 0 0084.177 0H60.594a1.752 1.752 0 00-1.752 1.75v11.3a1.752 1.752 0 001.752 1.752h4.974v9.042a51.905 51.905 0 00-21.645 8.007l-4.641-5.206 2.681-2.388a1.752 1.752 0 00.141-2.473l-5.974-6.7a1.753 1.753 0 00-2.474-.143l-13.982 12.46a1.752 1.752 0 00-.143 2.473l5.976 6.702a1.753 1.753 0 002.472.14l2.681-2.379 4.334 4.861a52.04 52.04 0 00-14.855 36.43zm52.245 48.726a48.755 48.755 0 01-27.08-8.212 48.729 48.729 0 01-17.952-21.868A48.71 48.71 0 0137.92 41.173 48.748 48.748 0 0191.04 30.61a48.72 48.72 0 0130.09 45.017 48.771 48.771 0 01-14.293 34.44 48.802 48.802 0 01-34.45 14.287zm38.131-105.631l11.365 10.128-3.641 4.079-2.678-2.38-6.002-5.346-2.679-2.38 3.635-4.101zm-1.988 10.254l3.392 3.02-4.436 4.975a51.3 51.3 0 00-3.495-2.905l4.539-5.09zM62.348 3.503h20.075v7.796H62.348V3.503zm6.725 11.299h6.631v8.705a53.468 53.468 0 00-3.312-.107c-1.113 0-2.21.04-3.312.107l-.007-8.705zM26.957 32.937l-3.642-4.08 11.362-10.134 3.644 4.079-2.677 2.38-6 5.345-2.688 2.41zm9.71-3.96l4.367 4.898a48.464 48.464 0 00-3.51 2.89l-4.25-4.76 3.394-3.028zm11.691 47.648a1.752 1.752 0 01-1.752 1.751h-4.197a1.752 1.752 0 110-3.503h4.197a1.755 1.755 0 011.752 1.752zm27.508 25.772v4.194a1.753 1.753 0 01-3.504 0v-4.194a1.756 1.756 0 011.068-1.669 1.762 1.762 0 011.942.394 1.765 1.765 0 01.494 1.275zm24.027-29.246h4.198a1.754 1.754 0 011.204 2.971 1.753 1.753 0 01-1.204.532h-4.198a1.753 1.753 0 010-3.503zM70.634 49.127v-4.19a1.752 1.752 0 013.504 0v4.197a1.752 1.752 0 01-3.504 0v-.007zM5.944 93.914a1.75 1.75 0 01-2.751 1.856 1.754 1.754 0 01-.627-.928 74.27 74.27 0 01-.864-3.481 1.75 1.75 0 113.42-.758 69.18 69.18 0 00.822 3.31zm-4.035-11.57a1.75 1.75 0 01-1.746-1.63 72.106 72.106 0 01-.161-3.584 1.752 1.752 0 113.504-.07c.022 1.134.073 2.281.153 3.412a1.754 1.754 0 01-1.627 1.87l-.123.002zm8.94 24.29a1.751 1.751 0 11-3.127 1.579 64.897 64.897 0 01-1.53-3.242 1.747 1.747 0 01.89-2.31 1.762 1.762 0 011.34-.034 1.764 1.764 0 01.972.924 66.97 66.97 0 001.455 3.083zM3.79 52.416a71.117 71.117 0 011.236-3.37 1.75 1.75 0 013.258 1.286A69.545 69.545 0 007.11 53.54a1.752 1.752 0 01-3.319-1.123zM.571 66.39c.15-1.19.34-2.38.543-3.55a1.752 1.752 0 113.45.616 62.631 62.631 0 00-.51 3.376 1.752 1.752 0 01-2.61 1.3 1.75 1.75 0 01-.873-1.742zm17.614 51.749a1.753 1.753 0 01-2.756 2.164 72.695 72.695 0 01-2.147-2.876 1.75 1.75 0 112.86-2.024 57.82 57.82 0 002.043 2.736zm21.309 20.032a1.756 1.756 0 01-2.38.68 66.486 66.486 0 01-3.09-1.829 1.75 1.75 0 111.858-2.969c.963.602 1.952 1.19 2.942 1.74a1.755 1.755 0 01.67 2.378zm-11.679-7.716a1.743 1.743 0 01-1.195.608 1.737 1.737 0 01-1.275-.416 72.548 72.548 0 01-2.67-2.4 1.753 1.753 0 112.406-2.549 63.85 63.85 0 002.55 2.284 1.746 1.746 0 01.522 1.878 1.754 1.754 0 01-.338.595zm124.875-61.93a1.756 1.756 0 01-1.127.725 1.756 1.756 0 01-1.311-.284l-6.307-4.368c.558 3.65.839 7.338.84 11.03a72.428 72.428 0 01-30.237 58.807 72.472 72.472 0 01-65.42 9.75 1.748 1.748 0 01-1.231-1.546 1.75 1.75 0 011.67-1.878 1.75 1.75 0 01.687.107 68.96 68.96 0 0083.399-33.786 68.91 68.91 0 007.626-31.453 69.61 69.61 0 00-.787-10.409l-4.373 6.31a1.76 1.76 0 01-1.132.766 1.755 1.755 0 01-2.068-1.433 1.756 1.756 0 01.32-1.327l6.782-9.785.03-.04a1.63 1.63 0 01.058-.076l.054-.063.062-.064.063-.06.062-.054.07-.054.068-.048.073-.046.073-.042.079-.038.076-.034.085-.032a.694.694 0 01.077-.026.863.863 0 01.095-.025l.047-.014h.024l.102-.017.072-.008h.341c.024 0 .068.008.102.014l.067.01c.035 0 .069.017.105.025l.058.015c.034.01.068.024.102.036l.059.022c.031.012.06.027.091.041l.068.034.074.042.077.048.024.015 9.788 6.778a1.75 1.75 0 01.443 2.434z" fill="#000" fill-opacity=".1"/></svg>