<svg width="105" height="143" fill="none" xmlns="http://www.w3.org/2000/svg"><path d="M76.868 52.856c3.84 0 7.463.945 10.654 2.605.019.008.035.008.052.017.06.03.117.068.178.101.35.188.697.383 1.034.588.223.133.437.274.655.413a22.5 22.5 0 011.23.849c.062.044.12.092.18.136a23.076 23.076 0 016.885 8.39c.018.034.034.071.05.106a23.323 23.323 0 011.47 3.985c.073.268.137.538.2.814.037.166.081.333.115.501.09.43.163.866.227 1.303.024.16.04.324.061.485.04.325.074.65.101.979.013.163.027.321.037.485.026.437.043.879.045 1.319l.003.102c0 12.783-10.399 23.184-23.182 23.184-.488 0-.968-.02-1.447-.05-.141-.006-.28-.02-.421-.032a25.742 25.742 0 01-1.068-.109c-.138-.019-.274-.033-.41-.053a25.461 25.461 0 01-1.355-.233c-.124-.026-.25-.06-.374-.088-.32-.073-.639-.15-.956-.234a19.067 19.067 0 01-.594-.168 26.38 26.38 0 01-.69-.22 22.818 22.818 0 01-2.58-1.034c-.08-.037-.16-.072-.235-.109a23.11 23.11 0 01-8.258-6.755l-.255-.331a21.579 21.579 0 01-.89-1.305c-.093-.14-.185-.282-.275-.429a23.64 23.64 0 01-.67-1.182c-.026-.046-.054-.09-.08-.137-.006-.016-.007-.03-.014-.04a23.054 23.054 0 01-2.611-10.67c.005-12.781 10.405-23.183 23.188-23.183zM55.574 76.039c0 3.436.826 6.686 2.278 9.567a21.079 21.079 0 009.565 2.276c11.74 0 21.294-9.553 21.294-21.292 0-3.362-.77-6.577-2.278-9.565a21.175 21.175 0 00-9.565-2.277c-11.74-.001-21.294 9.55-21.294 21.291zm4.198 12.68c.034.044.069.086.1.132a21.402 21.402 0 007.77 6.375h.004c.302.148.61.288.92.42.028.01.053.022.079.032a21 21 0 002.491.863c.163.046.324.094.489.138.179.043.363.084.544.124.21.044.42.092.63.132a25.895 25.895 0 001.207.2c.155.019.307.04.464.056.267.032.534.053.805.075.13.01.256.022.386.029.4.025.804.037 1.207.037 11.74 0 21.293-9.554 21.293-21.293 0-.065-.007-.134-.007-.2-.003-.328-.011-.66-.029-.988-.01-.16-.025-.318-.037-.482-.019-.233-.036-.469-.062-.7a26.62 26.62 0 00-.165-1.16c-.033-.19-.066-.384-.1-.573a21.85 21.85 0 00-.116-.537c-.046-.21-.094-.42-.147-.629-.026-.105-.058-.211-.087-.315a21.373 21.373 0 00-7.781-11.45c-.02-.01-.034-.025-.05-.036-.118-.088-.24-.172-.363-.256a23.267 23.267 0 011.382 7.877c0 12.784-10.4 23.181-23.182 23.181-2.723 0-5.36-.459-7.87-1.372.074.105.148.215.225.32z" fill="#000" fill-opacity=".1"/><path d="M1.775 55.864h16.7a50.055 50.055 0 016.613-15.905l-2.747-2.75h-.004l-9.071-9.072a.944.944 0 010-1.335l14.366-14.363a.942.942 0 011.335 0l9.074 9.073 2.75 2.747c4.916-3.117 10.257-5.347 15.902-6.612V.947c0-.523.424-.947.946-.947h20.314c.248 0 .49.1.666.279l9.074 9.071a.95.95 0 01.277.668V20.63a50.532 50.532 0 016.84 3.62l11.812-11.813a.944.944 0 011.337 0l9.073 9.073 14.365 14.363a.946.946 0 010 1.336l-11.813 11.814a50.226 50.226 0 013.625 6.84h10.605c.252 0 .493.1.668.275l9.075 9.073a.953.953 0 01.275.67v20.312a.945.945 0 01-.945.945h-16.699a50.115 50.115 0 01-6.604 15.912l2.739 2.743 9.074 9.072a.946.946 0 010 1.335l-14.365 14.363a.945.945 0 01-1.335 0l-11.815-11.811a50.002 50.002 0 01-15.912 6.601v16.702a.945.945 0 01-.945.945H66.71a.938.938 0 01-.67-.279l-9.07-9.071a.95.95 0 01-.278-.669v-10.604a50.752 50.752 0 01-6.838-3.625L38.04 130.563a.947.947 0 01-1.337 0L22.34 116.2l-.005-.003-9.07-9.072a.942.942 0 010-1.335l11.812-11.814a50.417 50.417 0 01-3.62-6.838H10.85a.936.936 0 01-.671-.28l-9.073-9.07a.937.937 0 01-.277-.67v-20.31a.948.948 0 01.946-.944zm2.282 1.89l7.184 7.183h14.788l-7.182-7.182H4.057zm16.218-1.243l7.501 7.5a50.1 50.1 0 016.377-14.987L26.45 41.32a48.332 48.332 0 00-6.174 15.19zM28.3 14.443L15.27 27.471l7.738 7.736 12.005-12.006 1.023-1.022-7.736-7.736zm13.849 11.179l7.706 7.7A50 50 0 0164.84 26.95l-7.503-7.503a48.231 48.231 0 00-15.19 6.176zm16.435-7.605l7.18 7.182V10.412l-7.18-7.184v14.789zM77.559 1.89H59.92l7.18 7.184h17.643L77.559 1.89zm20.942 28.467L94.345 26.2a48.879 48.879 0 00-6.375-3.512v4.03a50.42 50.42 0 014.175 1.125 49.852 49.852 0 016.356 2.514zm8.79-15.915L96.274 25.458l7.737 7.737 11.016-11.014-7.736-7.738zm26.131 43.312h-9.43c.029.067.049.138.075.206.191.497.373.995.549 1.494.063.183.123.362.183.541a48.776 48.776 0 01.659 2.122c.112.398.226.795.329 1.196.083.322.161.647.236.97.053.216.113.434.164.652h14.417l-7.182-7.181zm-74.838 65.41v9.428l7.18 7.182v-14.419c-.217-.046-.43-.105-.645-.157-.328-.081-.655-.16-.981-.243a39.159 39.159 0 01-1.188-.328 43.817 43.817 0 01-2.121-.657 40.666 40.666 0 01-2.035-.731c-.071-.026-.141-.048-.21-.075zM15.27 106.462l7.738 7.733 11.015-11.01-7.736-7.74-11.017 11.017zm11.76-12.946l4.16 4.16a49.829 49.829 0 01-3.64-10.536h-4.03a49.482 49.482 0 003.51 6.375zm-15.236-8.265H28.31c.448 0 .834.313.925.751a48.228 48.228 0 006.915 16.664.95.95 0 01-.123 1.185l-11.684 11.683 13.027 13.028 11.684-11.683a.943.943 0 011.185-.122 48.535 48.535 0 007.757 4.131 48.134 48.134 0 008.907 2.782.945.945 0 01.752.926v16.516H86.08v-16.516a.95.95 0 01.753-.929 48.132 48.132 0 0016.66-6.91.95.95 0 011.187.122l11.684 11.683 13.028-13.028-11.686-11.683a.895.895 0 01-.195-.298c-.015-.032-.016-.062-.028-.098a.873.873 0 01-.044-.232c-.004-.046.003-.088.008-.128a.994.994 0 01.038-.206.955.955 0 01.059-.132c.016-.028.021-.065.04-.094a48.225 48.225 0 006.914-16.664.944.944 0 01.925-.75h16.52v-18.42h-16.517a.946.946 0 01-.925-.752c-.007-.029-.015-.057-.021-.086a48.2 48.2 0 00-2.76-8.81c0-.004 0-.007-.002-.01a48.369 48.369 0 00-4.132-7.756.944.944 0 01.122-1.185l11.684-11.684-13.028-13.028L104.68 35.2a.913.913 0 01-.293.195c-.035.016-.072.02-.107.03a.904.904 0 01-.226.044c-.016.001-.029.01-.043.01-.05 0-.098-.013-.146-.021-.032-.005-.063-.005-.093-.013a.956.956 0 01-.279-.12 48.215 48.215 0 00-16.662-6.915.945.945 0 01-.752-.926V10.966H67.655v16.516a.945.945 0 01-.752.926 48.254 48.254 0 00-16.662 6.914.924.924 0 01-.274.12c-.035.01-.069.01-.101.015-.048.006-.094.02-.142.02-.012 0-.028-.009-.04-.009a.855.855 0 01-.23-.045c-.035-.01-.07-.014-.105-.028a.948.948 0 01-.293-.196l-9.073-9.073-2.612-2.611-13.026 13.027 2.61 2.61 9.073 9.075c.316.317.367.81.123 1.185a48.18 48.18 0 00-6.915 16.664.946.946 0 01-.925.75H11.794l-.001 18.425zm-1.888-1.338v-17.64l-7.184-7.181v17.642l7.184 7.179z" fill="#000" fill-opacity=".1"/></svg>