<svg width="74" height="120" fill="none" xmlns="http://www.w3.org/2000/svg"><path fill-rule="evenodd" clip-rule="evenodd" d="M78.116 78.114c6.854-6.85 9.24-16.838 6.223-26.055a1.608 1.608 0 00-1.163-1.074 1.626 1.626 0 00-1.523.43L65.28 67.783l-10.26-2.746-2.75-10.26 16.37-16.373c.401-.398.563-.976.431-1.524a1.626 1.626 0 00-1.073-1.164c-9.218-3.012-19.203-.632-26.06 6.219a25.54 25.54 0 00-5.985 26.758l-24.91 24.91a1.615 1.615 0 000 2.29 1.613 1.613 0 002.293 0L38.992 70.24a1.627 1.627 0 00.354-1.763 22.293 22.293 0 014.886-24.247c5.337-5.336 12.847-7.574 20.12-6.128L49.314 53.145c-.41.41-.57 1.01-.419 1.568l3.234 12.07c.15.558.588.995 1.146 1.144l12.07 3.233a1.604 1.604 0 001.566-.416L81.95 55.701c1.444 7.273-.79 14.788-6.124 20.123a22.309 22.309 0 01-24.252 4.885 1.619 1.619 0 00-1.759.351L24.16 106.72a1.62 1.62 0 001.146 2.766c.415 0 .83-.156 1.147-.475l24.91-24.91a25.528 25.528 0 0026.754-5.986zm40.849-25.463a1.626 1.626 0 011.038 1.516v11.666c0 .676-.413 1.275-1.038 1.515l-8.953 3.448a50.62 50.62 0 01-7.019 16.929l3.896 8.776a1.62 1.62 0 01-.335 1.802l-8.25 8.249a1.619 1.619 0 01-1.805.339l-8.772-3.897a50.56 50.56 0 01-16.932 7.019l-3.446 8.953A1.62 1.62 0 0165.835 120H54.167c-.67 0-1.27-.41-1.512-1.034l-3.446-8.953a51.279 51.279 0 01-9.753-3.155 1.624 1.624 0 011.305-2.974 47.235 47.235 0 009.955 3.123c.547.111 1 .488 1.2 1.009l3.366 8.744h9.442l3.362-8.738a1.612 1.612 0 011.203-1.007 47.489 47.489 0 0017.383-7.208 1.619 1.619 0 011.564-.138l8.563 3.806 6.676-6.682-3.806-8.562a1.623 1.623 0 01.136-1.561 47.377 47.377 0 007.204-17.384 1.618 1.618 0 011.009-1.197l8.742-3.37V55.28l-8.738-3.364a1.63 1.63 0 01-1.01-1.204 47.427 47.427 0 00-7.204-17.383 1.61 1.61 0 01-.136-1.561l3.803-8.563-6.676-6.675-8.567 3.8a1.627 1.627 0 01-1.561-.131 47.372 47.372 0 00-17.382-7.208 1.61 1.61 0 01-1.2-1.01L64.722 3.24H55.28l-3.365 8.744c-.2.52-.654.905-1.2 1.009A47.385 47.385 0 0033.333 20.2a1.615 1.615 0 01-1.563.13l-8.566-3.799-6.677 6.676 3.805 8.562c.227.513.175 1.1-.135 1.568a47.328 47.328 0 00-7.205 17.377 1.63 1.63 0 01-1.009 1.204l-8.74 3.364v9.439l8.739 3.364c.52.202.9.657 1.007 1.203a47.686 47.686 0 003.156 10.031c.361.82-.01 1.776-.828 2.14a1.627 1.627 0 01-2.14-.832 50.918 50.918 0 01-3.188-9.83l-8.951-3.45A1.623 1.623 0 010 65.832V54.166c0-.67.414-1.275 1.04-1.516l8.95-3.442a50.595 50.595 0 017.02-16.935l-3.897-8.77a1.627 1.627 0 01.335-1.808l8.25-8.248a1.632 1.632 0 011.805-.339l8.775 3.903a50.478 50.478 0 0116.93-7.02l3.446-8.95A1.615 1.615 0 0154.166 0h11.668c.671 0 1.272.41 1.514 1.04l3.446 8.952a50.528 50.528 0 0116.93 7.02l8.774-3.897a1.615 1.615 0 011.804.332l8.251 8.248c.474.475.607 1.191.335 1.808l-3.895 8.77a50.625 50.625 0 017.019 16.935l8.953 3.443zM24.713 60c0 3.292.453 6.552 1.346 9.688a1.623 1.623 0 01-3.12.891A38.634 38.634 0 0121.469 60c0-21.248 17.285-38.534 38.532-38.534 21.247 0 38.532 17.286 38.532 38.534 0 21.243-17.286 38.53-38.533 38.53-3.561 0-7.092-.482-10.49-1.444a1.619 1.619 0 01-1.12-1.998 1.625 1.625 0 012-1.126A35.372 35.372 0 0060 95.288C79.461 95.287 95.29 79.46 95.29 60S79.459 24.706 60 24.706c-19.459.003-35.288 15.838-35.288 35.295z" fill="#000" fill-opacity=".1"/></svg>