<svg width="109" height="119" fill="none" xmlns="http://www.w3.org/2000/svg"><path d="M56.03 73.253c0-1.78 2.548-1.78 2.548 0v8.812c0 .493-.26.904-.624 1.15l-3.692 2.764v6.623a20.844 20.844 0 009.438 2.983V73.28c0-1.779 2.548-1.779 2.548 0v22.305c3.276-.191 6.526-1.204 9.438-2.983V85.98l-3.666-2.764a1.385 1.385 0 01-.624-1.15v-8.812c0-1.78 2.548-1.78 2.548 0v8.128l3.77 2.82c.338.273.52.683.52 1.094v5.474c5.044-4.215 8.008-10.483 8.112-17.16.026-.74.572-1.314 1.274-1.314h19.032c.754 0 1.326.63 1.274 1.478a65.636 65.636 0 01-.156 3.311c-.078 1.122-.234 2.245-.416 3.394-.104.657-.65 1.122-1.248 1.122h-4.498a40.442 40.442 0 01-5.018 12.781l3.172 3.34c.468.492.494 1.23.104 1.75-1.352 1.999-2.886 3.86-4.524 5.611a41.546 41.546 0 01-5.356 4.79 1.217 1.217 0 01-1.638-.137l-3.146-3.339a36.074 36.074 0 01-12.142 5.282v4.707c0 .657-.468 1.205-1.066 1.314a41.37 41.37 0 01-13.988 0c-.624-.109-1.066-.684-1.066-1.314v-4.734a36.34 36.34 0 01-12.142-5.282l-3.172 3.338c-.468.493-1.17.52-1.664.11-1.898-1.423-3.666-3.038-5.33-4.762a44.777 44.777 0 01-4.55-5.638 1.382 1.382 0 01.13-1.724l3.172-3.34c-2.392-3.913-4.082-8.264-5.018-12.78h-4.498c-.624 0-1.144-.493-1.248-1.122a45.788 45.788 0 01-.572-6.842c0-.74.572-1.341 1.274-1.341h19.032c.728 0 1.3.602 1.274 1.423.078 2.819.65 5.61 1.716 8.238 1.378 3.393 3.562 6.459 6.396 8.812v-5.474c0-.41.182-.82.52-1.094l3.77-2.82v-8.1zm49.218 3.585c.052-.63.078-1.259.13-1.861h-16.51C87.958 88.114 77.558 98.295 65 98.295c-12.558 0-22.932-10.209-23.868-23.318h-16.51l.338 3.968h4.368c.624-.027 1.196.438 1.326 1.095a38.322 38.322 0 002.028 7.198 36.513 36.513 0 003.354 6.514c.39.52.364 1.286-.104 1.779l-3.12 3.284c2.236 3.092 4.862 5.884 7.8 8.21l3.12-3.284c.416-.438 1.118-.52 1.612-.164 2.002 1.423 4.108 2.627 6.266 3.558a33.051 33.051 0 006.76 2.135c.624.082 1.118.656 1.118 1.341v4.652c3.666.52 7.384.52 11.05 0v-4.598c-.026-.656.416-1.259 1.04-1.395a33.742 33.742 0 006.838-2.135 33.619 33.619 0 006.188-3.531 1.228 1.228 0 011.69.11l3.12 3.284a41.442 41.442 0 007.8-8.21l-3.12-3.285a1.419 1.419 0 01-.156-1.697 37.351 37.351 0 003.38-6.595 37.52 37.52 0 002.028-7.116c.078-.657.624-1.177 1.274-1.177h4.42c.078-.684.156-1.368.208-2.08zM1.274 57.078H14.3L19.214 42.6c3.302-9.716 12.48-9.743 14.56-9.743h9.672c.494 0 1.352 0 2.418.11 5.07-5.2 12.116-4.954 13.624-4.954H70.72c1.742-.028 8.502-.055 13.416 4.953a13.706 13.706 0 012.418-.109h9.672c2.106-.027 11.258.027 14.56 9.743l4.914 14.478h13.026c.702 0 1.274.602 1.274 1.341v5.747c0 .685-.494 1.26-1.144 1.314a7.534 7.534 0 00-3.042 1.341c-2.288 1.724-1.794 3.284-3.224 3.284H7.384c-1.404 0-.91-1.532-3.224-3.284a7.246 7.246 0 00-3.094-1.34C.442 65.37 0 64.795 0 64.165V58.42c0-.739.572-1.341 1.274-1.341zm15.73 0h5.148l3.718-11.905c.442-1.423 2.47-1.095 2.47.41l-.026 11.495h7.67l5.98-17.543a18.547 18.547 0 011.898-3.996h-10.01c-1.638-.027-9.49-.082-12.246 7.964l-4.602 13.575zm7.826 0h.962v-3.065l-.962 3.065zm13.858 0h6.734l4.498-14.45c.442-1.424 2.47-1.095 2.47.41l-.026 14.04H77.61l-.026-13.958c-.052-1.642 2.028-1.943 2.47-.492l4.472 14.368h6.734l-5.616-16.558c-3.432-10.072-13.338-9.716-15.132-9.716H59.254c-2.002-.027-11.57-.082-14.924 9.743l-5.642 16.613zm9.386 0h1.742V51.44l-1.742 5.638zm32.084 0H81.9l-1.742-5.638v5.638zm13.858 0h7.67l-.026-11.385c-.052-1.642 2.028-1.943 2.47-.493l3.692 11.905h5.148l-4.628-13.574c-2.86-8.375-11.258-7.965-12.402-7.965h-9.828a18.549 18.549 0 011.898 3.996l6.006 17.516zm10.218 0h.962l-.962-3.065v3.065zm23.218 2.682H2.548v3.34c2.288.683 4.316 2.189 5.564 4.323h113.75a9.434 9.434 0 012.47-2.764c.884-.684 2.002-1.232 3.094-1.56V59.76h.026zM52.728 13.097C52.728 5.078 58.422.316 65 .316c1.664 0 3.432.328 4.992.985 4.108 1.724 7.306 5.665 7.306 11.769 0 8.018-5.694 12.78-12.298 12.78-1.664 0-3.432-.328-4.966-1.012-4.108-1.697-7.306-5.638-7.306-11.741zm8.242-9.305c-3.198 1.34-5.694 4.433-5.694 9.305 0 4.844 2.496 7.964 5.694 9.305 5.928 2.49 13.754-.794 13.754-9.305 0-4.844-2.496-7.937-5.694-9.305-2.444-1.013-5.668-1.095-8.06 0zM28.184 20.65c0-14.478 20.904-14.478 20.904 0s-20.904 14.478-20.904 0zm7.15-7.554c-2.574 1.095-4.602 3.613-4.602 7.554 0 10.92 15.782 10.92 15.782 0 0-6.98-6.422-9.552-11.18-7.554zm45.604 7.554c0-14.478 20.904-14.478 20.904 0s-20.904 14.478-20.904 0zm7.176-7.554c-2.6 1.095-4.628 3.613-4.628 7.554 0 10.92 15.782 10.92 15.782 0 0-6.98-6.422-9.552-11.154-7.554z" fill="#fff" fill-opacity=".1"/></svg>