<svg width="118" height="138" fill="none" xmlns="http://www.w3.org/2000/svg"><path d="M135.913 15.117l.001-.076C135.914 6.466 132.88 0 128.858 0c-4.012 0-7.037 6.466-7.037 15.041 0 .025.007.048.007.072h-14.083l.001-.072c0-8.575-3.034-15.041-7.055-15.041-4.012 0-7.037 6.466-7.037 15.041 0 .025.006.048.007.072H79.575l.001-.072C79.576 6.466 76.551 0 72.54 0c-4.022 0-7.055 6.466-7.055 15.041 0 .025.007.048.008.072H51.408l.001-.072C51.41 6.466 48.384 0 44.373 0c-4.012 0-7.037 6.466-7.037 15.041 0 .025.006.048.007.072H23.24l.001-.072C23.241 6.466 20.216 0 16.204 0c-4.011 0-7.036 6.466-7.036 15.041 0 .026.006.05.007.075C4.106 15.173 0 19.314 0 24.396V128.16c0 5.12 4.164 9.286 9.282 9.286H135.78c5.118 0 9.282-4.165 9.282-9.286V24.397c0-5.075-4.092-9.209-9.149-9.28zm-11.709-.076c0-7.245 2.457-12.658 4.654-12.658 2.206 0 4.673 5.413 4.673 12.658v.072h-9.334c.001-.024.007-.047.007-.072zm-28.167 0c0-7.245 2.457-12.658 4.654-12.658 2.206 0 4.673 5.413 4.673 12.658l-.001.072h-9.332c0-.024.006-.047.006-.072zm-28.169 0c0-7.245 2.467-12.658 4.672-12.658 2.197 0 4.654 5.413 4.654 12.658l-.001.072h-9.332c.001-.024.007-.047.007-.072zm-28.149 0c0-7.245 2.457-12.658 4.654-12.658s4.654 5.413 4.654 12.658v.072h-9.315c.001-.024.007-.047.007-.072zm-28.169 0c0-7.245 2.458-12.658 4.654-12.658 2.197 0 4.654 5.413 4.654 12.658v.072h-9.315c.002-.024.008-.047.008-.072zM142.68 128.16c0 3.806-3.095 6.903-6.9 6.903H9.282c-3.804 0-6.899-3.096-6.899-6.903V40.497H142.68v87.663zm0-90.046H2.383V24.397c0-3.805 3.095-6.901 6.9-6.901H20.76c-.474 5.979-2.616 10.204-4.556 10.204a1.191 1.191 0 000 2.382c3.618 0 6.433-5.262 6.95-12.586H48.93c-.474 5.979-2.616 10.204-4.557 10.204a1.191 1.191 0 000 2.382c3.619 0 6.434-5.262 6.95-12.586h25.774C76.623 23.475 74.48 27.7 72.54 27.7a1.191 1.191 0 000 2.382c3.619 0 6.434-5.262 6.95-12.586h25.776c-.476 5.979-2.626 10.204-4.574 10.204a1.192 1.192 0 100 2.382c3.628 0 6.449-5.262 6.968-12.586h25.774c-.476 5.979-2.627 10.204-4.576 10.204a1.192 1.192 0 000 2.382c3.629 0 6.451-5.261 6.97-12.585a6.907 6.907 0 016.852 6.9v13.717z" fill="#fff" fill-opacity=".1"/><path d="M17.021 70.833h14.528a3.31 3.31 0 003.307-3.307v-13.74a3.311 3.311 0 00-3.307-3.308H17.021a3.311 3.311 0 00-3.307 3.308v13.74a3.31 3.31 0 003.307 3.307zm-.925-17.047c0-.51.415-.925.925-.925h14.528c.51 0 .925.415.925.925v13.74c0 .5-.423.924-.925.924H17.021a.936.936 0 01-.925-.924v-13.74zm33.102 17.047h14.51a3.31 3.31 0 003.308-3.307v-13.74a3.311 3.311 0 00-3.307-3.308H49.198a3.311 3.311 0 00-3.307 3.308v13.74a3.31 3.31 0 003.307 3.307zm-.925-17.047c0-.51.415-.925.925-.925h14.51c.51 0 .925.415.925.925v13.74c0 .5-.423.924-.924.924H49.198a.936.936 0 01-.925-.924v-13.74zm33.081 17.047h14.53a3.31 3.31 0 003.308-3.307v-13.74a3.311 3.311 0 00-3.308-3.308h-14.53a3.312 3.312 0 00-3.307 3.308v13.74a3.31 3.31 0 003.307 3.307zm-.925-17.046c0-.51.415-.926.925-.926h14.53c.502 0 .924.424.924.925v13.74a.948.948 0 01-.924.924h-14.53a.937.937 0 01-.925-.924v-13.74zm33.102 17.046h14.51a3.31 3.31 0 003.307-3.307v-13.74a3.311 3.311 0 00-3.307-3.308h-14.51a3.31 3.31 0 00-3.306 3.308v13.74a3.31 3.31 0 003.306 3.307zm-.924-17.047c0-.51.415-.925.924-.925h14.51c.511 0 .925.415.925.925v13.74c0 .5-.424.924-.925.924h-14.51a.936.936 0 01-.924-.924v-13.74zM17.021 97.94h14.528a3.303 3.303 0 003.307-3.291V80.91a3.31 3.31 0 00-3.307-3.307H17.021a3.31 3.31 0 00-3.307 3.308v13.737a3.303 3.303 0 003.307 3.291zm-.925-17.03c0-.51.415-.924.925-.924h14.528c.51 0 .925.415.925.924v13.74c0 .5-.415.908-.925.908H17.021a.918.918 0 01-.925-.909V80.912zm33.102 17.03h14.51a3.303 3.303 0 003.308-3.291V80.91a3.31 3.31 0 00-3.307-3.307H49.198a3.31 3.31 0 00-3.307 3.308v13.737a3.303 3.303 0 003.307 3.291zm-.925-17.03c0-.51.415-.924.925-.924h14.51c.51 0 .925.415.925.924v13.74c0 .5-.415.908-.924.908H49.198a.918.918 0 01-.925-.909V80.912zm-31.252 44.151h14.528a3.31 3.31 0 003.307-3.307v-13.738c0-1.814-1.483-3.288-3.307-3.288H17.021c-1.824 0-3.307 1.474-3.307 3.288v13.738a3.31 3.31 0 003.307 3.307zm-.925-17.045c0-.5.415-.906.925-.906h14.528c.51 0 .925.406.925.906v13.737a.925.925 0 01-.925.925H17.021a.926.926 0 01-.925-.925v-13.737zm33.102 17.045h14.51a3.31 3.31 0 003.308-3.307v-13.738c0-1.814-1.484-3.288-3.307-3.288H49.198c-1.824 0-3.307 1.474-3.307 3.288v13.738a3.31 3.31 0 003.307 3.307zm-.925-17.045c0-.5.415-.906.925-.906h14.51c.51 0 .925.406.925.906v13.737a.925.925 0 01-.924.925H49.198a.926.926 0 01-.925-.925v-13.737zm30.981-7.222c0 13.228 10.756 23.989 23.978 23.989 13.223 0 23.981-10.761 23.981-23.989 0-13.228-10.758-23.99-23.981-23.99-13.222 0-23.978 10.762-23.978 23.99zm23.978-21.607c11.909 0 21.598 9.693 21.598 21.607s-9.689 21.607-21.598 21.607c-11.907 0-21.595-9.693-21.595-21.607s9.687-21.607 21.595-21.607z" fill="#fff" fill-opacity=".1"/><path d="M95.76 109.594a1.187 1.187 0 001.033.598c.315 0 .617-.125.842-.35l16.403-16.412a1.191 1.191 0 00-1.684-1.684l-15.303 15.312-2.769-4.816a1.19 1.19 0 10-2.066 1.187l3.545 6.165z" fill="#fff" fill-opacity=".1"/></svg>