<svg width="314" height="397" fill="none" xmlns="http://www.w3.org/2000/svg"><path d="M303.328 201.859a50.811 50.811 0 001.693-4.342A114.2 114.2 0 00314 156.889a156.834 156.834 0 00-45.984-110.937A157.056 157.056 0 00157 0 157.056 157.056 0 0045.984 45.952 156.833 156.833 0 000 156.889a113.5 113.5 0 008.866 40.346c.323.877.484 1.805.476 2.739a7.985 7.985 0 011.668 2.803c14.195 34.063 42.575 76.971 82.111 124.147 27.237 32.63 52.885 59.049 63.863 70.076 10.978-11.043 36.626-37.462 63.862-70.076 39.561-47.2 67.949-90.132 82.135-124.203.121-.298.226-.548.347-.862zM157 253.489a96.68 96.68 0 01-53.684-16.273 96.579 96.579 0 01-35.588-43.334 96.497 96.497 0 01-5.5-55.79 96.539 96.539 0 0126.446-49.44 96.647 96.647 0 0149.475-26.427 96.693 96.693 0 0155.829 5.495 96.617 96.617 0 0143.365 35.564 96.508 96.508 0 0116.285 53.646 96.62 96.62 0 01-28.33 68.249A96.758 96.758 0 01157 253.489z" fill="#FF5225"/><circle cx="157" cy="153" r="121" fill="#fff"/><path d="M76.784 164l-10.188-12.384V164h-4.86v-23.76h4.86v11.016l9.072-11.016h5.796l-9.108 11.196L82.652 164h-5.868zm18.508.432c-2.304 0-4.416-.54-6.336-1.62a12.268 12.268 0 01-4.572-4.428c-1.128-1.896-1.692-3.984-1.692-6.264 0-2.28.564-4.356 1.692-6.228a12.182 12.182 0 014.572-4.464c1.92-1.08 4.032-1.62 6.336-1.62 2.304 0 4.416.54 6.336 1.62a12.107 12.107 0 014.608 4.464c1.152 1.872 1.728 3.948 1.728 6.228s-.576 4.368-1.728 6.264c-1.128 1.872-2.664 3.348-4.608 4.428-1.92 1.08-4.032 1.62-6.336 1.62zm.036-4.5c1.44 0 2.736-.324 3.888-.972a7.066 7.066 0 002.736-2.772c.672-1.2 1.008-2.556 1.008-4.068 0-1.488-.336-2.82-1.008-3.996a7.003 7.003 0 00-2.736-2.808c-1.152-.672-2.448-1.008-3.888-1.008-1.464 0-2.772.336-3.924 1.008-1.152.648-2.064 1.572-2.736 2.772-.648 1.176-.972 2.52-.972 4.032s.324 2.868.972 4.068a7.399 7.399 0 002.736 2.772c1.152.648 2.46.972 3.924.972zm16.752-19.692h4.86v9.108h10.512v-9.108h4.86V164h-4.86v-10.26H116.94V164h-4.86v-23.76zm31.028 4.392h-7.596v-4.392H155.6v4.392h-7.632V164h-4.86v-19.368zm26.991 16.272h-9.72L159.047 164h-5.22l10.62-24.192h1.62L176.651 164h-5.22l-1.332-3.096zm-4.86-12.024l-3.168 8.028h6.336l-3.168-8.028zM194.944 164l-10.188-12.384V164h-4.86v-23.76h4.86v11.016l9.072-11.016h5.796l-9.108 11.196L200.812 164h-5.868zm14.433-19.368h-7.596v-4.392h20.088v4.392h-7.632V164h-4.86v-19.368zm15.695-4.392h4.86v8.172h4.32c1.68 0 3.18.336 4.5 1.008 1.32.648 2.34 1.56 3.06 2.736.744 1.176 1.116 2.52 1.116 4.032 0 1.56-.372 2.928-1.116 4.104-.72 1.176-1.74 2.088-3.06 2.736-1.32.648-2.82.972-4.5.972h-9.18v-23.76zm9.18 19.476c1.152 0 2.052-.312 2.7-.936.672-.648 1.008-1.5 1.008-2.556s-.336-1.908-1.008-2.556c-.648-.672-1.548-1.008-2.7-1.008h-4.32v7.056h4.32zm12.456-19.476h4.86V164h-4.86v-23.76z" fill="#FF5225"/></svg>