<svg width="114" height="114" fill="none" xmlns="http://www.w3.org/2000/svg"><path d="M47.705 56.051l6.11 28.847h6.372l6.11-28.847H47.705z" fill="#E9E9E9"/><path fill-rule="evenodd" clip-rule="evenodd" d="M47.705 56.051h18.592l-6.11 28.847h-6.371l-6.11-28.847zm2.748 2.227H63.55L58.382 82.67H55.62l-5.167-24.393z" fill="#000"/><mask id="a" style="mask-type:luminance" maskUnits="userSpaceOnUse" x="0" y="0" width="114" height="114"><path d="M0 0h114v114H0V0z" fill="#fff"/></mask><g mask="url(#a)"><path d="M87.346 49.588l-2.182-7.561-1.97 1.895a5.81 5.81 0 01-5.94 1.306c-3.195-1.115-6.745-1.974-10.544-2.52a68.591 68.591 0 00-9.711-.681c-3.363 0-6.62.238-9.711.68-3.8.547-7.35 1.406-10.545 2.52a5.81 5.81 0 01-5.94-1.305l-1.97-1.895-2.181 7.56v6.602l22.7 3.115h15.294l22.7-3.115v-6.601z" fill="#766D78"/><path fill-rule="evenodd" clip-rule="evenodd" d="M49.2 60.407c.05.007.1.01.151.01h15.295c.05 0 .1-.003.151-.01l22.7-3.115c.551-.076.962-.547.962-1.103v-6.601a1.11 1.11 0 00-.044-.309l-2.182-7.56a1.113 1.113 0 00-1.841-.494l-1.97 1.895a4.697 4.697 0 01-4.801 1.056c-3.268-1.14-6.889-2.015-10.753-2.57a69.703 69.703 0 00-9.87-.692c-3.414 0-6.723.241-9.868.692-3.865.555-7.486 1.43-10.754 2.57a4.697 4.697 0 01-4.8-1.056l-1.97-1.895a1.113 1.113 0 00-1.842.493l-2.182 7.561a1.11 1.11 0 00-.044.309v6.6c0 .557.411 1.028.962 1.104l22.7 3.115zm.227-2.216l-21.662-2.973v-5.473l1.627-5.637.64.617a6.924 6.924 0 007.078 1.554c3.122-1.09 6.602-1.933 10.336-2.47a67.477 67.477 0 019.553-.669c3.31 0 6.514.234 9.552.67 3.734.536 7.214 1.38 10.336 2.469M49.427 58.19H64.57l21.662-2.973v-5.473l-1.626-5.637-.64.617-.742-.772.741.771a6.924 6.924 0 01-7.078 1.555" fill="#000"/><path fill-rule="evenodd" clip-rule="evenodd" d="M69.285 55.677l.77-5.34a7.85 7.85 0 00-1.78-6.21c-.769-.91-1.87-1.473-3.052-1.615a69.194 69.194 0 00-8.226-.485c-2.83 0-5.583.168-8.227.485-1.182.142-2.283.705-3.051 1.615a7.85 7.85 0 00-1.78 6.21l.198 1.378a1.522 1.522 0 01-.004-.02l.574 3.982a8.246 8.246 0 001.137 3.147 8.267 8.267 0 007.04 3.935h8.225a8.26 8.26 0 008.176-7.082z" fill="#8C818F"/><path d="M70.061 50.337l-.77 5.34a8.26 8.26 0 01-8.176 7.082h-8.224a8.261 8.261 0 01-8.177-7.082l-.769-5.34a7.85 7.85 0 011.78-6.21c.768-.91 1.87-1.473 3.052-1.615a69.197 69.197 0 018.226-.485c2.829 0 5.583.168 8.226.485 1.183.142 2.284.705 3.052 1.615a7.85 7.85 0 011.78 6.21z" fill="#A29AA5"/><path fill-rule="evenodd" clip-rule="evenodd" d="M44.9 59.407a9.374 9.374 0 007.987 4.465h8.225a9.374 9.374 0 007.987-4.465 9.364 9.364 0 001.291-3.571l.77-5.34a8.963 8.963 0 00-2.032-7.087c-.962-1.14-2.326-1.829-3.77-2.002A70.292 70.292 0 0057 40.914c-2.873 0-5.671.17-8.36.493-1.443.173-2.807.863-3.769 2.002m1.926 14.832a7.138 7.138 0 01-.984-2.722l-.77-5.34a6.736 6.736 0 011.53-5.334c.574-.68 1.412-1.117 2.333-1.227 2.6-.312 5.309-.477 8.094-.477 2.785 0 5.494.165 8.094.477.92.11 1.758.546 2.333 1.227a6.737 6.737 0 011.529 5.334l-.77 5.34a7.147 7.147 0 01-7.074 6.127h-8.225a7.147 7.147 0 01-6.09-3.405M44.9 59.407zm0 0a9.364 9.364 0 01-1.291-3.571l1.291 3.57zm-1.291-3.571zm0 0zm0 0l-.77-5.34a8.963 8.963 0 012.032-7.087" fill="#000"/><path d="M44.871 43.409l.03 15.998H44.9l-1.291-3.571 1.262-12.427z" fill="#000"/><path d="M57.001 48.468a3.45 3.45 0 100 6.9 3.45 3.45 0 000-6.9z" fill="#EAEAEA"/><path fill-rule="evenodd" clip-rule="evenodd" d="M56.998 54.256a2.337 2.337 0 110-4.675 2.337 2.337 0 010 4.675zm-4.564-2.337a4.564 4.564 0 109.127 0 4.564 4.564 0 00-9.127 0z" fill="#000"/><path d="M57 78.74c-15.844 0-28.69-12.844-28.69-28.689S41.157 21.361 57 21.361c15.844 0 28.69 12.845 28.69 28.69 0 15.844-12.846 28.69-28.69 28.69zm0-65.205c-20.167 0-36.516 16.349-36.516 36.516 0 20.167 16.349 36.516 36.516 36.516 20.167 0 36.516-16.349 36.516-36.516 0-20.167-16.349-36.516-36.516-36.516z" fill="#8C818F"/><path d="M57 81.476c-19.311 0-35.119-14.99-36.426-33.97-.058.84-.09 1.69-.09 2.545 0 20.167 16.35 36.516 36.516 36.516 20.167 0 36.516-16.349 36.516-36.516 0-.856-.032-1.704-.09-2.545C92.119 66.486 76.31 81.476 57 81.476z" fill="#766D78"/><path fill-rule="evenodd" clip-rule="evenodd" d="M57 85.453c-19.552 0-35.402-15.85-35.402-35.402S37.448 14.648 57 14.648s35.402 15.85 35.402 35.403c0 19.552-15.85 35.402-35.402 35.402zM19.371 50.051C19.371 70.833 36.218 87.68 57 87.68c20.782 0 37.629-16.847 37.629-37.629 0-20.782-16.847-37.63-37.629-37.63-20.782 0-37.629 16.848-37.629 37.63zm7.827 0c0 16.46 13.343 29.802 29.802 29.802 16.46 0 29.803-13.343 29.803-29.802 0-16.46-13.344-29.803-29.803-29.803-16.46 0-29.802 13.344-29.802 29.803zM57 77.627c-15.23 0-27.576-12.346-27.576-27.576S41.77 22.475 57 22.475s27.576 12.346 27.576 27.576S72.23 77.627 57 77.627z" fill="#000"/><path d="M16.582 56.64L10.823 45a10.015 10.015 0 014.19-13.238l.914-.497 4.22-3.9c1.99-1.84 5.205-1.14 6.249 1.363l3.96 9.258a.277.277 0 00.5.023l2.264-4.206a1.165 1.165 0 011.573-.476l1.446.77a5.338 5.338 0 012.451 6.68L25.081 74.796l-12.46-4.279 3.961-13.876z" fill="#FFCDBE"/><path d="M15.013 31.762l.914-.497.278-.257a10.009 10.009 0 00-.491 9.76l5.504 11.124c.164.331.198.712.096 1.068L15.779 71.6l-3.157-1.084 3.96-13.876L10.823 45a10.015 10.015 0 014.19-13.238z" fill="#EBAE9D"/><path fill-rule="evenodd" clip-rule="evenodd" d="M25.735 76.193l-14.463-4.967 4.133-14.478-5.569-11.254c-2.651-5.358-.595-11.853 4.656-14.71l.792-.43 4.117-3.807c2.558-2.364 6.688-1.465 8.03 1.748l.003.005 3.274 7.654 1.443-2.679a2.278 2.278 0 013.076-.931l1.446.77a6.451 6.451 0 012.963 8.075L25.735 76.193zm-1.286-2.796l13.117-33.03c.794-2-.041-4.276-1.94-5.288l-1.445-.77a.052.052 0 00-.039-.004.052.052 0 00-.03.025l-2.266 4.206c-.552 1.025-2.044.96-2.503-.112l-3.962-9.263-.002-.004a2.788 2.788 0 00-4.466-.975l-4.32 3.995-1.037.563a8.901 8.901 0 00-3.724 11.767l5.95 12.025-3.789 13.274 10.456 3.591z" fill="#000"/><path d="M12.144 64.341L1.668 94.517l17.131 5.948 10.476-30.177a1.168 1.168 0 00-.72-1.485l-14.926-5.181a1.167 1.167 0 00-1.485.72z" fill="#FF5225"/><path d="M12.144 64.341a1.167 1.167 0 011.485-.72l4.836 1.68c-.568-.198-1.199.136-1.41.745L6.579 96.222l-4.91-1.705 10.475-30.176z" fill="#E93A0D"/><path fill-rule="evenodd" clip-rule="evenodd" d="M14.204 65.138a1.114 1.114 0 00-1.422.682L2.61 94.885a1.113 1.113 0 01-2.102-.735l10.173-29.065a3.34 3.34 0 014.264-2.046l12.843 4.532a3.34 3.34 0 012.045 4.24l-10.077 29.193a1.113 1.113 0 11-2.105-.727L27.73 71.084c.2-.578-.105-1.21-.682-1.413l-12.843-4.533z" fill="#000"/><path d="M97.417 56.64L103.176 45a10.015 10.015 0 00-4.19-13.238l-.914-.497-4.219-3.9c-1.99-1.84-5.206-1.14-6.249 1.363l-3.96 9.258a.277.277 0 01-.5.023l-2.265-4.206a1.165 1.165 0 00-1.573-.476l-1.445.77a5.338 5.338 0 00-2.452 6.68l13.51 34.018 12.459-4.279-3.96-13.876z" fill="#FFCDBE"/><path d="M98.984 31.762l-.915-.497-.278-.257a10.008 10.008 0 01.492 9.76L92.78 51.892a1.482 1.482 0 00-.096 1.068l5.535 18.64 3.157-1.084-3.96-13.876L103.172 45a10.015 10.015 0 00-4.19-13.238z" fill="#EBAE9D"/><path fill-rule="evenodd" clip-rule="evenodd" d="M88.272 76.193l14.463-4.967-4.133-14.478 5.569-11.254c2.651-5.358.595-11.853-4.656-14.71l-.792-.43-4.117-3.807c-2.558-2.364-6.688-1.465-8.03 1.748l-.003.005-3.274 7.654-1.443-2.679a2.278 2.278 0 00-3.076-.931l-1.446.77a6.451 6.451 0 00-2.963 8.075l13.901 35.004zm1.286-2.796L76.44 40.367a4.225 4.225 0 011.94-5.288l1.445-.77a.052.052 0 01.07.021l2.265 4.206c.552 1.025 2.044.96 2.503-.112l3.962-9.263.002-.004a2.788 2.788 0 014.466-.975l4.321 3.995 1.036.563a8.901 8.901 0 013.724 11.767l-5.95 12.025 3.789 13.274-10.456 3.591z" fill="#000"/><path d="M101.857 64.341l10.476 30.176-17.13 5.948-10.476-30.177a1.168 1.168 0 01.72-1.485l14.925-5.181a1.168 1.168 0 011.485.72z" fill="#FF5225"/><path d="M101.854 64.341a1.166 1.166 0 00-1.485-.72l-4.835 1.68c.567-.198 1.198.136 1.41.745l10.475 30.176 4.911-1.705-10.476-30.176z" fill="#E93A0D"/><path fill-rule="evenodd" clip-rule="evenodd" d="M99.754 65.138c.581-.205 1.218.1 1.421.682l10.173 29.065a1.113 1.113 0 102.101-.735l-10.172-29.065a3.34 3.34 0 00-4.264-2.046L86.17 67.57a3.34 3.34 0 00-2.046 4.24l10.078 29.193a1.113 1.113 0 102.104-.727L86.23 71.084c-.2-.578.105-1.21.682-1.413l12.843-4.533z" fill="#000"/></g></svg>