<svg width="31" height="31" fill="none" xmlns="http://www.w3.org/2000/svg"><path d="M28.276 3.693H2.725c-.42 0-.812.103-1.167.273L15.44 17.85l3.111-2.99v-.001L29.444 3.967a2.693 2.693 0 00-1.167-.274zm2.451 1.558L20.477 15.5l10.25 10.25A2.7 2.7 0 0031 24.582V6.418c0-.42-.103-.812-.273-1.167zM.273 5.25C.103 5.606 0 5.998 0 6.418v18.164c0 .419.103.812.273 1.167l10.25-10.25L.272 5.25z" fill="#fff"/><path d="M19.193 16.784l-3.112 2.99a.905.905 0 01-1.284 0l-2.99-2.99-10.25 10.25c.355.17.748.273 1.167.273h25.551c.42 0 .812-.104 1.167-.273l-10.249-10.25z" fill="#fff"/></svg>