<svg width="24" height="24" fill="none" xmlns="http://www.w3.org/2000/svg"><path fill-rule="evenodd" clip-rule="evenodd" d="M15.2 0H8.8C3.947 0 0 3.947 0 8.8v6.4C0 20.053 3.947 24 8.8 24h6.4c4.853 0 8.8-3.947 8.8-8.8V8.8C24 3.947 20.053 0 15.2 0zm7.2 15.2c0 3.973-3.227 7.2-7.2 7.2H8.8a7.204 7.204 0 01-7.2-7.2V8.8c0-3.973 3.227-7.2 7.2-7.2h6.4c3.973 0 7.2 3.227 7.2 7.2v6.4zm-5.067-3.467c0 .454-.346.8-.8.8H7.467a.786.786 0 01-.8-.8c0-.453.346-.8.8-.8h9.066c.454 0 .8.347.8.8z" fill="#FF5225"/></svg>