<svg width="85" height="85" fill="none" xmlns="http://www.w3.org/2000/svg"><path stroke="#FF5225" stroke-width="4" d="M2 2h81v81H2z"/><path fill="#FF5225" d="M10 10h65v65H10z"/><path fill-rule="evenodd" clip-rule="evenodd" d="M27.614 52.882h-1.078a.77.77 0 00-.772.766v3.247a.77.77 0 00.772.769l32.302.004a.771.771 0 00.771-.768v-3.248a.77.77 0 00-.771-.768H57.76v-2.352a.771.771 0 00-.772-.768h-.542V36.066h1.102a2.077 2.077 0 002.077-2.068 2.077 2.077 0 00-2.077-2.067h-1.611l-12.316-9.59a1.5 1.5 0 00-.934-.341c-.327 0-.644.114-.934.34l-12.317 9.591h-1.61a2.077 2.077 0 00-2.078 2.067 2.077 2.077 0 002.077 2.067h1.103v13.697h-.543a.771.771 0 00-.771.768v2.352zm33.049 7.147h-3.891a.772.772 0 01-.773-.769c0-.423.347-.768.772-.768h4.663c.425 0 .772.345.772.768v3.75l6.054-7.69-6.052-7.688v3.75a.771.771 0 01-.772.768h-2.518a.771.771 0 01-.772-.769c0-.423.347-.768.772-.768h1.746V45.41h.003a.77.77 0 011.373-.47l7.788 9.897c.22.271.234.668.01.954l-7.758 9.86a.77.77 0 01-1.417-.42V60.03zM24.449 37.222h3.153c.425 0 .772.343.774.768a.771.771 0 01-.772.769h-2.37l.102 5.203a.77.77 0 01-1.377.482l-7.796-9.907a.762.762 0 01.01-.954l7.792-9.898a.77.77 0 011.373.47h.002v5.203h4.076c.425 0 .772.345.772.769a.771.771 0 01-.772.768h-4.848a.771.771 0 01-.771-.768v-3.75l-6.052 7.69 6.009 7.637-.072-3.631a.771.771 0 01.767-.851zm26.109.663h-15.74v-1.819l15.74-.002v1.82zm-2.993 1.536h2.993v10.343h-2.993V39.421zm-8.21 0h6.666v10.343h-6.665V39.421zm-4.536 0h2.993v10.343h-2.993V39.421zm17.28 10.341V36.066h2.807l-.003 13.696H52.1zM33.275 36.066v13.699H30.47V36.066h2.804zm20.168-4.136h-21.51l10.755-8.374 10.755 8.374zM42.69 23.536s-.002 0-.003.002l-.003-.002h.006zM57.55 34.53H27.827a.523.523 0 01-.373-.157.528.528 0 01-.157-.374.532.532 0 01.533-.53h29.723a.532.532 0 01.376.904.532.532 0 01-.376.157zm-1.33 18.353H29.157v-1.584H56.22v1.584zm-28.913 1.536h30.76v1.711h-30.76v-1.71z" fill="#fff"/></svg>