<svg width="85" height="85" fill="none" xmlns="http://www.w3.org/2000/svg"><path stroke="#FF5225" stroke-width="4" d="M2 2h81v81H2z"/><path fill="#FF5225" d="M10 10h65v65H10z"/><path d="M64.33 26.25H21.67A3.674 3.674 0 0018 29.92v26.484a3.674 3.674 0 003.67 3.67h42.66a3.673 3.673 0 003.67-3.67V29.92a3.674 3.674 0 00-3.67-3.67zm1.517 30.154c0 .836-.68 1.516-1.516 1.516H21.669c-.835 0-1.516-.68-1.516-1.516V29.92c0-.836.68-1.516 1.516-1.516h42.662c.835 0 1.516.68 1.516 1.516v26.485z" fill="#fff"/><path d="M28.69 48.273h-4.956a1.077 1.077 0 000 2.153h4.956a1.077 1.077 0 100-2.153zm9.648 0H33.38a1.077 1.077 0 000 2.153h4.957a1.077 1.077 0 100-2.153zm9.647 0H43.03a1.077 1.077 0 100 2.153h4.956a1.077 1.077 0 100-2.153zm9.648 0h-4.957a1.077 1.077 0 100 2.153h4.957a1.077 1.077 0 100-2.153zm-16.205 4.788H23.735a1.077 1.077 0 000 2.153h17.694a1.077 1.077 0 100-2.153zM30.184 36.397h-6.45c-.595 0-1.077.482-1.077 1.077v4.663c0 .595.482 1.077 1.077 1.077h6.45c.594 0 1.076-.483 1.076-1.077v-4.663c0-.595-.482-1.077-1.076-1.077zm-1.077 4.663H24.81v-2.51h4.297v2.51zm33.16-8.515h-11.69a1.077 1.077 0 100 2.153h11.69a1.077 1.077 0 000-2.153z" fill="#fff"/></svg>