<svg width="85" height="85" fill="none" xmlns="http://www.w3.org/2000/svg"><path stroke="#FF5225" stroke-width="4" d="M2 2h81v81H2z"/><path fill="#FF5225" d="M10 10h65v65H10z"/><path d="M51.148 46.89c0-7.189-5.848-13.037-13.037-13.037-7.189 0-13.037 5.848-13.037 13.037 0 7.188 5.848 13.037 13.037 13.037 7.189 0 13.037-5.849 13.037-13.037zm-24.444 0c0-6.29 5.119-11.408 11.407-11.408S49.518 40.6 49.518 46.89c0 6.29-5.119 11.407-11.407 11.407S26.704 53.18 26.704 46.89z" fill="#fff"/><path d="M64.185 36.949h-4.074v-7.66a.815.815 0 00-.815-.815h-4.074v-7.66a.815.815 0 00-.815-.814H21.815a.815.815 0 00-.815.815v8.474c0 .45.365.815.815.815h4.074v4.831C22.87 38.023 21 42.24 21 46.887c0 5.435 2.554 10.277 6.518 13.412v2.886c0 .45.365.815.815.815h32.593c.45 0 .815-.365.815-.815v-7.66h2.444c.45 0 .815-.364.815-.814V37.763a.815.815 0 00-.815-.815zm-.815 8.474h-8.223a16.934 16.934 0 00-2.093-6.845H63.37v6.845zm-4.889-8.474h-6.47c-2.495-3.478-6.247-5.991-10.598-6.845h17.068v6.845zM22.63 21.63h30.963v6.845H22.63V21.63zm12.18 8.474a17.01 17.01 0 00-7.292 3.373v-3.373h7.293zM22.63 46.89c0-8.535 6.946-15.482 15.481-15.482 8.536 0 15.482 6.946 15.482 15.482 0 8.535-6.946 15.481-15.482 15.481-8.535 0-15.481-6.946-15.481-15.481zm6.518 15.481v-.933c.554.343 1.129.654 1.724.933h-1.724zm30.963 0h-14.76a17.204 17.204 0 007.506-6.844h7.254v6.844zm-6.406-8.474a16.969 16.969 0 001.509-6.844h8.157v6.844h-9.666z" fill="#fff"/><path d="M41.434 49.941a.815.815 0 100-1.63h-5.835v-1.23h4.98c2.3 0 4.17-1.87 4.17-4.17s-1.87-4.17-4.17-4.17h-5.794a.815.815 0 00-.815.816v5.895h-1.685a.815.815 0 100 1.63h1.685v1.23h-1.685a.815.815 0 100 1.63h1.685v4.281a.815.815 0 101.63 0v-4.282h5.834zm-5.835-9.57h4.98c1.4 0 2.541 1.139 2.541 2.538 0 1.4-1.139 2.54-2.54 2.54l-4.98.002v-5.08z" fill="#fff"/></svg>