<svg width="204" height="214" fill="none" xmlns="http://www.w3.org/2000/svg"><path d="M44.636 94.236c24.61 0 44.633-20.066 44.633-44.73 0-24.662-20.023-44.723-44.633-44.723C20.022 4.783 0 24.846 0 49.506c0 24.664 20.022 44.73 44.636 44.73zm0-85.712c22.55 0 40.896 18.384 40.896 40.98 0 22.6-18.346 40.986-40.896 40.986-22.554 0-40.9-18.387-40.9-40.987 0-22.595 18.346-40.979 40.9-40.979zm70.103 155.958c0 24.662 20.02 44.723 44.631 44.723S204 189.141 204 164.482c0-24.664-20.019-44.731-44.63-44.731-24.611 0-44.631 20.067-44.631 44.731zm85.525 0c0 22.597-18.343 40.979-40.894 40.979s-40.894-18.384-40.894-40.979c0-22.6 18.343-40.986 40.894-40.986s40.894 18.386 40.894 40.986zM44.903 214L162.361 1.817 159.092 0 41.634 212.182l3.27 1.818z" opacity=".1" fill="#000"/></svg>