<svg width="30" height="30" fill="none" xmlns="http://www.w3.org/2000/svg"><g clip-path="url(#clip0_0_36)"><path d="M16.816 13.82a.586.586 0 01-.171-.415v-7.31a.586.586 0 011.172 0v5.896L28.39 1.417a.586.586 0 01.829.829L18.645 12.819h5.895a.586.586 0 110 1.172h-7.309a.588.588 0 01-.415-.172zM29.1 26.904l-.469.469c-1.523 1.523-3.335 2.393-5.385 2.585-.29.027-.586.041-.886.041-1.516 0-3.152-.347-4.876-1.037-4.416-1.766-8.248-5.313-9.69-6.755-1.444-1.443-4.99-5.276-6.756-9.691C.211 10.452-.124 8.513.041 6.755c.192-2.05 1.062-3.862 2.585-5.385L3.095.9a3.085 3.085 0 014.357 0l3.245 3.245a3.084 3.084 0 010 4.358l-1.099 1.1a1.89 1.89 0 00-.237 2.41 31.345 31.345 0 003.903 4.723 31.374 31.374 0 004.723 3.903 1.89 1.89 0 002.41-.237l1.1-1.1a3.06 3.06 0 012.178-.9c.825 0 1.599.32 2.18.9l3.244 3.246a3.085 3.085 0 010 4.357zm-.829-3.53l-3.245-3.244a1.897 1.897 0 00-1.35-.558c-.511 0-.99.198-1.35.558l-1.099 1.099a3.051 3.051 0 01-3.89.383 32.557 32.557 0 01-4.9-4.05 32.54 32.54 0 01-4.05-4.899 3.051 3.051 0 01.384-3.89l1.098-1.1a1.912 1.912 0 000-2.7L6.623 1.729a1.903 1.903 0 00-1.35-.559c-.489 0-.978.187-1.35.559l-.468.468C.95 4.702.504 8.027 2.125 12.082c1.685 4.214 5.104 7.905 6.496 9.297 1.391 1.391 5.083 4.81 9.297 6.496 4.055 1.621 7.38 1.174 9.884-1.33l.468-.468a1.913 1.913 0 000-2.701z" fill="#fff"/></g><defs><clipPath id="clip0_0_36"><path fill="#fff" d="M0 0h30v30H0z"/></clipPath></defs></svg>