<svg width="540" height="219" fill="none" xmlns="http://www.w3.org/2000/svg"><path d="M6.21 9.476a4.02 4.02 0 012.034 1.278c.552.636.828 1.422.828 2.358 0 .792-.204 1.5-.612 2.124a4.054 4.054 0 01-1.62 1.458 4.89 4.89 0 01-2.25.522c-.984 0-1.848-.246-2.592-.738A4.974 4.974 0 01.27 14.516l1.692-1.188c.36.54.738.948 1.134 1.224.396.276.87.414 1.422.414.6 0 1.092-.162 1.476-.486.396-.336.594-.786.594-1.35 0-.552-.21-.972-.63-1.26-.408-.3-1.008-.45-1.8-.45H2.664v-.63l2.484-3.474h-3.96V5.12h7.65v.648L6.21 9.476zm9.393 7.74c-1.032 0-1.902-.276-2.61-.828-.708-.552-1.236-1.296-1.584-2.232-.348-.948-.522-2.01-.522-3.186 0-1.812.402-3.276 1.206-4.392.804-1.116 1.974-1.674 3.51-1.674 1.536 0 2.7.558 3.492 1.674.804 1.116 1.206 2.58 1.206 4.392 0 1.176-.174 2.238-.522 3.186-.348.936-.876 1.68-1.584 2.232-.696.552-1.56.828-2.592.828zm2.196-6.228c0-1.26-.18-2.214-.54-2.862-.348-.648-.9-.972-1.656-.972-.768 0-1.332.324-1.692.972-.348.648-.522 1.602-.522 2.862 0 2.652.738 3.978 2.214 3.978 1.464 0 2.196-1.326 2.196-3.978zm62.571 4.464h-4.86L74.844 17h-2.61l5.31-12.096h.81L83.646 17h-2.61l-.666-1.548zM77.94 9.44l-1.584 4.014h3.168L77.94 9.44zm11.002 7.776c-1.007 0-1.913-.234-2.717-.702a5.24 5.24 0 01-1.872-1.926l1.674-1.26c.383.528.803.948 1.26 1.26.456.312 1.007.468 1.655.468.529 0 .943-.114 1.243-.342.3-.24.45-.564.45-.972 0-.348-.115-.612-.343-.792-.216-.192-.606-.42-1.17-.684l-1.278-.576c-.911-.408-1.62-.882-2.123-1.422-.505-.54-.757-1.206-.757-1.998 0-.672.168-1.26.505-1.764a3.374 3.374 0 011.422-1.188c.6-.276 1.271-.414 2.015-.414.912 0 1.698.204 2.358.612a4.276 4.276 0 011.567 1.638l-1.657 1.278c-.612-.912-1.368-1.368-2.268-1.368-.42 0-.774.102-1.062.306-.275.192-.413.474-.413.846 0 .312.102.564.306.756.216.18.576.384 1.08.612l1.35.594c.995.444 1.733.936 2.213 1.476.48.528.72 1.194.72 1.998 0 .72-.18 1.35-.54 1.89-.36.54-.858.954-1.493 1.242-.624.288-1.332.432-2.124.432zM95.236 5.12h2.43v4.554h5.256V5.12h2.43V17h-2.43v-5.13h-5.256V17h-2.43V5.12zm78.34 9.81V17l-8.766.018v-.522l4.248-4.608c.588-.636 1.014-1.182 1.278-1.638.264-.456.396-.906.396-1.35 0-.516-.15-.936-.45-1.26-.3-.324-.702-.486-1.206-.486s-.912.168-1.224.504c-.3.336-.45.774-.45 1.314 0 .216.03.504.09.864h-2.448a4 4 0 01-.126-1.008c0-.672.168-1.308.504-1.908.348-.6.84-1.086 1.476-1.458.636-.372 1.374-.558 2.214-.558.78 0 1.482.168 2.106.504a3.577 3.577 0 011.476 1.35c.36.576.54 1.224.54 1.944a4.19 4.19 0 01-.648 2.25c-.432.684-1.068 1.47-1.908 2.358l-1.53 1.62h4.428zm77.426 2.286c-1.164 0-2.232-.27-3.204-.81a6.134 6.134 0 01-2.286-2.214 6.112 6.112 0 01-.828-3.132c0-1.14.282-2.178.846-3.114a6.09 6.09 0 012.286-2.232c.972-.54 2.04-.81 3.204-.81 1.128 0 2.148.264 3.06.792a5.623 5.623 0 012.178 2.16l-1.836 1.296c-.84-1.332-1.974-1.998-3.402-1.998-.732 0-1.392.168-1.98.504a3.663 3.663 0 00-1.368 1.404c-.324.588-.486 1.26-.486 2.016s.162 1.428.486 2.016a3.7 3.7 0 001.368 1.386c.588.324 1.248.486 1.98.486 1.428 0 2.562-.666 3.402-1.998l1.836 1.296a5.623 5.623 0 01-2.16 2.178c-.924.516-1.956.774-3.096.774zM331.658 17l-3.078-4.194h-1.782V17h-2.43V5.12h4.464c.828 0 1.566.162 2.214.486a3.518 3.518 0 011.512 1.35c.372.576.558 1.242.558 1.998s-.186 1.428-.558 2.016a3.759 3.759 0 01-1.53 1.368L334.394 17h-2.736zm-4.86-6.336h2.034c.564 0 1.002-.156 1.314-.468.324-.312.486-.726.486-1.242 0-.504-.162-.912-.486-1.224-.324-.312-.762-.468-1.314-.468h-2.034v3.402z" fill="#222"/><path stroke="#B3B3B3" d="M9.5 26v193m530.5-.5H9m531-36H90m450-36H169m371-36H249m291-36H329M89.5 26v157m80-157v121m80-121v84m80-84v49"/><path d="M35.564 197.922V210H34.16v-8.514l-3.798 5.148h-.504l-3.816-5.184V210h-1.404v-12.078h.504l4.95 6.858 4.986-6.858h.486zm7.023 12.258c-.84 0-1.608-.204-2.304-.612a4.565 4.565 0 01-1.656-1.656 4.535 4.535 0 01-.612-2.304c0-.84.204-1.608.612-2.304.408-.708.96-1.26 1.656-1.656a4.57 4.57 0 012.322-.612c.84 0 1.608.204 2.304.612.708.408 1.266.96 1.674 1.656.408.696.612 1.464.612 2.304 0 .828-.204 1.596-.612 2.304a4.524 4.524 0 01-1.674 1.656 4.57 4.57 0 01-2.322.612zm0-1.278c.588 0 1.122-.144 1.602-.432a3.081 3.081 0 001.152-1.17 3.314 3.314 0 00.432-1.674c0-.624-.138-1.188-.414-1.692-.276-.504-.66-.9-1.152-1.188a3.054 3.054 0 00-1.602-.432c-.6 0-1.14.144-1.62.432-.48.288-.858.684-1.134 1.188a3.464 3.464 0 00-.414 1.692c0 .612.138 1.17.414 1.674.276.492.654.882 1.134 1.17.48.288 1.014.432 1.602.432zm18.6 1.098H49.633v-8.766h1.386v7.542h3.672v-7.542h1.386v7.542h3.69v-7.542h1.386v7.542h1.422v3.762h-1.386V210zm3.562-8.766h1.386v3.492h4.302v-3.492h1.386V210h-1.386v-4.05h-4.302V210h-1.386v-8.766zm14.05 8.946c-.84 0-1.609-.204-2.305-.612a4.565 4.565 0 01-1.656-1.656 4.535 4.535 0 01-.612-2.304c0-.84.204-1.608.612-2.304.408-.708.96-1.26 1.656-1.656a4.57 4.57 0 012.322-.612c.84 0 1.608.204 2.304.612.708.408 1.266.96 1.674 1.656.408.696.612 1.464.612 2.304 0 .828-.204 1.596-.612 2.304a4.524 4.524 0 01-1.674 1.656 4.57 4.57 0 01-2.322.612zm0-1.278c.587 0 1.121-.144 1.601-.432a3.081 3.081 0 001.152-1.17 3.314 3.314 0 00.432-1.674c0-.624-.138-1.188-.414-1.692-.276-.504-.66-.9-1.152-1.188a3.054 3.054 0 00-1.602-.432c-.6 0-1.14.144-1.62.432-.48.288-.858.684-1.134 1.188a3.464 3.464 0 00-.414 1.692c0 .612.138 1.17.414 1.674.276.492.654.882 1.134 1.17.48.288 1.014.432 1.602.432zm11.003 1.296a4.57 4.57 0 01-2.322-.612 4.565 4.565 0 01-1.656-1.656 4.57 4.57 0 01-.611-2.322c0-.84.204-1.608.612-2.304a4.565 4.565 0 011.656-1.656 4.57 4.57 0 012.322-.612c.767 0 1.463.174 2.088.522a4.244 4.244 0 011.53 1.386l-.99.792c-.709-.948-1.578-1.422-2.61-1.422-.6 0-1.147.15-1.638.45-.48.288-.859.684-1.135 1.188a3.391 3.391 0 00-.413 1.656c0 .612.137 1.17.413 1.674.276.504.654.906 1.135 1.206a3.183 3.183 0 001.637.432c1.033 0 1.897-.468 2.593-1.404l.99.774a4.405 4.405 0 01-1.53 1.404c-.613.336-1.303.504-2.07.504zm7.737-7.722h-2.952v-1.242h7.272v1.242h-2.952V210h-1.368v-7.524zm6.233-1.242h1.386v3.024h2.088c.996 0 1.788.264 2.376.792.6.516.9 1.206.9 2.07 0 .864-.3 1.56-.9 2.088-.588.528-1.38.792-2.376.792h-3.474v-8.766zm3.402 7.542c.612 0 1.086-.15 1.422-.45.336-.3.504-.696.504-1.188s-.174-.888-.522-1.188c-.336-.312-.81-.468-1.422-.468h-1.998v3.294h2.016zm17.263-5.31c.732.216 1.302.6 1.71 1.152.408.54.612 1.194.612 1.962 0 .66-.15 1.248-.45 1.764-.3.516-.738.924-1.314 1.224-.564.288-1.23.432-1.998.432h-4.896v-11.88h4.086c1.032 0 1.854.282 2.466.846.612.564.918 1.284.918 2.16 0 .492-.102.936-.306 1.332a2.792 2.792 0 01-.828 1.008zm-4.932-4.086v3.69h2.538c.672 0 1.188-.168 1.548-.504.36-.336.54-.786.54-1.35 0-.564-.18-1.008-.54-1.332-.348-.336-.864-.504-1.548-.504h-2.538zm3.348 9.36c.78 0 1.386-.198 1.818-.594.432-.408.648-.942.648-1.602 0-.66-.216-1.188-.648-1.584-.432-.408-1.038-.612-1.818-.612h-3.348v4.392h3.348zm7.838-6.264h-2.952v-1.242h7.272v1.242h-2.952V210h-1.368v-7.524zm12.978-6.516h1.638l-9.414 16.218h-1.638l9.414-16.218zm2.027 5.076h.504l4.158 4.932 4.14-4.932h.486V210h-1.386v-5.922l-2.988 3.564h-.54l-2.988-3.564V210h-1.386v-8.964zm-35.658-26.838a6.183 6.183 0 01-3.114-.81 6.036 6.036 0 01-2.25-2.214c-.54-.936-.81-1.974-.81-3.114s.27-2.178.81-3.114a6.036 6.036 0 012.25-2.214 6.183 6.183 0 013.114-.81c1.056 0 2.016.234 2.88.702a5.381 5.381 0 012.052 1.854l-1.044.828a4.84 4.84 0 00-1.674-1.53c-.648-.372-1.38-.558-2.196-.558-.888 0-1.692.21-2.412.63a4.597 4.597 0 00-1.71 1.746c-.408.732-.612 1.554-.612 2.466 0 .912.204 1.74.612 2.484.42.732.99 1.308 1.71 1.728.72.42 1.524.63 2.412.63.816 0 1.548-.18 2.196-.54a5.016 5.016 0 001.674-1.548l1.044.828c-.492.78-1.176 1.404-2.052 1.872-.864.456-1.824.684-2.88.684zm14.923-4.158h-6.93c.084.864.426 1.56 1.026 2.088.6.528 1.332.792 2.196.792.996 0 1.89-.396 2.682-1.188l.81.936c-.456.48-.984.858-1.584 1.134a4.648 4.648 0 01-1.926.396c-.864 0-1.65-.198-2.358-.594a4.506 4.506 0 01-2.286-3.978c0-.84.198-1.608.594-2.304a4.43 4.43 0 011.62-1.674 4.344 4.344 0 012.268-.612c.744 0 1.422.168 2.034.504a3.682 3.682 0 011.44 1.404c.348.6.522 1.284.522 2.052 0 .336-.036.684-.108 1.044zm-3.924-3.744a2.82 2.82 0 00-1.908.702c-.54.456-.888 1.062-1.044 1.818h5.562c-.012-.78-.27-1.392-.774-1.836-.492-.456-1.104-.684-1.836-.684zm11.076-1.26c.828 0 1.572.204 2.232.612.66.396 1.176.942 1.548 1.638.372.696.558 1.47.558 2.322 0 .852-.192 1.632-.576 2.34a4.284 4.284 0 01-1.548 1.656 4.22 4.22 0 01-2.214.594 4.53 4.53 0 01-1.836-.378 3.768 3.768 0 01-1.386-1.08v4.5h-1.386v-12.006h1.296v1.404a3.318 3.318 0 011.386-1.17 4.394 4.394 0 011.926-.432zm-.198 7.884c.588 0 1.116-.138 1.584-.414.48-.288.852-.684 1.116-1.188a3.464 3.464 0 00.414-1.692c0-.624-.138-1.188-.414-1.692a2.958 2.958 0 00-1.116-1.188 2.961 2.961 0 00-1.584-.432c-.528 0-1.026.12-1.494.36-.456.24-.828.606-1.116 1.098-.288.492-.432 1.104-.432 1.836s.138 1.35.414 1.854c.288.492.66.858 1.116 1.098.468.24.972.36 1.512.36zm14.199-7.884V174h-1.386v-6.192l-5.346 6.39h-.504v-8.964h1.386v6.21l5.346-6.408h.504zm9.437.198V174h-1.386v-3.204h-1.656L150.097 174h-1.62l2.556-3.384c-.648-.192-1.158-.51-1.53-.954-.36-.456-.54-.996-.54-1.62 0-.852.282-1.53.846-2.034.564-.516 1.314-.774 2.25-.774h3.492zm-1.386 1.242h-2.016c-.552 0-.984.138-1.296.414-.312.276-.468.654-.468 1.134 0 .468.156.846.468 1.134.324.276.762.414 1.314.414h1.998v-3.096zm9.498-1.242h1.386V174h-1.386v-8.766zm7.38 8.766h-1.746l-4.068-4.752 3.69-4.014h1.728l-3.726 3.978 4.122 4.788zm4.946-8.964c1.032 0 1.86.306 2.484.918.624.612.936 1.494.936 2.646v5.4h-1.296v-1.134a3.146 3.146 0 01-1.242.99c-.504.228-1.074.342-1.71.342-.9 0-1.638-.222-2.214-.666-.564-.444-.846-1.044-.846-1.8 0-.744.288-1.338.864-1.782.576-.444 1.338-.666 2.286-.666h2.772v-.756c0-.72-.192-1.266-.576-1.638-.372-.384-.888-.576-1.548-.576-.528 0-.996.12-1.404.36-.408.228-.792.576-1.152 1.044l-.918-.756c.396-.648.906-1.128 1.53-1.44a4.348 4.348 0 012.034-.486zm-.648 8.01c.48 0 .924-.102 1.332-.306.408-.216.732-.51.972-.882.252-.372.378-.78.378-1.224v-.216h-2.61c-.612 0-1.08.108-1.404.324-.324.204-.486.51-.486.918 0 .444.174.786.522 1.026.348.24.78.36 1.296.36zm11.273-7.686c.792 0 1.524.198 2.196.594.672.396 1.2.936 1.584 1.62.396.672.594 1.404.594 2.196 0 .804-.204 1.548-.612 2.232a4.514 4.514 0 01-1.656 1.602 4.69 4.69 0 01-2.304.576c-.888 0-1.674-.204-2.358-.612a4.335 4.335 0 01-1.602-1.746c-.372-.756-.558-1.614-.558-2.574v-1.53c0-1.344.132-2.448.396-3.312.276-.864.804-1.584 1.584-2.16.792-.576 1.932-.99 3.42-1.242 1.488-.264 2.472-.498 2.952-.702v1.332c-.552.24-1.482.456-2.79.648-1.248.18-2.178.498-2.79.954-.612.444-1.002.972-1.17 1.584-.168.6-.252 1.368-.252 2.304a3.935 3.935 0 011.44-1.296 4.115 4.115 0 011.926-.468zm-.18 7.542c.576 0 1.104-.138 1.584-.414.48-.276.858-.654 1.134-1.134.276-.48.414-1.008.414-1.584 0-.576-.138-1.104-.414-1.584a3.026 3.026 0 00-1.134-1.134 3.121 3.121 0 00-1.584-.414c-.564 0-1.086.138-1.566.414-.48.276-.864.654-1.152 1.134a3.121 3.121 0 00-.414 1.584c0 .564.138 1.086.414 1.566.288.48.672.864 1.152 1.152.48.276 1.002.414 1.566.414zm14.729-2.862h-6.93c.084.864.426 1.56 1.026 2.088.6.528 1.332.792 2.196.792.996 0 1.89-.396 2.682-1.188l.81.936c-.456.48-.984.858-1.584 1.134a4.648 4.648 0 01-1.926.396c-.864 0-1.65-.198-2.358-.594a4.506 4.506 0 01-2.286-3.978c0-.84.198-1.608.594-2.304a4.43 4.43 0 011.62-1.674 4.344 4.344 0 012.268-.612c.744 0 1.422.168 2.034.504a3.682 3.682 0 011.44 1.404c.348.6.522 1.284.522 2.052 0 .336-.036.684-.108 1.044zm-3.924-3.744a2.82 2.82 0 00-1.908.702c-.54.456-.888 1.062-1.044 1.818h5.562c-.012-.78-.27-1.392-.774-1.836-.492-.456-1.104-.684-1.836-.684zm13.091-1.062V174h-1.386v-7.524h-3.258l-.036 1.08c-.048 1.536-.162 2.772-.342 3.708-.18.936-.468 1.638-.864 2.106-.396.468-.936.702-1.62.702-.168 0-.324-.024-.468-.072v-1.17c.144.024.264.036.36.036.564 0 .966-.438 1.206-1.314.24-.888.378-2.232.414-4.032l.054-2.286h5.94zm9.451 0V174h-1.386v-3.204h-1.656L214.327 174h-1.62l2.556-3.384c-.648-.192-1.158-.51-1.53-.954-.36-.456-.54-.996-.54-1.62 0-.852.282-1.53.846-2.034.564-.516 1.314-.774 2.25-.774h3.492zm-1.386 1.242h-2.016c-.552 0-.984.138-1.296.414-.312.276-.468.654-.468 1.134 0 .468.156.846.468 1.134.324.276.762.414 1.314.414h1.998v-3.096zm-33.757-40.356h1.404v4.896h6.66v-4.896h1.404V138h-1.404v-5.724h-6.66V138h-1.404v-11.88zm15.698 2.916c1.032 0 1.86.306 2.484.918.624.612.936 1.494.936 2.646v5.4h-1.296v-1.134a3.146 3.146 0 01-1.242.99c-.504.228-1.074.342-1.71.342-.9 0-1.638-.222-2.214-.666-.564-.444-.846-1.044-.846-1.8 0-.744.288-1.338.864-1.782.576-.444 1.338-.666 2.286-.666h2.772v-.756c0-.72-.192-1.266-.576-1.638-.372-.384-.888-.576-1.548-.576-.528 0-.996.12-1.404.36-.408.228-.792.576-1.152 1.044l-.918-.756c.396-.648.906-1.128 1.53-1.44a4.348 4.348 0 012.034-.486zm-.648 8.01c.48 0 .924-.102 1.332-.306.408-.216.732-.51.972-.882.252-.372.378-.78.378-1.224v-.216h-2.61c-.612 0-1.08.108-1.404.324-.324.204-.486.51-.486.918 0 .444.174.786.522 1.026.348.24.78.36 1.296.36zm7.008-7.812h7.002V138h-1.404v-7.524h-4.212V138h-1.386v-8.766zm14.645-.198c.828 0 1.572.204 2.232.612.66.396 1.176.942 1.548 1.638.372.696.558 1.47.558 2.322 0 .852-.192 1.632-.576 2.34a4.284 4.284 0 01-1.548 1.656 4.22 4.22 0 01-2.214.594 4.53 4.53 0 01-1.836-.378 3.768 3.768 0 01-1.386-1.08v4.5h-1.386v-12.006h1.296v1.404a3.318 3.318 0 011.386-1.17 4.394 4.394 0 011.926-.432zm-.198 7.884c.588 0 1.116-.138 1.584-.414.48-.288.852-.684 1.116-1.188a3.464 3.464 0 00.414-1.692c0-.624-.138-1.188-.414-1.692a2.958 2.958 0 00-1.116-1.188 2.961 2.961 0 00-1.584-.432c-.528 0-1.026.12-1.494.36-.456.24-.828.606-1.116 1.098-.288.492-.432 1.104-.432 1.836s.138 1.35.414 1.854c.288.492.66.858 1.116 1.098.468.24.972.36 1.512.36zm13.09-7.686V138h-1.386v-3.204h-1.656L228.779 138h-1.62l2.556-3.384c-.648-.192-1.158-.51-1.53-.954-.36-.456-.54-.996-.54-1.62 0-.852.282-1.53.846-2.034.564-.516 1.314-.774 2.25-.774h3.492zm-1.386 1.242h-2.016c-.552 0-.984.138-1.296.414-.312.276-.468.654-.468 1.134 0 .468.156.846.468 1.134.324.276.762.414 1.314.414h1.998v-3.096zm5.353-1.242l3.618 4.014-3.996 4.752h-1.692l4.014-4.752-3.672-4.014h1.728zm3.798 0h1.386V138h-1.386v-8.766zm7.29 8.766h-1.728l-3.996-4.752 3.618-4.014h1.71l-3.636 3.978 4.032 4.788zm9.392-3.96h-6.93c.084.864.426 1.56 1.026 2.088.6.528 1.332.792 2.196.792.996 0 1.89-.396 2.682-1.188l.81.936c-.456.48-.984.858-1.584 1.134a4.648 4.648 0 01-1.926.396c-.864 0-1.65-.198-2.358-.594a4.506 4.506 0 01-2.286-3.978c0-.84.198-1.608.594-2.304a4.43 4.43 0 011.62-1.674 4.344 4.344 0 012.268-.612c.744 0 1.422.168 2.034.504a3.682 3.682 0 011.44 1.404c.348.6.522 1.284.522 2.052 0 .336-.036.684-.108 1.044zm-3.924-3.744a2.82 2.82 0 00-1.908.702c-.54.456-.888 1.062-1.044 1.818h5.562c-.012-.78-.27-1.392-.774-1.836-.492-.456-1.104-.684-1.836-.684zm6.467-1.062h1.386v3.492h4.302v-3.492h1.386V138h-1.386v-4.05h-4.302V138h-1.386v-8.766zm17.344-.198V138h-1.386v-6.192l-5.346 6.39h-.504v-8.964h1.386v6.21l5.346-6.408h.504zm10.787 5.004h-6.93c.084.864.426 1.56 1.026 2.088.6.528 1.332.792 2.196.792.996 0 1.89-.396 2.682-1.188l.81.936c-.456.48-.984.858-1.584 1.134a4.648 4.648 0 01-1.926.396c-.864 0-1.65-.198-2.358-.594a4.506 4.506 0 01-2.286-3.978c0-.84.198-1.608.594-2.304a4.43 4.43 0 011.62-1.674 4.344 4.344 0 012.268-.612c.744 0 1.422.168 2.034.504a3.682 3.682 0 011.44 1.404c.348.6.522 1.284.522 2.052 0 .336-.036.684-.108 1.044zm-3.924-3.744a2.82 2.82 0 00-1.908.702c-.54.456-.888 1.062-1.044 1.818h5.562c-.012-.78-.27-1.392-.774-1.836-.492-.456-1.104-.684-1.836-.684zm14.86-4.176V138h-1.404v-10.224l-2.592.81-.342-1.206 3.816-1.26h.522zm7.761 5.634h7.542v1.17h-7.542v-1.17zm18.255-5.634V138h-1.404v-10.224l-2.592.81-.342-1.206 3.816-1.26h.522zm6.82 0V138h-1.404v-10.224l-2.592.81-.342-1.206 3.816-1.26h.522zm7.486 12.078c-1.452 0-2.544-.582-3.276-1.746-.72-1.176-1.08-2.676-1.08-4.5 0-1.812.366-3.27 1.098-4.374.732-1.104 1.818-1.656 3.258-1.656s2.52.552 3.24 1.656c.732 1.092 1.098 2.55 1.098 4.374 0 1.824-.36 3.324-1.08 4.5-.72 1.164-1.806 1.746-3.258 1.746zm0-1.296c.996 0 1.722-.444 2.178-1.332.468-.888.702-2.088.702-3.6 0-1.488-.228-2.652-.684-3.492-.456-.84-1.188-1.26-2.196-1.26-1.008 0-1.746.42-2.214 1.26-.456.84-.684 2.004-.684 3.492 0 1.512.234 2.712.702 3.6.468.888 1.2 1.332 2.196 1.332zm13.505-5.436c.732.216 1.302.6 1.71 1.152.408.54.612 1.194.612 1.962 0 .66-.15 1.248-.45 1.764-.3.516-.738.924-1.314 1.224-.564.288-1.23.432-1.998.432h-4.896v-11.88h4.086c1.032 0 1.854.282 2.466.846.612.564.918 1.284.918 2.16 0 .492-.102.936-.306 1.332a2.792 2.792 0 01-.828 1.008zm-4.932-4.086v3.69h2.538c.672 0 1.188-.168 1.548-.504.36-.336.54-.786.54-1.35 0-.564-.18-1.008-.54-1.332-.348-.336-.864-.504-1.548-.504h-2.538zm3.348 9.36c.78 0 1.386-.198 1.818-.594.432-.408.648-.942.648-1.602 0-.66-.216-1.188-.648-1.584-.432-.408-1.038-.612-1.818-.612h-3.348v4.392h3.348zm7.221-5.328c-.312 0-.582-.108-.81-.324a1.099 1.099 0 01-.324-.81c0-.324.108-.594.324-.81.228-.216.498-.324.81-.324.312 0 .576.108.792.324.228.216.342.486.342.81 0 .324-.114.594-.342.81-.216.216-.48.324-.792.324zm-.666 4.968h1.638l-.738 4.842h-1.134l.234-4.842zm17.344.36V138h-8.262v-.36l4.23-4.5c.72-.756 1.248-1.392 1.584-1.908.336-.528.504-1.074.504-1.638 0-.66-.21-1.218-.63-1.674-.408-.468-.96-.702-1.656-.702-.72 0-1.296.24-1.728.72-.432.48-.648 1.056-.648 1.728 0 .336.036.666.108.99h-1.44a4.149 4.149 0 01-.126-1.044c0-.624.156-1.218.468-1.782a3.601 3.601 0 011.332-1.386c.588-.348 1.266-.522 2.034-.522.72 0 1.362.162 1.926.486a3.3 3.3 0 011.332 1.296c.324.54.486 1.146.486 1.818a3.8 3.8 0 01-.342 1.584 6.49 6.49 0 01-.846 1.386c-.324.42-.756.912-1.296 1.476l-2.628 2.772h5.598zm6.783-4.986h7.542v1.17h-7.542v-1.17zm22.485 4.986V138h-8.262v-.36l4.23-4.5c.72-.756 1.248-1.392 1.584-1.908.336-.528.504-1.074.504-1.638 0-.66-.21-1.218-.63-1.674-.408-.468-.96-.702-1.656-.702-.72 0-1.296.24-1.728.72-.432.48-.648 1.056-.648 1.728 0 .336.036.666.108.99h-1.44a4.149 4.149 0 01-.126-1.044c0-.624.156-1.218.468-1.782a3.601 3.601 0 011.332-1.386c.588-.348 1.266-.522 2.034-.522.72 0 1.362.162 1.926.486a3.3 3.3 0 011.332 1.296c.324.54.486 1.146.486 1.818a3.8 3.8 0 01-.342 1.584 6.49 6.49 0 01-.846 1.386c-.324.42-.756.912-1.296 1.476l-2.628 2.772h5.598zm10.072 0V138h-8.262v-.36l4.23-4.5c.72-.756 1.248-1.392 1.584-1.908.336-.528.504-1.074.504-1.638 0-.66-.21-1.218-.63-1.674-.408-.468-.96-.702-1.656-.702-.72 0-1.296.24-1.728.72-.432.48-.648 1.056-.648 1.728 0 .336.036.666.108.99h-1.44a4.149 4.149 0 01-.126-1.044c0-.624.156-1.218.468-1.782a3.601 3.601 0 011.332-1.386c.588-.348 1.266-.522 2.034-.522.72 0 1.362.162 1.926.486a3.3 3.3 0 011.332 1.296c.324.54.486 1.146.486 1.818a3.8 3.8 0 01-.342 1.584 6.49 6.49 0 01-.846 1.386c-.324.42-.756.912-1.296 1.476l-2.628 2.772h5.598zm6.508 1.458c-1.452 0-2.544-.582-3.276-1.746-.72-1.176-1.08-2.676-1.08-4.5 0-1.812.366-3.27 1.098-4.374.732-1.104 1.818-1.656 3.258-1.656s2.52.552 3.24 1.656c.732 1.092 1.098 2.55 1.098 4.374 0 1.824-.36 3.324-1.08 4.5-.72 1.164-1.806 1.746-3.258 1.746zm0-1.296c.996 0 1.722-.444 2.178-1.332.468-.888.702-2.088.702-3.6 0-1.488-.228-2.652-.684-3.492-.456-.84-1.188-1.26-2.196-1.26-1.008 0-1.746.42-2.214 1.26-.456.84-.684 2.004-.684 3.492 0 1.512.234 2.712.702 3.6.468.888 1.2 1.332 2.196 1.332zm13.505-5.436c.732.216 1.302.6 1.71 1.152.408.54.612 1.194.612 1.962 0 .66-.15 1.248-.45 1.764-.3.516-.738.924-1.314 1.224-.564.288-1.23.432-1.998.432h-4.896v-11.88h4.086c1.032 0 1.854.282 2.466.846.612.564.918 1.284.918 2.16 0 .492-.102.936-.306 1.332a2.792 2.792 0 01-.828 1.008zm-4.932-4.086v3.69h2.538c.672 0 1.188-.168 1.548-.504.36-.336.54-.786.54-1.35 0-.564-.18-1.008-.54-1.332-.348-.336-.864-.504-1.548-.504h-2.538zm3.348 9.36c.78 0 1.386-.198 1.818-.594.432-.408.648-.942.648-1.602 0-.66-.216-1.188-.648-1.584-.432-.408-1.038-.612-1.818-.612h-3.348v4.392h3.348zM268.832 89.922c1.128 0 2.16.27 3.096.81a5.902 5.902 0 012.232 2.214c.552.936.828 1.974.828 3.114s-.276 2.178-.828 3.114a5.902 5.902 0 01-2.232 2.214c-.936.54-1.968.81-3.096.81-1.056 0-2.022-.228-2.898-.684-.864-.468-1.548-1.092-2.052-1.872l1.062-.828a5.078 5.078 0 001.656 1.548c.66.36 1.398.54 2.214.54a4.67 4.67 0 002.268-.558 4.509 4.509 0 001.656-1.53c.432-.66.69-1.404.774-2.232h-5.562v-1.26h5.526a4.818 4.818 0 00-.81-2.124 4.505 4.505 0 00-1.656-1.458 4.635 4.635 0 00-2.196-.522c-.816 0-1.554.186-2.214.558-.648.36-1.2.87-1.656 1.53l-1.062-.828a5.524 5.524 0 012.07-1.854c.864-.468 1.824-.702 2.88-.702zm8.565 3.312h1.386V102h-1.386v-8.766zm7.38 8.766h-1.746l-4.068-4.752 3.69-4.014h1.728l-3.726 3.978 4.122 4.788zm6.492-8.964c.828 0 1.572.204 2.232.612.66.396 1.176.942 1.548 1.638.372.696.558 1.47.558 2.322 0 .852-.192 1.632-.576 2.34a4.284 4.284 0 01-1.548 1.656 4.22 4.22 0 01-2.214.594 4.53 4.53 0 01-1.836-.378 3.768 3.768 0 01-1.386-1.08v4.5h-1.386V93.234h1.296v1.404a3.318 3.318 0 011.386-1.17 4.394 4.394 0 011.926-.432zm-.198 7.884c.588 0 1.116-.138 1.584-.414.48-.288.852-.684 1.116-1.188a3.464 3.464 0 00.414-1.692c0-.624-.138-1.188-.414-1.692a2.958 2.958 0 00-1.116-1.188 2.961 2.961 0 00-1.584-.432c-.528 0-1.026.12-1.494.36-.456.24-.828.606-1.116 1.098-.288.492-.432 1.104-.432 1.836s.138 1.35.414 1.854c.288.492.66.858 1.116 1.098.468.24.972.36 1.512.36zm10.113-7.884c1.032 0 1.86.306 2.484.918.624.612.936 1.494.936 2.646v5.4h-1.296v-1.134a3.146 3.146 0 01-1.242.99c-.504.228-1.074.342-1.71.342-.9 0-1.638-.222-2.214-.666-.564-.444-.846-1.044-.846-1.8 0-.744.288-1.338.864-1.782.576-.444 1.338-.666 2.286-.666h2.772v-.756c0-.72-.192-1.266-.576-1.638-.372-.384-.888-.576-1.548-.576-.528 0-.996.12-1.404.36-.408.228-.792.576-1.152 1.044l-.918-.756c.396-.648.906-1.128 1.53-1.44a4.348 4.348 0 012.034-.486zm-.648 8.01c.48 0 .924-.102 1.332-.306.408-.216.732-.51.972-.882.252-.372.378-.78.378-1.224v-.216h-2.61c-.612 0-1.08.108-1.404.324-.324.204-.486.51-.486.918 0 .444.174.786.522 1.026.348.24.78.36 1.296.36zm7.008-7.812h1.386v3.492h4.302v-3.492h1.386V102h-1.386v-4.05h-4.302V102h-1.386v-8.766zm17.343-.198V102h-1.386v-6.192l-5.346 6.39h-.504v-8.964h1.386v6.21l5.346-6.408h.504zm7.655 0c.828 0 1.572.204 2.232.612.66.396 1.176.942 1.548 1.638.372.696.558 1.47.558 2.322 0 .852-.192 1.632-.576 2.34a4.284 4.284 0 01-1.548 1.656 4.22 4.22 0 01-2.214.594 4.53 4.53 0 01-1.836-.378 3.768 3.768 0 01-1.386-1.08v4.5h-1.386V93.234h1.296v1.404a3.318 3.318 0 011.386-1.17 4.394 4.394 0 011.926-.432zm-.198 7.884c.588 0 1.116-.138 1.584-.414.48-.288.852-.684 1.116-1.188a3.464 3.464 0 00.414-1.692c0-.624-.138-1.188-.414-1.692a2.958 2.958 0 00-1.116-1.188 2.961 2.961 0 00-1.584-.432c-.528 0-1.026.12-1.494.36-.456.24-.828.606-1.116 1.098-.288.492-.432 1.104-.432 1.836s.138 1.35.414 1.854c.288.492.66.858 1.116 1.098.468.24.972.36 1.512.36zm14.281-7.686l-4.32 9.99c-.336.768-.75 1.326-1.242 1.674-.48.36-1.056.54-1.728.54a5.29 5.29 0 01-1.35-.18v-1.17c.456.06.81.09 1.062.09.456 0 .84-.102 1.152-.306.324-.204.6-.57.828-1.098l.468-1.044-3.636-8.496h1.494l2.898 6.984 2.898-6.984h1.476zm9.451-.198c.816 0 1.566.204 2.25.612.696.408 1.242.96 1.638 1.656.408.696.612 1.464.612 2.304 0 .828-.204 1.596-.612 2.304a4.427 4.427 0 01-1.638 1.656 4.344 4.344 0 01-2.268.612 4.36 4.36 0 01-2.178-.558 4.448 4.448 0 01-1.602-1.53 4.471 4.471 0 01-.684-2.142h-1.584V102h-1.386v-8.766h1.386v3.492h1.638a4.409 4.409 0 01.828-1.89 4.358 4.358 0 011.566-1.314 4.348 4.348 0 012.034-.486zm-.018 7.866c.576 0 1.098-.144 1.566-.432.48-.288.852-.678 1.116-1.17a3.427 3.427 0 00.414-1.674c0-.612-.138-1.17-.414-1.674-.264-.504-.63-.9-1.098-1.188a2.84 2.84 0 00-1.566-.45c-.588 0-1.116.144-1.584.432a2.998 2.998 0 00-1.098 1.188 3.59 3.59 0 00-.396 1.692c0 .612.132 1.17.396 1.674.264.492.63.882 1.098 1.17.468.288.99.432 1.566.432zM374.559 102h-11.556v-8.766h1.386v7.542h3.672v-7.542h1.386v7.542h3.69v-7.542h1.386v7.542h1.422v3.762h-1.386V102zm6.711-8.964c1.032 0 1.86.306 2.484.918.624.612.936 1.494.936 2.646v5.4h-1.296v-1.134a3.146 3.146 0 01-1.242.99c-.504.228-1.074.342-1.71.342-.9 0-1.638-.222-2.214-.666-.564-.444-.846-1.044-.846-1.8 0-.744.288-1.338.864-1.782.576-.444 1.338-.666 2.286-.666h2.772v-.756c0-.72-.192-1.266-.576-1.638-.372-.384-.888-.576-1.548-.576-.528 0-.996.12-1.404.36-.408.228-.792.576-1.152 1.044l-.918-.756c.396-.648.906-1.128 1.53-1.44a4.348 4.348 0 012.034-.486zm-.648 8.01c.48 0 .924-.102 1.332-.306.408-.216.732-.51.972-.882.252-.372.378-.78.378-1.224v-.216h-2.61c-.612 0-1.08.108-1.404.324-.324.204-.486.51-.486.918 0 .444.174.786.522 1.026.348.24.78.36 1.296.36zm13.398-7.812V102h-1.386v-3.204h-1.656L388.566 102h-1.62l2.556-3.384c-.648-.192-1.158-.51-1.53-.954-.36-.456-.54-.996-.54-1.62 0-.852.282-1.53.846-2.034.564-.516 1.314-.774 2.25-.774h3.492zm-1.386 1.242h-2.016c-.552 0-.984.138-1.296.414-.312.276-.468.654-.468 1.134 0 .468.156.846.468 1.134.324.276.762.414 1.314.414h1.998v-3.096zm13.44 7.704c-.84 0-1.608-.204-2.304-.612a4.565 4.565 0 01-1.656-1.656 4.535 4.535 0 01-.612-2.304c0-.84.204-1.608.612-2.304.408-.708.96-1.26 1.656-1.656a4.57 4.57 0 012.322-.612c.84 0 1.608.204 2.304.612.708.408 1.266.96 1.674 1.656.408.696.612 1.464.612 2.304 0 .828-.204 1.596-.612 2.304a4.524 4.524 0 01-1.674 1.656 4.57 4.57 0 01-2.322.612zm0-1.278c.588 0 1.122-.144 1.602-.432a3.081 3.081 0 001.152-1.17 3.314 3.314 0 00.432-1.674c0-.624-.138-1.188-.414-1.692-.276-.504-.66-.9-1.152-1.188a3.054 3.054 0 00-1.602-.432c-.6 0-1.14.144-1.62.432-.48.288-.858.684-1.134 1.188a3.464 3.464 0 00-.414 1.692c0 .612.138 1.17.414 1.674.276.492.654.882 1.134 1.17.48.288 1.014.432 1.602.432zm7.044-7.668h7.002V102h-1.404v-7.524h-4.212V102h-1.386v-8.766zm16.661 0V102h-1.386v-7.524h-3.258l-.036 1.08c-.048 1.536-.162 2.772-.342 3.708-.18.936-.468 1.638-.864 2.106-.396.468-.936.702-1.62.702-.168 0-.324-.024-.468-.072v-1.17c.144.024.264.036.36.036.564 0 .966-.438 1.206-1.314.24-.888.378-2.232.414-4.032l.054-2.286h5.94zm10.802 4.806h-6.93c.084.864.426 1.56 1.026 2.088.6.528 1.332.792 2.196.792.996 0 1.89-.396 2.682-1.188l.81.936c-.456.48-.984.858-1.584 1.134a4.648 4.648 0 01-1.926.396c-.864 0-1.65-.198-2.358-.594a4.506 4.506 0 01-2.286-3.978c0-.84.198-1.608.594-2.304a4.43 4.43 0 011.62-1.674 4.344 4.344 0 012.268-.612c.744 0 1.422.168 2.034.504a3.682 3.682 0 011.44 1.404c.348.6.522 1.284.522 2.052 0 .336-.036.684-.108 1.044zm-3.924-3.744a2.82 2.82 0 00-1.908.702c-.54.456-.888 1.062-1.044 1.818h5.562c-.012-.78-.27-1.392-.774-1.836-.492-.456-1.104-.684-1.836-.684zm8.108.18h-2.952v-1.242h7.272v1.242h-2.952V102h-1.368v-7.524zm6.234-1.242h1.386V102h-1.386v-8.766zm7.38 8.766h-1.746l-4.068-4.752 3.69-4.014h1.728l-3.726 3.978 4.122 4.788zm4.946-8.964c1.032 0 1.86.306 2.484.918.624.612.936 1.494.936 2.646v5.4h-1.296v-1.134a3.146 3.146 0 01-1.242.99c-.504.228-1.074.342-1.71.342-.9 0-1.638-.222-2.214-.666-.564-.444-.846-1.044-.846-1.8 0-.744.288-1.338.864-1.782.576-.444 1.338-.666 2.286-.666h2.772v-.756c0-.72-.192-1.266-.576-1.638-.372-.384-.888-.576-1.548-.576-.528 0-.996.12-1.404.36-.408.228-.792.576-1.152 1.044l-.918-.756c.396-.648.906-1.128 1.53-1.44a4.348 4.348 0 012.034-.486zm-.648 8.01c.48 0 .924-.102 1.332-.306.408-.216.732-.51.972-.882.252-.372.378-.78.378-1.224v-.216h-2.61c-.612 0-1.08.108-1.404.324-.324.204-.486.51-.486.918 0 .444.174.786.522 1.026.348.24.78.36 1.296.36zM344.638 54.12h9.288V66h-1.404V55.38h-6.48V66h-1.404V54.12zm16.314 12.06c-.84 0-1.608-.204-2.304-.612a4.565 4.565 0 01-1.656-1.656 4.535 4.535 0 01-.612-2.304c0-.84.204-1.608.612-2.304.408-.708.96-1.26 1.656-1.656a4.57 4.57 0 012.322-.612c.84 0 1.608.204 2.304.612.708.408 1.266.96 1.674 1.656.408.696.612 1.464.612 2.304 0 .828-.204 1.596-.612 2.304a4.524 4.524 0 01-1.674 1.656 4.57 4.57 0 01-2.322.612zm0-1.278c.588 0 1.122-.144 1.602-.432a3.081 3.081 0 001.152-1.17 3.314 3.314 0 00.432-1.674c0-.624-.138-1.188-.414-1.692-.276-.504-.66-.9-1.152-1.188a3.054 3.054 0 00-1.602-.432c-.6 0-1.14.144-1.62.432-.48.288-.858.684-1.134 1.188a3.464 3.464 0 00-.414 1.692c0 .612.138 1.17.414 1.674.276.492.654.882 1.134 1.17.48.288 1.014.432 1.602.432zm13.669-7.668V66h-1.386v-7.524h-3.258l-.036 1.08c-.048 1.536-.162 2.772-.342 3.708-.18.936-.468 1.638-.864 2.106-.396.468-.936.702-1.62.702-.168 0-.324-.024-.468-.072v-1.17c.144.024.264.036.36.036.564 0 .966-.438 1.206-1.314.24-.888.378-2.232.414-4.032l.054-2.286h5.94zm10.297-.198V66h-1.386v-6.192l-5.346 6.39h-.504v-8.964h1.386v6.21l5.346-6.408h.504zm6.99 9.144c-.84 0-1.608-.204-2.304-.612a4.565 4.565 0 01-1.656-1.656 4.535 4.535 0 01-.612-2.304c0-.84.204-1.608.612-2.304.408-.708.96-1.26 1.656-1.656a4.57 4.57 0 012.322-.612c.84 0 1.608.204 2.304.612.708.408 1.266.96 1.674 1.656.408.696.612 1.464.612 2.304 0 .828-.204 1.596-.612 2.304a4.524 4.524 0 01-1.674 1.656 4.57 4.57 0 01-2.322.612zm0-1.278c.588 0 1.122-.144 1.602-.432a3.081 3.081 0 001.152-1.17 3.314 3.314 0 00.432-1.674c0-.624-.138-1.188-.414-1.692-.276-.504-.66-.9-1.152-1.188a3.054 3.054 0 00-1.602-.432c-.6 0-1.14.144-1.62.432-.48.288-.858.684-1.134 1.188a3.464 3.464 0 00-.414 1.692c0 .612.138 1.17.414 1.674.276.492.654.882 1.134 1.17.48.288 1.014.432 1.602.432zm13.668-7.668V66h-1.386v-7.524h-3.258l-.036 1.08c-.048 1.536-.162 2.772-.342 3.708-.18.936-.468 1.638-.864 2.106-.396.468-.936.702-1.62.702-.168 0-.324-.024-.468-.072v-1.17c.144.024.264.036.36.036.564 0 .966-.438 1.206-1.314.24-.888.378-2.232.414-4.032l.054-2.286h5.94zm10.801 4.806h-6.93c.084.864.426 1.56 1.026 2.088.6.528 1.332.792 2.196.792.996 0 1.89-.396 2.682-1.188l.81.936c-.456.48-.984.858-1.584 1.134a4.648 4.648 0 01-1.926.396c-.864 0-1.65-.198-2.358-.594a4.506 4.506 0 01-2.286-3.978c0-.84.198-1.608.594-2.304a4.43 4.43 0 011.62-1.674 4.344 4.344 0 012.268-.612c.744 0 1.422.168 2.034.504a3.682 3.682 0 011.44 1.404c.348.6.522 1.284.522 2.052 0 .336-.036.684-.108 1.044zm-3.924-3.744a2.82 2.82 0 00-1.908.702c-.54.456-.888 1.062-1.044 1.818h5.562c-.012-.78-.27-1.392-.774-1.836-.492-.456-1.104-.684-1.836-.684zm17.124 3.348c0 .9-.216 1.692-.648 2.376-.42.672-1.008 1.194-1.764 1.566-.744.372-1.59.576-2.538.612v3.042h-1.386v-3.042c-.96-.036-1.818-.24-2.574-.612a4.378 4.378 0 01-1.746-1.584c-.42-.684-.63-1.476-.63-2.376 0-.9.21-1.686.63-2.358a4.379 4.379 0 011.764-1.566c.756-.384 1.608-.594 2.556-.63V52.5h1.386v4.572c.96.036 1.812.246 2.556.63.756.372 1.344.9 1.764 1.584.42.672.63 1.458.63 2.358zm-9.864 0c0 1.008.318 1.806.954 2.394.636.576 1.5.888 2.592.936v-6.678c-1.092.048-1.956.366-2.592.954-.636.588-.954 1.386-.954 2.394zm4.896 3.33c1.092-.048 1.956-.366 2.592-.954.636-.588.954-1.386.954-2.394 0-1.008-.318-1.8-.954-2.376-.636-.588-1.5-.906-2.592-.954v6.678zm14.626-7.938V66h-1.386v-6.192l-5.346 6.39h-.504v-8.964h1.386v6.21l5.346-6.408h.504zm3.047.198h1.386v3.492h4.302v-3.492h1.386V66h-1.386v-4.05h-4.302V66h-1.386v-8.766zm19.094 8.946c-.84 0-1.608-.204-2.304-.612a4.565 4.565 0 01-1.656-1.656 4.535 4.535 0 01-.612-2.304c0-.84.204-1.608.612-2.304.408-.708.96-1.26 1.656-1.656a4.57 4.57 0 012.322-.612c.84 0 1.608.204 2.304.612.708.408 1.266.96 1.674 1.656.408.696.612 1.464.612 2.304 0 .828-.204 1.596-.612 2.304a4.524 4.524 0 01-1.674 1.656 4.57 4.57 0 01-2.322.612zm0-1.278c.588 0 1.122-.144 1.602-.432a3.081 3.081 0 001.152-1.17 3.314 3.314 0 00.432-1.674c0-.624-.138-1.188-.414-1.692-.276-.504-.66-.9-1.152-1.188a3.054 3.054 0 00-1.602-.432c-.6 0-1.14.144-1.62.432-.48.288-.858.684-1.134 1.188a3.464 3.464 0 00-.414 1.692c0 .612.138 1.17.414 1.674.276.492.654.882 1.134 1.17.48.288 1.014.432 1.602.432zm11.311-7.542c.792 0 1.524.198 2.196.594.672.396 1.2.936 1.584 1.62.396.672.594 1.404.594 2.196 0 .804-.204 1.548-.612 2.232a4.514 4.514 0 01-1.656 1.602 4.69 4.69 0 01-2.304.576c-.888 0-1.674-.204-2.358-.612a4.335 4.335 0 01-1.602-1.746c-.372-.756-.558-1.614-.558-2.574v-1.53c0-1.344.132-2.448.396-3.312.276-.864.804-1.584 1.584-2.16.792-.576 1.932-.99 3.42-1.242 1.488-.264 2.472-.498 2.952-.702v1.332c-.552.24-1.482.456-2.79.648-1.248.18-2.178.498-2.79.954-.612.444-1.002.972-1.17 1.584-.168.6-.252 1.368-.252 2.304a3.935 3.935 0 011.44-1.296 4.115 4.115 0 011.926-.468zm-.18 7.542c.576 0 1.104-.138 1.584-.414.48-.276.858-.654 1.134-1.134.276-.48.414-1.008.414-1.584 0-.576-.138-1.104-.414-1.584a3.026 3.026 0 00-1.134-1.134 3.121 3.121 0 00-1.584-.414c-.564 0-1.086.138-1.566.414-.48.276-.864.654-1.152 1.134a3.121 3.121 0 00-.414 1.584c0 .564.138 1.086.414 1.566.288.48.672.864 1.152 1.152.48.276 1.002.414 1.566.414zm10.93 1.278c-.84 0-1.608-.204-2.304-.612a4.565 4.565 0 01-1.656-1.656 4.535 4.535 0 01-.612-2.304c0-.84.204-1.608.612-2.304.408-.708.96-1.26 1.656-1.656a4.57 4.57 0 012.322-.612c.84 0 1.608.204 2.304.612.708.408 1.266.96 1.674 1.656.408.696.612 1.464.612 2.304 0 .828-.204 1.596-.612 2.304a4.524 4.524 0 01-1.674 1.656 4.57 4.57 0 01-2.322.612zm0-1.278c.588 0 1.122-.144 1.602-.432a3.081 3.081 0 001.152-1.17 3.314 3.314 0 00.432-1.674c0-.624-.138-1.188-.414-1.692-.276-.504-.66-.9-1.152-1.188a3.054 3.054 0 00-1.602-.432c-.6 0-1.14.144-1.62.432-.48.288-.858.684-1.134 1.188a3.464 3.464 0 00-.414 1.692c0 .612.138 1.17.414 1.674.276.492.654.882 1.134 1.17.48.288 1.014.432 1.602.432zm13.668-7.668V66h-1.386v-7.524h-3.258l-.036 1.08c-.048 1.536-.162 2.772-.342 3.708-.18.936-.468 1.638-.864 2.106-.396.468-.936.702-1.62.702-.168 0-.324-.024-.468-.072v-1.17c.144.024.264.036.36.036.564 0 .966-.438 1.206-1.314.24-.888.378-2.232.414-4.032l.054-2.286h5.94zm7.004 8.946c-.84 0-1.608-.204-2.304-.612a4.565 4.565 0 01-1.656-1.656 4.535 4.535 0 01-.612-2.304c0-.84.204-1.608.612-2.304.408-.708.96-1.26 1.656-1.656a4.57 4.57 0 012.322-.612c.84 0 1.608.204 2.304.612.708.408 1.266.96 1.674 1.656.408.696.612 1.464.612 2.304 0 .828-.204 1.596-.612 2.304a4.524 4.524 0 01-1.674 1.656 4.57 4.57 0 01-2.322.612zm0-1.278c.588 0 1.122-.144 1.602-.432a3.081 3.081 0 001.152-1.17 3.314 3.314 0 00.432-1.674c0-.624-.138-1.188-.414-1.692-.276-.504-.66-.9-1.152-1.188a3.054 3.054 0 00-1.602-.432c-.6 0-1.14.144-1.62.432-.48.288-.858.684-1.134 1.188a3.464 3.464 0 00-.414 1.692c0 .612.138 1.17.414 1.674.276.492.654.882 1.134 1.17.48.288 1.014.432 1.602.432zm13.488-7.668V66h-1.386v-3.456c-.564.264-1.302.396-2.214.396-1.056 0-1.902-.294-2.538-.882-.624-.588-.936-1.434-.936-2.538v-2.286h1.386v2.214c0 1.5.786 2.25 2.358 2.25.312 0 .648-.03 1.008-.09.36-.072.672-.168.936-.288v-4.086h1.386zm3.066 0h1.386V66h-1.386v-8.766zm7.38 8.766h-1.746l-4.068-4.752 3.69-4.014h1.728l-3.726 3.978L528.043 66zm4.946-8.964c1.032 0 1.86.306 2.484.918.624.612.936 1.494.936 2.646V66h-1.296v-1.134a3.146 3.146 0 01-1.242.99c-.504.228-1.074.342-1.71.342-.9 0-1.638-.222-2.214-.666-.564-.444-.846-1.044-.846-1.8 0-.744.288-1.338.864-1.782.576-.444 1.338-.666 2.286-.666h2.772v-.756c0-.72-.192-1.266-.576-1.638-.372-.384-.888-.576-1.548-.576-.528 0-.996.12-1.404.36-.408.228-.792.576-1.152 1.044l-.918-.756c.396-.648.906-1.128 1.53-1.44a4.348 4.348 0 012.034-.486zm-.648 8.01c.48 0 .924-.102 1.332-.306.408-.216.732-.51.972-.882.252-.372.378-.78.378-1.224v-.216h-2.61c-.612 0-1.08.108-1.404.324-.324.204-.486.51-.486.918 0 .444.174.786.522 1.026.348.24.78.36 1.296.36z" fill="#222"/></svg>