<svg width="102" height="110" fill="none" xmlns="http://www.w3.org/2000/svg"><path d="M93.019 101.715v6.673H19.61V8.285h6.687l66.722 93.43z" fill="#F5F5F5"/><path d="M99.693 14.96v86.756h-73.41V1.611h60.062L99.693 14.96z" fill="#F7F4F7"/><path d="M99.693 14.96v86.756h-6.445V22.909a1.504 1.504 0 00-1.504-1.504h-10.34a1.504 1.504 0 01-1.505-1.504V1.611h6.446L99.693 14.96z" fill="#F5F5F5"/><path d="M99.693 14.959H86.346V1.61l13.347 13.35z" fill="#F5F5F5"/><path d="M43.938 83.267l2.322-1.34-4.602-16.565-28.362-49.125-9.765 5.638L31.894 71l12.044 12.267z" fill="#F7F4F7"/><path d="M10.202 33.428l9.765-5.638 21.691 37.57-9.765 5.638-21.69-37.57z" fill="#FF5225"/><path d="M19.967 27.792l-6.671-11.555-4.834 2.791 6.671 11.555 4.834-2.791zm21.691 37.57l-5.554 3.207 2.603 9.37 5.231 5.328 2.322-1.34-4.602-16.565z" fill="#F5F5F5"/><path d="M19.967 27.792l-4.834 2.79 20.08 34.78.89 3.207 5.555-3.207-21.691-37.57zM11.29 17.384L5.526 20.71l-3.325-5.76 5.762-3.327 3.326 5.762z" fill="#FF5225"/><path fill-rule="evenodd" clip-rule="evenodd" d="M24.672 1.611c0-.89.721-1.611 1.611-1.611h33.194a1.611 1.611 0 010 3.223H27.895v35.509a1.611 1.611 0 11-3.223 0V1.612zm40.216 0C64.888.721 65.61 0 66.5 0h19.845c.427 0 .837.17 1.14.472l13.348 13.348c.302.302.471.712.471 1.14v86.756a1.61 1.61 0 01-1.61 1.611H75.896a1.611 1.611 0 110-3.223h22.185V15.627L85.678 3.223H66.5c-.89 0-1.612-.722-1.612-1.612zM26.283 59.67c.89 0 1.611.721 1.611 1.61v38.825h40.98a1.612 1.612 0 010 3.223h-42.59c-.89 0-1.612-.721-1.612-1.611V61.28c0-.89.721-1.611 1.611-1.611z" fill="#000"/><path fill-rule="evenodd" clip-rule="evenodd" d="M86.345 0c.89 0 1.611.721 1.611 1.611v11.736h11.736a1.61 1.61 0 010 3.223H86.345c-.89 0-1.611-.722-1.611-1.611V1.61c0-.89.721-1.611 1.611-1.611zM17.998 8.284c0-.89.721-1.611 1.611-1.611h6.686a1.611 1.611 0 010 3.222h-5.074v17.278a1.611 1.611 0 11-3.223 0V8.284zm26.695 6.675c0-.89.721-1.612 1.61-1.612h33.368a1.611 1.611 0 110 3.223H46.304c-.89 0-1.611-.722-1.611-1.611zm-6.674 13.346c0-.89.721-1.61 1.611-1.61h46.715a1.611 1.611 0 010 3.222H39.63c-.89 0-1.611-.722-1.611-1.612zm0 6.674c0-.89.721-1.611 1.611-1.611h46.715a1.611 1.611 0 110 3.222H39.63a1.61 1.61 0 01-1.611-1.611zm0 6.674c0-.89.721-1.612 1.611-1.612h46.715a1.611 1.611 0 110 3.223H39.63c-.89 0-1.611-.722-1.611-1.611zm0 6.673c0-.89.721-1.611 1.611-1.611h46.715a1.611 1.611 0 110 3.222H39.63a1.61 1.61 0 01-1.611-1.61zm-18.41-.214c.89 0 1.612.721 1.612 1.611v17.765a1.611 1.611 0 11-3.223 0V49.723c0-.89.722-1.611 1.612-1.611zM44.65 55c0-.89.721-1.612 1.611-1.612h40.085a1.611 1.611 0 010 3.223H46.26A1.61 1.61 0 0144.649 55zm6.717 6.673c0-.89.721-1.611 1.611-1.611h33.368a1.611 1.611 0 110 3.222H52.977a1.61 1.61 0 01-1.61-1.611zm6.673 6.674c0-.89.722-1.612 1.612-1.612h26.694a1.611 1.611 0 110 3.223H59.651c-.89 0-1.612-.721-1.612-1.611zM19.61 72.9c.89 0 1.612.722 1.612 1.612v32.265h70.187v-5.062a1.611 1.611 0 113.223 0v6.673c0 .89-.722 1.612-1.612 1.612H19.61a1.61 1.61 0 01-1.61-1.612V74.512c0-.89.72-1.612 1.61-1.612z" fill="#000"/><path fill-rule="evenodd" clip-rule="evenodd" d="M12.49 14.842a1.611 1.611 0 012.201.59l28.363 49.125c.068.118.12.244.157.375l4.602 16.564a1.613 1.613 0 01-.747 1.827l-2.322 1.34a1.611 1.611 0 01-1.956-.266L30.744 72.129a1.613 1.613 0 01-.246-.323L2.136 22.681a1.611 1.611 0 01.59-2.201l9.764-5.638zm-6.758 7.623l27.455 47.552 11.026 11.231.16-.092-4.212-15.165L12.706 18.44l-6.974 4.026zm65.52 53.597a1.611 1.611 0 011.93.608 52.597 52.597 0 0013.545 13.898 1.611 1.611 0 11-1.854 2.637 55.82 55.82 0 01-10.697-9.831c.314 3.676.38 7.372.198 11.062a1.611 1.611 0 01-2.89.897c-1.033-1.355-2.777-3.794-4.317-6.122-.509-.769-1-1.534-1.44-2.248a12.799 12.799 0 00.007 2.156l-1.6.183-1.601.183-.001-.008-.002-.015-.003-.027-.002-.022a7.643 7.643 0 01-.015-.167 16.044 16.044 0 01-.001-2.466c.024-.306.06-.642.114-.995.197-1.268.633-2.763 1.625-3.9a1.611 1.611 0 012.784.696s.003.014.013.044a1.973 1.973 0 00.044.12c.04.102.097.232.173.39.153.317.364.708.626 1.162a63.677 63.677 0 001.967 3.136c.454.687.926 1.383 1.392 2.056a79.202 79.202 0 00-.998-11.67 1.611 1.611 0 011.004-1.757zM60.74 88.432a142.543 142.543 0 002.303 2.057l.032.027.001.001 1.058-1.215-1.057 1.216a1.611 1.611 0 002.658-1.4m-4.995-.687a3.945 3.945 0 01-.783.597c-.966.563-2.067.678-3.034.62-1.917-.112-3.942-.94-5.194-1.698a1.611 1.611 0 011.669-2.757c.945.573 2.464 1.165 3.715 1.239.618.036 1.007-.063 1.221-.188.15-.087.334-.248.428-.738a1.611 1.611 0 012.767-.788c.231.25.632.637 1.096 1.067" fill="#000"/><path fill-rule="evenodd" clip-rule="evenodd" d="M12.685 16.578c.444.771.18 1.757-.59 2.201l-5.762 3.327a1.611 1.611 0 01-2.201-.59L.805 15.755a1.611 1.611 0 01.59-2.202l5.762-3.326a1.611 1.611 0 012.201.59l3.327 5.761zm-3.597.216l-1.715-2.97-2.971 1.715 1.715 2.97 2.971-1.715zm12.274 10.193a1.61 1.61 0 01-.59 2.2L7.719 36.725l9.21 15.951a1.611 1.611 0 01-2.792 1.611L4.122 36.94a1.611 1.611 0 01.59-2.201l14.449-8.342a1.611 1.611 0 012.2.59zm21.691 37.57c.445.77.181 1.756-.59 2.201L32.7 72.396a1.611 1.611 0 01-1.611-2.791l9.764-5.638a1.611 1.611 0 012.201.59zm1.24 16.645a1.611 1.611 0 012.201.59l3.337 5.78a1.611 1.611 0 11-2.791 1.61l-3.337-5.779a1.611 1.611 0 01.59-2.201z" fill="#000"/></svg>