<svg width="111" height="110" fill="none" xmlns="http://www.w3.org/2000/svg"><path d="M94.245 57.915l14.269-7.517c-.847-4.741-.798-4.542-1.642-9.283l-15.971-2.193c-1.612-2.793-2.286-3.974-3.913-6.767l6.087-14.924c-3.681-3.099-3.528-2.976-7.21-6.06l-13.651 8.587c-3.038-1.104-4.311-1.58-7.339-2.684L59.94 1.731h-9.42l-4.94 15.343c-3.024 1.105-4.297 1.58-7.34 2.684l-13.65-8.591c-3.682 3.084-3.528 2.96-7.21 6.064l6.091 14.93c-1.627 2.791-2.302 3.973-3.913 6.765L3.587 41.115c-.847 4.741-.798 4.542-1.642 9.283l14.266 7.517c.552 3.176.798 4.516 1.35 7.702L6.732 77.553c2.409 4.174 2.317 4.004 4.71 8.163l15.776-3.406c2.47 2.086 3.513 2.96 5.984 5.031l-.621 16.11c4.516 1.642 4.328 1.58 8.853 3.222l9.878-12.734h7.825l9.879 12.734c4.526-1.642 4.341-1.58 8.853-3.222l-.615-16.11c2.47-2.07 3.514-2.945 5.984-5.031l15.772 3.406c2.393-4.159 2.301-3.99 4.71-8.163L92.895 65.617c.556-3.191.798-4.526 1.35-7.702zM55.23 82.218a28.015 28.015 0 110-56.031 28.015 28.015 0 010 56.03z" fill="#F5F5F5"/><path d="M75.661 54.099a19.952 19.952 0 00-.455-4.255L60.529 64.521 49.192 60.92 45.59 49.583 60.46 34.71a19.96 19.96 0 00-22.745 28.03L5.178 90.871a9.747 9.747 0 1013.75 13.749l28.14-32.54A19.945 19.945 0 0075.67 54.096l-.009.003z" fill="#FF5225"/><path d="M15.353 97.606a3.199 3.199 0 11-6.398 0 3.199 3.199 0 016.398 0z" fill="#F7F7F7"/><path d="M69.64 104.706l-.051.018-9.149-11.798a1.647 1.647 0 00-1.3-.638h-7.82a1.645 1.645 0 00-1.3.636l-2.164 2.786a1.646 1.646 0 002.598 2.02l1.67-2.149h6.209l9.383 12.101a1.646 1.646 0 001.302.638 1.63 1.63 0 00.54-.094l1.172-.416a1.654 1.654 0 00.983-.833 1.642 1.642 0 00-.255-1.849 1.647 1.647 0 00-1.819-.423v.001zm20.837-22.522l-6.887-1.487a1.65 1.65 0 00-1.411.353 1029.597 1029.597 0 01-5.976 5.027 1.643 1.643 0 00-.588 1.325l.564 15.014a1.65 1.65 0 00.468 2.799c.359.138.754.146 1.117.024.223-.075.458-.159.701-.255a1.648 1.648 0 001.046-1.6l-.581-15.3a901.182 901.182 0 004.753-3.996l6.094 1.317a1.646 1.646 0 10.695-3.218l.005-.003z" fill="#000"/><path d="M110.134 50.105c-.423-2.37-.624-3.502-.822-4.635-.199-1.132-.401-2.268-.824-4.64a1.644 1.644 0 00-1.396-1.342l-15.167-2.093c-1.52-2.634-2.219-3.843-3.105-5.37l5.78-14.172a1.648 1.648 0 00-.462-1.882l-1.751-1.478A1821.515 1821.515 0 0086.93 9.9a1.647 1.647 0 00-1.935-.131l-12.972 8.17c-2.275-.831-3.561-1.303-5.824-2.135L61.507 1.22A1.647 1.647 0 0059.939.08h-9.417a1.646 1.646 0 00-1.572 1.142l-4.692 14.583-5.825 2.135L25.47 9.77a1.645 1.645 0 00-1.934.13c-2.446 2.046-3.198 2.683-4.504 3.784l-2.715 2.287a1.648 1.648 0 00-.464 1.882l5.79 14.17c-.882 1.516-1.565 2.7-3.105 5.371L3.36 39.489a1.644 1.644 0 00-1.395 1.341c-.513 2.869-.7 3.928-.95 5.363l-.688 3.915a1.644 1.644 0 00.853 1.746l13.548 7.14 1.076 6.116L5.516 76.45a1.647 1.647 0 00-.206 1.93c.055.093 3.37 5.832 3.93 6.807L4.103 89.63a11.393 11.393 0 007.457 20.012c.135 0 .272 0 .407-.007a11.429 11.429 0 008.207-3.934l11.173-12.923-.41 10.604a1.643 1.643 0 001.08 1.611l8.855 3.227a1.64 1.64 0 001.866-.539l3.104-4.007a1.648 1.648 0 00-1.51-2.625c-.43.051-.822.269-1.092.608l-2.37 3.057-6.595-2.403.524-13.522 7.039-8.14a29.7 29.7 0 10-12.805-12.575l-17.254 14.92-3.01-5.22 10.016-11.05a1.646 1.646 0 00.403-1.39c-1.446-8.31-1.27-8.384-2.209-8.879L3.777 49.501l.485-2.739c.214-1.223.376-2.164.738-4.176l14.785-2.039c1.1-.151.935-.395 5.112-7.566a1.652 1.652 0 00.1-1.45L19.353 17.72l1.8-1.516c1.122-.947 1.837-1.55 3.575-3.006l12.636 7.96a1.653 1.653 0 001.444.152l7.338-2.69a1.648 1.648 0 001-1.042l4.572-14.206h7.019l4.571 14.206a1.647 1.647 0 001 1.042l.294.107c2.814 1.035 4.107 1.51 7.046 2.584a1.646 1.646 0 001.444-.153l12.635-7.96c2.176 1.827 2.75 2.311 4.532 3.816l.836.706-5.633 13.812a1.644 1.644 0 00.103 1.451c1.27 2.179 1.934 3.334 3.91 6.759a1.645 1.645 0 001.201.807l14.78 2.038c.282 1.6.449 2.53.612 3.456.163.927.327 1.855.613 3.457l-13.207 6.956a1.644 1.644 0 00-.856 1.178c-.313 1.828-.47 2.697-1.344 7.702a1.645 1.645 0 00.401 1.388l10.023 11.05c-1.725 2.983-2.037 3.52-3.506 6.078l-.359-.077a1.648 1.648 0 00-1.728 2.503 1.646 1.646 0 001.037.716l1.532.33a1.645 1.645 0 001.774-.79c1.861-3.237 1.985-3.454 4.704-8.153a1.65 1.65 0 00-.206-1.93l-10.29-11.342c.741-4.22.874-4.98 1.07-6.115l13.554-7.14a1.646 1.646 0 00.854-1.748zm-92.451 53.443a8.095 8.095 0 01-5.834 2.792 8.105 8.105 0 01-7.83-5.131 8.099 8.099 0 012.237-9.09L38.79 63.99a1.647 1.647 0 00.406-1.958 18.312 18.312 0 0117.816-26.2L44.426 48.42a1.646 1.646 0 00-.405 1.662l3.601 11.337a1.648 1.648 0 001.072 1.07l11.336 3.603a1.645 1.645 0 001.663-.405L74 53.377A18.332 18.332 0 0155.703 72.41a18.103 18.103 0 01-7.924-1.81 1.646 1.646 0 00-1.96.407l-5.596 6.472-.033.038-8.309 9.609c-.014.018-.032.034-.046.053l-14.152 16.369zm11.181-49.343a26.389 26.389 0 1115.194 23.87l3.45-3.99a21.344 21.344 0 008.193 1.618 21.614 21.614 0 0021.112-26.21 1.646 1.646 0 00-2.773-.813L60.073 62.65l-9.57-3.041-3.04-9.57 14.163-14.164a1.647 1.647 0 00-.772-2.763A21.62 21.62 0 0034.1 54.099a21.395 21.395 0 001.614 8.197l-4.125 3.567a26.343 26.343 0 01-2.726-11.658z" fill="#000"/><path d="M12.15 92.758a4.849 4.849 0 10.002 9.697 4.849 4.849 0 00-.002-9.697zm0 6.405a1.556 1.556 0 11.001-3.112 1.556 1.556 0 01-.001 3.112z" fill="#000"/></svg>