<svg width="111" height="92" fill="none" xmlns="http://www.w3.org/2000/svg"><path d="M53.917 22.125h38.5v25.667h-38.5V22.125z" fill="#F5F5F5"/><path d="M55.75 42.291c20.251 0 36.667-9.029 36.667-20.166 0-11.138-16.416-20.167-36.666-20.167-20.25 0-36.667 9.029-36.667 20.167 0 11.137 16.416 20.166 36.667 20.166z" fill="#F5F5F5"/><path d="M55.75 29.459c10.125 0 18.333-3.284 18.333-7.334s-8.208-7.333-18.334-7.333c-10.125 0-18.333 3.283-18.333 7.333 0 4.05 8.208 7.334 18.333 7.334z" fill="#F5F5F5"/><path d="M108.916 55.125v12.833H55.75c-20.252 0-36.667-9.029-36.667-20.166V22.125c0 6.133 4.978 11.626 12.833 15.324a42.845 42.845 0 003.667 1.52c1.8.651 3.637 1.2 5.5 1.643 1.192.289 2.414.54 3.667.756a62.73 62.73 0 005.5.7 65.947 65.947 0 005.5.224h40.333a12.82 12.82 0 0112.833 12.833z" fill="#FF5225"/><path d="M108.916 55.125v22a12.835 12.835 0 01-12.833 12.833h-93.5v-22h93.5a12.83 12.83 0 0012.833-12.833z" fill="#FF5225"/><path d="M2.584 67.958h23.833v22H2.584v-22z" fill="#fff"/><path d="M8.084 73.458h3.667v11H8.084v-11zm7.333 0h3.667v3.667h-3.667v-3.667zm0 7.333h3.667v3.667h-3.667v-3.667zm26.69-51.779c3.673 1.47 8.519 2.28 13.644 2.28 5.124 0 9.97-.81 13.644-2.28 4.206-1.682 6.522-4.128 6.522-6.887 0-2.76-2.316-5.206-6.522-6.888-3.674-1.47-8.52-2.279-13.644-2.279-5.125 0-9.97.81-13.645 2.28-4.206 1.681-6.522 4.127-6.522 6.887s2.316 5.205 6.522 6.887zM55.75 16.625c10.072 0 16.5 3.257 16.5 5.5 0 2.242-6.428 5.5-16.5 5.5-10.073 0-16.5-3.258-16.5-5.5 0-2.243 6.427-5.5 16.5-5.5z" fill="#000"/><path d="M96.083 40.458H94.25V22.125c0-6.086-4.151-11.72-11.69-15.866C75.37 2.303 65.848.125 55.75.125c-10.097 0-19.62 2.177-26.81 6.134-7.539 4.146-11.69 9.78-11.69 15.866v25.667c0 6.085 4.151 11.72 11.69 15.866a42.39 42.39 0 005.38 2.467H2.582A1.833 1.833 0 00.75 67.958v22a1.833 1.833 0 001.833 1.834h93.5a14.681 14.681 0 0014.667-14.667v-22a14.68 14.68 0 00-14.667-14.667zM22.75 88.125H4.417V69.792H22.75v18.333zm67.833-47.667H77.18a42.389 42.389 0 005.38-2.467c3.379-1.858 6.074-4.015 8.023-6.378v8.845zM30.706 9.471c6.66-3.663 15.554-5.68 25.044-5.68s18.384 2.017 25.044 5.68c6.313 3.473 9.79 7.966 9.79 12.654s-3.477 9.181-9.79 12.654c-6.66 3.663-15.554 5.68-25.044 5.68s-18.384-2.017-25.044-5.68c-6.313-3.473-9.79-7.966-9.79-12.654s3.477-9.181 9.79-12.654zm0 50.974c-6.313-3.472-9.79-7.966-9.79-12.653v-16.18c1.949 2.363 4.645 4.52 8.023 6.379a39.863 39.863 0 002.978 1.476v8.325h3.666v-6.873a53.546 53.546 0 005.5 1.581v5.292h3.667v-4.56a64.82 64.82 0 005.5.674v11.219h3.667V44.101c.608.015 1.22.023 1.833.024h3.667v3.667h3.666v-3.667h5.5v3.667h3.667v-3.667h5.5v11h3.667v-11h5.5v3.667h3.666v-3.667h5.5v3.667h3.667v-3.036a11 11 0 01-3.667 21.369H55.75c-9.49 0-18.384-2.017-25.044-5.68zm76.377 16.68a11.011 11.011 0 01-11 11H26.417V69.792h5.5v3.666h3.666v-3.666h5.5v3.666h3.667v-3.666h5.5v11h3.667v-11h5.5v3.666h3.666v-3.666h5.5v3.666h3.667v-3.666h5.5v11h3.667v-11h5.5v3.666h3.666v-3.666h5.5v3.666h3.667v-4.13a14.683 14.683 0 007.333-4.517v12.314z" fill="#000"/></svg>