<svg width="110" height="110" fill="none" xmlns="http://www.w3.org/2000/svg"><g clip-path="url(#clip0_0_493)"><path d="M49.286 65.882c.066.112.14.22.203.334-.064-.114-.137-.216-.203-.334zm.948 1.883c.05.123.09.251.137.367-.047-.116-.088-.244-.137-.367zm-4.743-6.13c.116.088.237.172.35.262-.114-.092-.235-.174-.35-.262zm-1.522-1.01c.149.084.294.182.44.265-.146-.09-.291-.18-.44-.266zm.976 24.808a20.372 20.372 0 003.036-2.336 4.11 4.11 0 00.673-.825 18.121 18.121 0 002.2-5.241 14.665 14.665 0 01-5.91 8.402zM38.484 58.79c.174.02.345.051.515.079-.17-.02-.34-.059-.515-.079zM36.599 88c-.416 0-.821-.042-1.228-.08.407.034.812.08 1.228.08zm1.964-.136c-.085.011-.163.028-.248.037.083-.01.165-.026.248-.037zm6.143-2.27a15.9 15.9 0 01-.8.486c.278-.147.535-.32.8-.486zm6.617-12.043c0 .16-.017.316-.024.473.007-.157.022-.324.024-.473zm-.154 1.87c-.031.217-.059.435-.1.647.04-.216.07-.43.1-.647z" fill="#fff"/><path d="M5.5 80.667h2.017a3.647 3.647 0 013.414 2.365c.21.55.435 1.09.677 1.623a3.653 3.653 0 01-.734 4.1L9.442 90.2a3.668 3.668 0 000 5.18l5.181 5.182a3.668 3.668 0 005.181 0l1.44-1.434a3.652 3.652 0 014.099-.733c.533.244 1.074.47 1.622.676a3.649 3.649 0 012.37 3.412v2.017A3.666 3.666 0 0033 108.168h7.333A3.666 3.666 0 0044 104.501v-2.017a3.647 3.647 0 012.365-3.413c.55-.21 1.09-.435 1.622-.677a3.652 3.652 0 014.1.733l1.44 1.434a3.668 3.668 0 005.18 0l5.181-5.181a3.668 3.668 0 000-5.181l-1.434-1.44a3.652 3.652 0 01-.733-4.099c.244-.532.47-1.074.677-1.622a3.648 3.648 0 013.419-2.37h2.017A3.666 3.666 0 0071.5 77v-7.333A3.666 3.666 0 0067.835 66h-2.017a3.647 3.647 0 01-3.414-2.365 27.425 27.425 0 00-.676-1.622 3.65 3.65 0 01.733-4.1l1.434-1.439a3.668 3.668 0 000-5.18l-5.182-5.182a3.668 3.668 0 00-5.18 0l-1.44 1.434a3.652 3.652 0 01-4.1.733 25.175 25.175 0 00-1.622-.676 3.648 3.648 0 01-2.37-3.42v-2.016a3.666 3.666 0 00-3.667-3.667H33a3.666 3.666 0 00-3.667 3.667v2.017a3.648 3.648 0 01-2.365 3.413c-.55.21-1.09.434-1.623.677a3.652 3.652 0 01-4.099-.734L19.8 46.11a3.668 3.668 0 00-5.18 0l-5.174 5.184a3.668 3.668 0 000 5.181l1.434 1.44a3.65 3.65 0 01.733 4.099c-.245.532-.47 1.074-.677 1.622A3.648 3.648 0 017.517 66H5.501a3.666 3.666 0 00-3.667 3.667V77a3.666 3.666 0 003.667 3.667zM33 59.125a15.077 15.077 0 013.667-.458c.607.004 1.214.046 1.817.125.175.02.345.051.516.079.445.07.882.161 1.312.271.158.04.317.075.473.12a14.3 14.3 0 011.638.578c.064.028.122.063.183.09.466.208.92.44 1.362.695.148.086.293.183.44.266.37.234.731.482 1.082.744.115.088.236.17.35.262.442.356.864.735 1.265 1.137.075.077.14.16.214.238a14.116 14.116 0 011.962 2.611c.066.112.14.22.203.334.279.501.527 1.019.745 1.549.05.123.09.25.137.367a14.436 14.436 0 01.56 1.824c.111.478.2.963.264 1.45.014.108.036.213.049.321.06.533.094 1.069.095 1.606 0 .073 0 .145-.01.218 0 .156-.017.315-.024.473-.021.468-.065.934-.13 1.397a16.06 16.06 0 01-.1.647c-.062.328-.143.647-.225.968a18.122 18.122 0 01-2.2 5.242 4.1 4.1 0 01-.673.825c-.934.87-1.947 1.65-3.027 2.33l-.238.156c-.266.165-.532.339-.8.485a14.605 14.605 0 01-3.529 1.428l-.22.057c-.526.13-1.058.23-1.595.3-.083.01-.165.027-.248.036-.546.066-1.097.1-1.648.104H36.6c-.417 0-.822-.042-1.229-.078-.2-.019-.407-.017-.605-.043a16.065 16.065 0 01-1.765-.337c-7.847-2.03-12.564-10.035-10.535-17.882a14.678 14.678 0 0110.535-10.535z" fill="#FF5225"/><path d="M51.333 73.333a15.086 15.086 0 00-.09-1.599c.065.604.09 1.21.08 1.818.01-.074.01-.145.01-.219zM39 58.87zm3.608 1.06zm5.94 4.823zm-1.227-1.481zM44.41 60.89zm1.424 1.006zM43.907 86.08a15.713 15.713 0 01-3.53 1.428c1.234-.32 2.42-.8 3.53-1.428zM36.667 88a14.605 14.605 0 001.65-.1 14.48 14.48 0 01-1.716.096l.066.004zm14.631-13.976zm-6.354 11.41c-.079.05-.157.106-.238.155l.238-.156zm6.125-9.365c-.058.32-.146.645-.225.968.082-.321.163-.64.225-.968z" fill="#fff"/><path d="M67.833 64.167h-2.016a1.802 1.802 0 01-1.698-1.184 29.844 29.844 0 00-.722-1.73 1.809 1.809 0 01.366-2.045l1.438-1.44a5.512 5.512 0 00-.01-7.771l-5.18-5.181a5.513 5.513 0 00-7.774 0L50.8 46.252a1.816 1.816 0 01-2.046.366 39.403 39.403 0 00-1.73-.733 1.803 1.803 0 01-1.19-1.701v-2.017a5.5 5.5 0 00-5.5-5.5H33a5.5 5.5 0 00-5.5 5.5v2.017a1.802 1.802 0 01-1.184 1.697c-.584.223-1.16.464-1.73.723a1.815 1.815 0 01-2.045-.367L21.1 44.8a5.514 5.514 0 00-7.771 0l-5.181 5.197a5.513 5.513 0 000 7.773l1.436 1.438a1.81 1.81 0 01.366 2.046c-.259.57-.5 1.146-.724 1.73a1.803 1.803 0 01-1.71 1.183H5.5a5.5 5.5 0 00-5.5 5.5V77a5.5 5.5 0 005.5 5.5h2.017a1.801 1.801 0 011.697 1.185c.223.583.464 1.16.723 1.728a1.81 1.81 0 01-.367 2.047l-1.437 1.439a5.514 5.514 0 000 7.771l5.18 5.181a5.512 5.512 0 007.774 0l1.437-1.435a1.811 1.811 0 012.046-.367c.571.258 1.148.503 1.73.733a1.802 1.802 0 011.2 1.702v2.016A5.5 5.5 0 0033 110h7.333a5.5 5.5 0 005.5-5.5v-2.016a1.8 1.8 0 011.184-1.698c.584-.223 1.16-.464 1.73-.722a1.812 1.812 0 012.045.366l1.44 1.438a5.516 5.516 0 007.771-.01l5.181-5.18a5.513 5.513 0 000-7.774l-1.436-1.437a1.81 1.81 0 01-.366-2.046 40.37 40.37 0 00.733-1.73 1.803 1.803 0 011.701-1.19h2.017a5.5 5.5 0 005.5-5.5v-7.334a5.5 5.5 0 00-5.5-5.5zM69.667 77a1.834 1.834 0 01-1.834 1.834h-2.016a5.519 5.519 0 00-5.133 3.545 25.707 25.707 0 01-.631 1.516 5.516 5.516 0 001.1 6.153l1.434 1.436c.716.715.716 1.875.002 2.592l-.002.002-5.181 5.18a1.835 1.835 0 01-2.593 0l-1.437-1.435a5.512 5.512 0 00-6.153-1.1 25.9 25.9 0 01-1.512.63 5.518 5.518 0 00-3.544 5.13v2.017a1.834 1.834 0 01-1.833 1.833H33a1.832 1.832 0 01-1.833-1.833v-2.017a5.518 5.518 0 00-3.546-5.133 25.777 25.777 0 01-1.516-.63 5.518 5.518 0 00-6.153 1.1l-1.435 1.433a1.833 1.833 0 01-2.593.002l-.002-.002-5.18-5.175a1.835 1.835 0 010-2.593l1.435-1.437a5.515 5.515 0 001.1-6.153 26.457 26.457 0 01-.63-1.512 5.517 5.517 0 00-5.13-3.55H5.5A1.834 1.834 0 013.667 77v-7.333A1.834 1.834 0 015.5 67.833h2.017a5.519 5.519 0 005.133-3.545c.194-.512.404-1.018.63-1.516a5.516 5.516 0 00-1.1-6.153l-1.44-1.435a1.833 1.833 0 01-.002-2.593l.002-.002 5.18-5.18a1.835 1.835 0 012.593 0l1.437 1.435a5.511 5.511 0 006.153 1.1 26.53 26.53 0 011.512-.63 5.517 5.517 0 003.552-5.13v-2.017A1.834 1.834 0 0133 40.334h7.333a1.834 1.834 0 011.833 1.833v2.017a5.519 5.519 0 003.546 5.133c.513.194 1.02.405 1.516.63a5.513 5.513 0 006.153-1.1l1.435-1.433a1.844 1.844 0 012.594 0l5.182 5.18a1.835 1.835 0 010 2.593l-1.436 1.438a5.516 5.516 0 00-1.1 6.152c.226.498.436 1.002.63 1.513a5.517 5.517 0 005.13 3.543h2.017a1.834 1.834 0 011.833 1.834V77z" fill="#231F20"/><path d="M53.13 72.6a16.512 16.512 0 00-.329-2.706c-.064-.299-.148-.594-.229-.89a16.375 16.375 0 00-.347-1.118c-.09-.254-.182-.507-.278-.758a16.453 16.453 0 00-.809-1.716c-.023-.043-.038-.089-.062-.13a16.184 16.184 0 00-1.65-2.404c-.053-.066-.114-.128-.169-.193a15.372 15.372 0 00-.786-.865c-.143-.148-.293-.288-.444-.43a17.29 17.29 0 00-1.23-1.062l-.3-.224a16.383 16.383 0 00-9.83-3.27c-.184 0-.368.027-.55.034a16.067 16.067 0 00-1.801.149c-.598.078-1.19.19-1.777.332-8.827 2.28-14.135 11.286-11.854 20.115A16.508 16.508 0 0032.552 89.32c.03 0 .06.01.092.017.633.158 1.274.28 1.921.367.427.053.855.064 1.283.084.286.014.55.057.85.057.522 0 1.064-.035 1.618-.09.059 0 .117-.016.183-.024.455-.05.908-.118 1.357-.207.183-.035.354-.08.53-.12.327-.075.651-.159.973-.252.257-.077.506-.167.758-.255.25-.088.511-.183.771-.282.26-.1.479-.213.715-.323.308-.141.615-.28.917-.445h.011a21.733 21.733 0 004.699-3.394c.38-.355.71-.76.983-1.203a19.562 19.562 0 002.885-8.603c.026-.33.044-.661.052-.992 0-.105.014-.204.014-.308.002-.26-.023-.498-.034-.747zM33.445 60.903a13.247 13.247 0 013.221-.403c.525.004 1.047.038 1.568.106.14.017.277.042.414.063.396.062.788.14 1.175.24.127.033.254.062.378.097.975.28 1.914.676 2.796 1.177.141.082.279.169.418.255.29.183.57.366.847.575.148.108.299.215.442.33.36.288.704.594 1.032.917.13.132.25.277.376.414a12.787 12.787 0 011.006 1.236c.183.264.367.54.532.818l.277.456c.237.435.447.884.63 1.344.074.183.136.367.202.55.119.337.223.678.312 1.023.046.184.097.347.136.525.106.495.184.997.232 1.501.011.134.011.27.02.404.026.421.034.845.017 1.27 0 .152-.013.305-.022.455-.034.446-.09.891-.165 1.333a12.863 12.863 0 01-6.442 8.983c-.222.117-.447.228-.675.334l-.152.073c-1.065.483-2.19.824-3.344 1.012-.08.013-.163.027-.245.038a11.963 11.963 0 01-1.573.127h-.383a12.826 12.826 0 01-1.298-.081l-.22-.026a13.36 13.36 0 01-1.498-.282c-6.866-1.758-11.008-8.748-9.251-15.614a12.832 12.832 0 019.238-9.248v-.002zM104.5 38.5h-5.766a1.79 1.79 0 01-1.709-1.203 38.019 38.019 0 00-2.059-4.97 1.796 1.796 0 01.352-2.07l4.088-4.094a5.503 5.503 0 000-7.775l-7.795-7.782a5.502 5.502 0 00-7.775 0L79.75 14.69a1.796 1.796 0 01-2.069.353 37.997 37.997 0 00-4.971-2.07 1.789 1.789 0 01-1.21-1.708V5.5A5.5 5.5 0 0066 0H55a5.5 5.5 0 00-5.5 5.5v5.766a1.791 1.791 0 01-1.203 1.708 38.308 38.308 0 00-4.97 2.069 1.793 1.793 0 01-2.07-.352l-4.094-4.089a5.512 5.512 0 00-7.775 0l-7.78 7.78a5.5 5.5 0 000 7.778l6.01 6.022a1.835 1.835 0 003.11-1.314c0-.475-.183-.932-.513-1.274l-6.015-6.02a1.835 1.835 0 010-2.593l7.78-7.78a1.835 1.835 0 012.592 0l4.096 4.087a5.45 5.45 0 006.3 1.035 34.56 34.56 0 014.493-1.869 5.455 5.455 0 003.705-5.188V5.5A1.834 1.834 0 0155 3.667h11A1.834 1.834 0 0167.833 5.5v5.766a5.452 5.452 0 003.705 5.186 34.618 34.618 0 014.495 1.87 5.463 5.463 0 006.298-1.035l4.095-4.087a1.835 1.835 0 012.593 0l7.78 7.783a1.832 1.832 0 010 2.59l-4.088 4.096a5.456 5.456 0 00-1.034 6.3 34.574 34.574 0 011.868 4.492 5.452 5.452 0 005.188 3.706h5.767A1.834 1.834 0 01106.333 44v11a1.836 1.836 0 01-1.833 1.833h-5.766a5.452 5.452 0 00-5.187 3.706 34.638 34.638 0 01-1.87 4.495 5.456 5.456 0 001.036 6.297l4.088 4.096a1.835 1.835 0 010 2.592l-7.784 7.78a1.833 1.833 0 01-2.59 0l-6.025-6.01a1.833 1.833 0 10-2.589 2.593l6.023 6.012a5.502 5.502 0 007.775 0l7.78-7.779a5.5 5.5 0 000-7.777L95.31 68.75a1.795 1.795 0 01-.354-2.068 37.977 37.977 0 002.07-4.972 1.789 1.789 0 011.709-1.21h5.766A5.5 5.5 0 00110 55V44a5.5 5.5 0 00-5.5-5.5z" fill="#231F20"/><path d="M77.352 32.648c-9.313-9.293-24.39-9.293-33.704 0a1.833 1.833 0 002.592 2.592c7.823-7.927 20.592-8.013 28.52-.19 7.927 7.823 8.013 20.592.19 28.52-.064.064-.126.128-.19.19a1.833 1.833 0 102.548 2.637l.044-.044c9.293-9.314 9.293-24.391 0-33.704z" fill="#231F20"/></g><defs><clipPath id="clip0_0_493"><path fill="#fff" d="M0 0h110v110H0z"/></clipPath></defs></svg>