<svg width="110" height="110" fill="none" xmlns="http://www.w3.org/2000/svg"><g clip-path="url(#clip0_0_2369)"><path d="M55 108.388c28.865 0 52.265-23.4 52.265-52.266 0-28.865-23.4-52.265-52.265-52.265-28.866 0-52.266 23.4-52.266 52.265 0 28.866 23.4 52.266 52.266 52.266z" fill="#FF5225"/><path d="M107.266 56.121c0 28.866-23.4 52.267-52.266 52.267-15.324 0-29.107-6.594-38.667-17.1a52.038 52.038 0 0033.284 11.968c28.865 0 52.266-23.4 52.266-52.266 0-13.546-5.153-25.889-13.608-35.174 11.598 9.586 18.991 24.083 18.991 40.305z" fill="#FF5225"/><path d="M55 96.39c22.24 0 40.268-18.028 40.268-40.268 0-22.24-18.028-40.268-40.268-40.268-22.24 0-40.268 18.029-40.268 40.268C14.732 78.362 32.76 96.39 55 96.39z" fill="#F9F3F1"/><path d="M93.158 23.297L89.786 6.07A5.514 5.514 0 1079.034 8.5l2.133 8.312a1.534 1.534 0 01-1.387 1.912l-8.564.553a5.514 5.514 0 101.028 10.975l17.421-2.14a4.065 4.065 0 003.493-4.816z" fill="#FF5225"/><path d="M89.666 28.111l-17.422 2.141a5.512 5.512 0 01-6.056-6.662 4.659 4.659 0 004.598 2.283l14.733-1.81a3.439 3.439 0 002.956-4.072L85.622 5.422a4.654 4.654 0 00-3.04-3.506 5.512 5.512 0 017.204 4.156l3.373 17.224a4.066 4.066 0 01-3.493 4.815z" fill="#FF5225"/><path d="M56.613 26.69v-6.413a1.612 1.612 0 10-3.225 0v6.412a1.612 1.612 0 103.225 0zM55 93.58a1.612 1.612 0 001.612-1.613v-6.412a1.612 1.612 0 10-3.225 0v6.412A1.612 1.612 0 0055 93.579zm37.457-37.458a1.612 1.612 0 00-1.613-1.612h-6.412a1.612 1.612 0 100 3.225h6.412a1.612 1.612 0 001.613-1.613zm-65.278 0a1.612 1.612 0 00-1.612-1.612h-6.412a1.612 1.612 0 100 3.225h6.412a1.612 1.612 0 001.612-1.613zM38.31 30.44a1.614 1.614 0 002.203.59 1.612 1.612 0 00.59-2.203l-1.694-2.934a1.612 1.612 0 00-2.793 1.612l1.694 2.935zm31.178 50.777a1.612 1.612 0 00-.59 2.202l1.694 2.935a1.61 1.61 0 002.954-.39c.11-.412.053-.852-.161-1.222l-1.695-2.935a1.613 1.613 0 00-2.202-.59zM29.317 39.432l-2.935-1.694a1.61 1.61 0 00-2.371 1.813 1.611 1.611 0 00.759.98l2.934 1.694a1.611 1.611 0 101.613-2.793zm51.367 33.38l2.934 1.695a1.613 1.613 0 101.613-2.793l-2.935-1.694a1.612 1.612 0 00-1.612 2.792zm-55.106 1.911c.282 0 .56-.075.804-.216l2.935-1.695a1.613 1.613 0 00-1.613-2.792l-2.934 1.694a1.612 1.612 0 00.808 3.009zm55.914-32.282c.282 0 .56-.075.804-.216l2.935-1.695a1.613 1.613 0 00-1.612-2.792l-2.935 1.694a1.612 1.612 0 00.808 3.009zM37.206 86.943a1.613 1.613 0 002.203-.59l1.694-2.935a1.612 1.612 0 00-2.793-1.612l-1.694 2.934a1.612 1.612 0 00.59 2.203zm17.492-20.1c0-1.007-.684-1.853-1.409-1.853H41.452v-1.53c0-4.63 13.045-7.449 13.045-16.105 0-4.832-3.946-8.013-8.616-8.013-4.389 0-8.254 2.819-8.254 7.127 0 1.812.805 2.375 1.932 2.375 1.41 0 2.255-.805 2.255-1.61 0-2.738 1.812-3.986 4.067-3.986 3.06 0 4.348 2.254 4.348 4.227 0 6.2-13.166 9.462-13.166 15.985v3.905c0 .846 1.087 1.41 1.892 1.41H53.29c.725 0 1.41-.926 1.41-1.933zm17.797-8.658h-1.973V52.63c0-1.006-1.087-1.41-2.134-1.41-1.087 0-2.134.404-2.134 1.41v5.556h-5.918l8.294-16.548c.12-.241.201-.443.201-.644 0-1.007-1.329-1.65-2.134-1.65-.684 0-1.41.321-1.852 1.167l-9.743 19.205a1.837 1.837 0 00-.242.886c0 .966.644 1.57 1.49 1.57h9.904v5.194c0 .926 1.047 1.41 2.134 1.41 1.047 0 2.134-.484 2.134-1.41v-5.194h1.973c.765 0 1.45-1.006 1.45-1.973 0-1.006-.483-2.013-1.45-2.013z" fill="#000"/><path d="M93.938 18.886L91.368 5.76a7.062 7.062 0 00-3.172-4.646 7.064 7.064 0 00-5.553-.898 7.078 7.078 0 00-4.392 3.267 7.081 7.081 0 00-1.004 3.543C70.35 3.897 62.802 2.244 55 2.244c-14.391 0-27.921 5.605-38.097 15.78C6.726 28.202 1.123 41.732 1.123 56.123c0 7.19 1.393 14.172 4.14 20.751A1.612 1.612 0 008.24 75.63c-2.582-6.183-3.892-12.747-3.892-19.508 0-13.53 5.269-26.25 14.836-35.817S41.47 5.47 55 5.47c8.13 0 15.966 1.907 23.003 5.501l1.579 6.152-8.054.52A41.647 41.647 0 0055 14.242c-23.093 0-41.88 18.787-41.88 41.88 0 23.094 18.787 41.881 41.88 41.881 17.949 0 33.887-11.41 39.662-28.395l.052-.156a1.613 1.613 0 00-3.055-1.031l-.051.152C86.278 84.247 71.568 94.778 55 94.778c-21.315 0-38.656-17.34-38.656-38.656 0-21.315 17.341-38.656 38.656-38.656 4.167 0 8.18.667 11.944 1.893a7.248 7.248 0 00-.74.733 7.077 7.077 0 00-1.742 5.188 7.062 7.062 0 002.578 5 7.051 7.051 0 005.4 1.574l1.528-.188a1.613 1.613 0 00-.394-3.2l-1.527.187a3.865 3.865 0 01-2.957-.861 3.865 3.865 0 01-1.411-2.738 3.873 3.873 0 01.954-2.84 3.874 3.874 0 012.687-1.327l8.564-.552a3.136 3.136 0 002.344-1.292 3.137 3.137 0 00.5-2.63l-2.133-8.312a3.877 3.877 0 01.427-2.966 3.875 3.875 0 012.405-1.789 3.867 3.867 0 013.04.492 3.866 3.866 0 011.737 2.544l3.372 17.225a2.427 2.427 0 01-.421 1.911 2.428 2.428 0 01-1.686.994l-8.506 1.045a1.613 1.613 0 00.393 3.2l2.514-.308c6.083 6.832 9.786 15.828 9.786 25.674a39.18 39.18 0 01-.372 5.388 1.613 1.613 0 003.194.445c.269-1.933.403-3.882.403-5.833 0-9.882-3.444-18.973-9.19-26.143l2.171-.267a5.696 5.696 0 003.903-2.301 5.69 5.69 0 001.034-2.623c7.033 8.897 10.854 19.82 10.854 31.334 0 13.53-5.269 26.25-14.836 35.817S68.53 106.776 55 106.776a50.625 50.625 0 01-25.396-6.817 50.973 50.973 0 01-18.145-17.937 1.611 1.611 0 00-2.948.43c-.105.414-.04.853.178 1.22a54.21 54.21 0 0019.295 19.076A53.853 53.853 0 0055 110.001c14.391 0 27.921-5.605 38.097-15.78 10.177-10.177 15.781-23.707 15.781-38.098 0-13.99-5.297-27.165-14.94-37.237z" fill="#000"/></g><defs><clipPath id="clip0_0_2369"><path fill="#fff" d="M0 0h110v110H0z"/></clipPath></defs></svg>