<svg width="110" height="110" fill="none" xmlns="http://www.w3.org/2000/svg"><g clip-path="url(#clip0_0_2348)"><path d="M69.666 75.167h-49.5a7.333 7.333 0 01-7.333-7.334V31.167a7.333 7.333 0 017.333-7.334h49.5v51.334z" fill="#F5F5F5"/><path d="M64.166 23.833h5.5v51.334h-5.5V23.833z" fill="#CFD8DC"/><path d="M100.081 40.407c.486.515.756 1.199.752 1.906a2.8 2.8 0 01-1.632 2.549 2.85 2.85 0 00-1.65 2.566c-.003.334.059.664.184.972.12.31.183.64.183.972a2.821 2.821 0 01-2.713 2.805 2.8 2.8 0 00-2.695 2.695 2.714 2.714 0 01-.844 1.906 2.79 2.79 0 01-1.961.807 2.67 2.67 0 01-.972-.183 2.542 2.542 0 00-.972-.184 2.849 2.849 0 00-2.566 1.65 2.795 2.795 0 01-2.549 1.632 2.766 2.766 0 01-1.906-.752 2.778 2.778 0 00-3.74-.055c-.019.019-.055.037-.074.055a2.767 2.767 0 01-1.906.752 2.794 2.794 0 01-2.549-1.632 2.849 2.849 0 00-2.566-1.65 2.542 2.542 0 00-.972.184c-.31.12-.64.183-.972.183A2.79 2.79 0 0166 56.778a2.716 2.716 0 01-.844-1.906 2.8 2.8 0 00-2.695-2.695 2.822 2.822 0 01-2.713-2.805c0-.332.062-.662.183-.972.125-.308.187-.638.184-.972a2.85 2.85 0 00-1.65-2.566 2.794 2.794 0 01-1.632-2.549 2.767 2.767 0 01.752-1.906 2.794 2.794 0 000-3.814 2.767 2.767 0 01-.752-1.906 2.795 2.795 0 011.632-2.549 2.848 2.848 0 001.65-2.566 2.542 2.542 0 00-.184-.972 2.676 2.676 0 01-.183-.972 2.822 2.822 0 012.713-2.805 2.8 2.8 0 002.695-2.695 2.821 2.821 0 012.805-2.713c.332 0 .662.062.972.183.308.125.638.187.972.184a2.85 2.85 0 002.566-1.65A2.794 2.794 0 0175.02 16.5a2.761 2.761 0 011.906.752 2.794 2.794 0 003.814 0 2.805 2.805 0 014.455.88 2.847 2.847 0 002.566 1.65c.334.003.664-.059.972-.184.31-.12.64-.183.972-.183a2.822 2.822 0 012.805 2.713 2.8 2.8 0 002.695 2.695 2.821 2.821 0 012.713 2.805c0 .332-.062.662-.183.972a2.54 2.54 0 00-.184.972 2.848 2.848 0 001.65 2.566 2.79 2.79 0 011.632 2.549 2.759 2.759 0 01-.752 1.906 2.795 2.795 0 000 3.814z" fill="#FF5225"/><path d="M99.33 38.5a2.86 2.86 0 01.752-1.907 2.758 2.758 0 00.751-1.906 2.79 2.79 0 00-1.631-2.548 2.85 2.85 0 01-1.65-2.567 2.547 2.547 0 01.183-.972c.121-.31.183-.64.183-.972a2.822 2.822 0 00-2.713-2.805 2.8 2.8 0 01-2.695-2.695 2.821 2.821 0 00-2.805-2.713c-.332 0-.662.062-.972.183a2.538 2.538 0 01-.971.184 2.848 2.848 0 01-2.567-1.65 2.804 2.804 0 00-4.455-.88c-.348.3-.76.513-1.206.617.058.085.111.173.161.263a2.848 2.848 0 002.567 1.65 2.52 2.52 0 00.971-.184c.31-.12.64-.183.972-.183a2.822 2.822 0 012.805 2.713 2.8 2.8 0 002.695 2.695 2.822 2.822 0 012.713 2.805c0 .332-.062.662-.183.972a2.542 2.542 0 00-.183.972 2.847 2.847 0 001.65 2.566 2.792 2.792 0 011.631 2.549 2.761 2.761 0 01-.751 1.906 2.794 2.794 0 000 3.814c.486.515.755 1.199.751 1.906a2.795 2.795 0 01-1.631 2.549 2.85 2.85 0 00-1.65 2.566c-.004.334.058.664.183.972.121.31.183.64.183.972a2.822 2.822 0 01-2.713 2.805 2.8 2.8 0 00-2.695 2.695 2.715 2.715 0 01-.843 1.906 2.79 2.79 0 01-1.962.807c-.332 0-.662-.062-.972-.183a2.542 2.542 0 00-.971-.184 2.85 2.85 0 00-2.567 1.65 2.63 2.63 0 01-.169.26c.45.105.866.318 1.214.62a2.761 2.761 0 001.907.752 2.795 2.795 0 002.548-1.632 2.85 2.85 0 012.567-1.65 2.52 2.52 0 01.971.184c.31.12.64.183.972.183.733 0 1.44-.29 1.962-.807a2.715 2.715 0 00.843-1.906 2.8 2.8 0 012.695-2.695 2.821 2.821 0 002.713-2.805 2.67 2.67 0 00-.183-.972 2.542 2.542 0 01-.183-.972 2.85 2.85 0 011.65-2.566 2.791 2.791 0 001.631-2.549 2.767 2.767 0 00-.751-1.906 2.852 2.852 0 01-.752-1.907z" fill="#FF5225"/><path d="M78.833 51.334c7.088 0 12.834-5.746 12.834-12.834 0-7.087-5.746-12.833-12.834-12.833C71.746 25.667 66 31.413 66 38.5c0 7.088 5.746 12.834 12.833 12.834z" fill="#F5F5F5"/><path d="M78.833 25.667c-.925.001-1.847.103-2.75.302a12.833 12.833 0 010 25.062 12.834 12.834 0 102.75-25.364z" fill="#F5F5F5"/><path d="M80.667 78.833v22L73.333 93.5 66 100.833V56.778a2.79 2.79 0 001.962.807c.331 0 .662-.062.971-.183.308-.125.638-.187.972-.184a2.85 2.85 0 012.567 1.65A2.792 2.792 0 0075.02 60.5a2.76 2.76 0 001.907-.752c.018-.018.055-.036.073-.055V82.5l3.667-3.667z" fill="#FF5225"/><path d="M91.667 56.778V82.5l-7.334-7.333L77 82.5V59.693a2.778 2.778 0 013.74.055 2.76 2.76 0 001.907.752 2.795 2.795 0 002.548-1.632 2.85 2.85 0 012.567-1.65 2.52 2.52 0 01.971.184c.31.12.64.183.972.183.733 0 1.44-.29 1.962-.807z" fill="#FF5225"/><path d="M89.704 57.585c-.332 0-.662-.062-.971-.183a2.54 2.54 0 00-.972-.184 2.821 2.821 0 00-1.595.517V77l5.5 5.5V56.778a2.79 2.79 0 01-1.962.807z" fill="#FF5225"/><path d="M100.833 7.333H9.167A9.178 9.178 0 000 16.5v66a9.178 9.178 0 009.167 9.167h55v9.166a1.835 1.835 0 003.13 1.297l6.036-6.038 6.038 6.038a1.837 1.837 0 002.82-.278c.201-.302.309-.656.309-1.019v-9.166h18.333A9.178 9.178 0 00110 82.5v-66a9.18 9.18 0 00-9.167-9.167zm-41.598 35.87a.975.975 0 01-.308-1.548 4.658 4.658 0 000-6.308.975.975 0 01.31-1.55 4.664 4.664 0 002.413-5.83.975.975 0 01.876-1.312 4.663 4.663 0 004.462-4.463.976.976 0 011.315-.876 4.673 4.673 0 005.83-2.414.97.97 0 011.545-.308 4.66 4.66 0 006.31 0 .973.973 0 011.548.31 4.666 4.666 0 005.828 2.412.976.976 0 011.314.877 4.666 4.666 0 004.472 4.464.973.973 0 01.876 1.31 4.662 4.662 0 002.415 5.83.977.977 0 01.308 1.548 4.658 4.658 0 000 6.308.975.975 0 01-.31 1.55 4.664 4.664 0 00-2.413 5.83.975.975 0 01-.876 1.312 4.662 4.662 0 00-4.472 4.472.975.975 0 01-1.314.876 4.672 4.672 0 00-5.83 2.415.942.942 0 01-.691.55.96.96 0 01-.855-.24 4.662 4.662 0 00-6.31 0 .963.963 0 01-.854.24.945.945 0 01-.693-.55 4.665 4.665 0 00-5.828-2.413.976.976 0 01-1.315-.877 4.666 4.666 0 00-4.471-4.475.974.974 0 01-.877-1.31 4.662 4.662 0 00-2.405-5.83zm20.137 34.332l-.539.54V60.84c.246 0 .483.092.662.258a4.583 4.583 0 004.063 1.148 4.584 4.584 0 003.3-2.614.98.98 0 011.226-.506 4.637 4.637 0 001.74.262v18.685L85.62 73.87a1.833 1.833 0 00-2.592 0l-3.656 3.664zm-.539 18.873l-4.204-4.204a1.833 1.833 0 00-2.592 0l-4.204 4.204V59.385a4.639 4.639 0 001.74-.262.975.975 0 011.225.504 4.584 4.584 0 003.31 2.616c.35.07.703.1 1.059.09V82.5a1.832 1.832 0 003.13 1.296l.536-.537v13.149zm27.5-13.908a5.498 5.498 0 01-5.5 5.5H82.5v-8.408l1.833-1.833 6.038 6.037A1.833 1.833 0 0093.5 82.5V57.396c.513-.718.805-1.57.841-2.451a.98.98 0 01.94-.937 4.642 4.642 0 004.174-6.25.977.977 0 01.506-1.223 4.638 4.638 0 002.615-3.312 4.651 4.651 0 00-1.149-4.061.98.98 0 010-1.326 4.643 4.643 0 001.149-4.06 4.634 4.634 0 00-2.615-3.312.975.975 0 01-.508-1.222 4.642 4.642 0 00-4.175-6.25.98.98 0 01-.938-.937 4.641 4.641 0 00-6.248-4.178.97.97 0 01-1.225-.504 4.642 4.642 0 00-7.374-1.467.977.977 0 01-1.323 0 4.641 4.641 0 00-7.372 1.467.973.973 0 01-1.227.506 4.64 4.64 0 00-6.248 4.178.98.98 0 01-.938.937 4.643 4.643 0 00-4.175 6.25.978.978 0 01-.506 1.222 4.641 4.641 0 00-1.467 7.374.98.98 0 010 1.325 4.64 4.64 0 001.467 7.372.975.975 0 01.508 1.223 4.643 4.643 0 004.174 6.25.982.982 0 01.94.937c.036.88.33 1.73.84 2.45V88h-55a5.5 5.5 0 01-5.5-5.5v-66a5.5 5.5 0 015.5-5.5h91.667a5.498 5.498 0 015.5 5.5v66z" fill="#000"/><path d="M20.167 73.333a5.5 5.5 0 01-5.5-5.5V31.167a5.5 5.5 0 015.5-5.5h33a1.833 1.833 0 000-3.667h-33A9.177 9.177 0 0011 31.167v36.666A9.177 9.177 0 0020.167 77H55a1.834 1.834 0 000-3.667H20.167z" fill="#000"/><path d="M22 51.333h25.667a1.834 1.834 0 000-3.666H22a1.833 1.833 0 000 3.666zM22 44h25.667a1.834 1.834 0 000-3.667H22A1.833 1.833 0 1022 44zm0-7.333h25.667a1.833 1.833 0 100-3.667H22a1.833 1.833 0 000 3.667zm-1.68 31.9a1.834 1.834 0 002.414.948 14.095 14.095 0 004.594-2.804c.497-.495.93-1.05 1.293-1.65a9.723 9.723 0 002.436 1.98 4.97 4.97 0 004.303.55 4.113 4.113 0 001.467-.971c.83.519 1.743.887 2.7 1.09l1.386.329a28.828 28.828 0 008.716 1.155 1.833 1.833 0 10-.264-3.658 25.317 25.317 0 01-7.598-1.063l-1.417-.336c-1.71-.394-2.15-1.083-2.332-1.569a1.834 1.834 0 00-3.545.772.926.926 0 01-.41.827 1.69 1.69 0 01-1.21-.312 7.516 7.516 0 01-3.153-3.99 1.834 1.834 0 00-3.549.749 4.742 4.742 0 01-1.419 3.496 10.877 10.877 0 01-3.465 2.042 1.83 1.83 0 00-.948 2.415zm58.514-15.4A14.666 14.666 0 1064.167 38.5a14.683 14.683 0 0014.667 14.667zm0-25.667a11 11 0 110 22 11 11 0 010-22z" fill="#000"/></g><defs><clipPath id="clip0_0_2348"><path fill="#fff" d="M0 0h110v110H0z"/></clipPath></defs></svg>