<svg width="110" height="112" fill="none" xmlns="http://www.w3.org/2000/svg"><path d="M30 109.999V85.652L108 28v81.999H30z" fill="#F5F5F5"/><path d="M30 111.999a2 2 0 01-2-2V85.651a2 2 0 114 0V110a2 2 0 01-2 2z" fill="#000"/><path d="M16 96H2l92-68h13.999l-92 68z" fill="#FF5225"/><path d="M16 97.999H2a2.001 2.001 0 01-1.19-3.608l92-68A2.008 2.008 0 0194 26h14a2 2 0 011.189 3.608l-92 68a2.008 2.008 0 01-1.189.391zm-7.93-4h7.272l86.588-64h-7.272L8.071 94zM82 112a2 2 0 01-2-2V72a2 2 0 012-2h26a2 2 0 110 4H84v36a2 2 0 01-2 2z" fill="#000"/><path d="M88 111.999a2 2 0 01-2-2v-32a2 2 0 012-2h20a2 2 0 110 4H90v30a2 2 0 01-2 2z" fill="#000"/><path d="M21.999 72a2 2 0 01-1.787-2.895l4.914-9.83a7.562 7.562 0 00-1.416-8.74l-.856-.855c-4.248-4.247-4.513-11.148-.605-15.71l.467-.545c2.556-2.983 2.383-7.499-.397-10.278a11.533 11.533 0 01-1.232-14.908L26.374.837a2 2 0 013.599.833 1.999 1.999 0 01-.345 1.491l-5.287 7.403a7.549 7.549 0 00.806 9.755c4.248 4.247 4.514 11.149.606 15.711l-.467.544c-2.557 2.983-2.383 7.499.396 10.279l.856.855a11.554 11.554 0 012.165 13.356l-4.913 9.83A1.999 1.999 0 0121.999 72z" fill="#FF5225"/><path d="M39.61 55.457a2.001 2.001 0 01-1.931-1.492 7.596 7.596 0 00-1.97-3.429l-.855-.855c-4.248-4.247-4.513-11.148-.605-15.71l.467-.545c2.556-2.983 2.383-7.499-.397-10.278A11.532 11.532 0 0133.087 8.24L38.374.838a2.001 2.001 0 013.599.833 1.999 1.999 0 01-.346 1.491l-5.286 7.402a7.55 7.55 0 00.806 9.755c4.248 4.247 4.514 11.149.606 15.711l-.467.544c-2.557 2.983-2.383 7.499.396 10.279l.856.855a11.577 11.577 0 013.008 5.24 2 2 0 01-1.936 2.509zm7.152-7.146a1.997 1.997 0 01-1.73-.993 11.581 11.581 0 011.217-13.349l.466-.543c2.557-2.983 2.383-7.499-.396-10.278A11.532 11.532 0 0145.086 8.24L50.374.838a2 2 0 013.599.833 1.999 1.999 0 01-.346 1.491l-5.287 7.402a7.55 7.55 0 00.807 9.755c4.248 4.247 4.513 11.149.605 15.711l-.467.544a7.571 7.571 0 00-.796 8.73 2.002 2.002 0 01-1.727 3.007zM61.639 34.55a2.002 2.002 0 01-1.811-2.847 7.59 7.59 0 00-1.51-8.554A11.532 11.532 0 0157.085 8.24L62.372.838a2.001 2.001 0 013.6.833 1.999 1.999 0 01-.346 1.491l-5.286 7.402a7.55 7.55 0 00.807 9.755 11.604 11.604 0 012.306 13.076 2.001 2.001 0 01-1.814 1.154zm10.093-10.817a1.995 1.995 0 01-1.414-.586A11.533 11.533 0 0169.086 8.24L74.373.838a2.001 2.001 0 013.6.833 1.999 1.999 0 01-.346 1.49l-5.287 7.403a7.55 7.55 0 00.806 9.755 2 2 0 01-1.414 3.414z" fill="#FF5225"/></svg>