<svg width="629" height="614" fill="none" xmlns="http://www.w3.org/2000/svg"><path d="M333 33.5V60c0 21.5 15.5 38 51 38h203.5c52.5 0 52.5 66.5 2.5 66.5H33.5c-42.5 0-42 67 0 67h554c52.5 0 52.5 68.5 0 68.5h-554c-42.5 0-42.5 67.5 0 67.5m0 0h554c52.5 0 52.5 68.5 0 68.5h-554c-42.5 0-42.5 67.5 0 67.5H284c16.5 0 39 5 39 32.5v26.5" stroke="#FF5225" stroke-width="2"/><path d="M255.024 122.84h-5.568v-1.68h13.032v1.68h-5.592V137h-1.872v-14.16zm18.477 8.88h-9.24c.112 1.152.568 2.08 1.368 2.784.8.704 1.776 1.056 2.928 1.056 1.328 0 2.52-.528 3.576-1.584l1.08 1.248a6.817 6.817 0 01-2.112 1.512 6.197 6.197 0 01-2.568.528c-1.152 0-2.2-.264-3.144-.792a6.031 6.031 0 01-2.232-2.208c-.544-.928-.816-1.96-.816-3.096 0-1.12.264-2.144.792-3.072a5.907 5.907 0 012.16-2.232 5.792 5.792 0 013.024-.816c.992 0 1.896.224 2.712.672a4.909 4.909 0 011.92 1.872c.464.8.696 1.712.696 2.736 0 .448-.048.912-.144 1.392zm-5.232-4.992c-.976 0-1.824.312-2.544.936-.72.608-1.184 1.416-1.392 2.424h7.416c-.016-1.04-.36-1.856-1.032-2.448-.656-.608-1.472-.912-2.448-.912zM283.788 137l-3.336-4.8-3.312 4.8h-2.16l4.344-6.096-3.984-5.592h2.136l2.976 4.296 3-4.296h2.136l-4.056 5.592 4.392 6.096h-2.136zm4.682-11.688h1.848v4.656h5.736v-4.656h1.848V137h-1.848v-5.4h-5.736v5.4h-1.848v-11.688zm23.124-.264V137h-1.848v-8.256l-7.128 8.52h-.672v-11.952h1.848v8.28l7.128-8.544h.672zm12.655.264V137h-1.848v-4.608c-.752.352-1.736.528-2.952.528-1.408 0-2.536-.392-3.384-1.176-.832-.784-1.248-1.912-1.248-3.384v-3.048h1.848v2.952c0 2 1.048 3 3.144 3 .416 0 .864-.04 1.344-.12a5.75 5.75 0 001.248-.384v-5.448h1.848zm14.408 6.408h-9.24c.112 1.152.568 2.08 1.368 2.784.8.704 1.776 1.056 2.928 1.056 1.328 0 2.52-.528 3.576-1.584l1.08 1.248a6.817 6.817 0 01-2.112 1.512 6.197 6.197 0 01-2.568.528c-1.152 0-2.2-.264-3.144-.792a6.031 6.031 0 01-2.232-2.208c-.544-.928-.816-1.96-.816-3.096 0-1.12.264-2.144.792-3.072a5.907 5.907 0 012.16-2.232 5.792 5.792 0 013.024-.816c.992 0 1.896.224 2.712.672a4.909 4.909 0 011.92 1.872c.464.8.696 1.712.696 2.736 0 .448-.048.912-.144 1.392zm-5.232-4.992c-.976 0-1.824.312-2.544.936-.72.608-1.184 1.416-1.392 2.424h7.416c-.016-1.04-.36-1.856-1.032-2.448-.656-.608-1.472-.912-2.448-.912zm13.903 10.536a6.092 6.092 0 01-3.096-.816 6.087 6.087 0 01-2.208-2.208 6.092 6.092 0 01-.816-3.096c0-1.12.272-2.144.816-3.072a6.087 6.087 0 012.208-2.208 6.092 6.092 0 013.096-.816c1.024 0 1.952.232 2.784.696a5.659 5.659 0 012.04 1.848l-1.32 1.056c-.944-1.264-2.104-1.896-3.48-1.896-.8 0-1.528.2-2.184.6a4.114 4.114 0 00-1.512 1.584 4.522 4.522 0 00-.552 2.208c0 .816.184 1.56.552 2.232a4.296 4.296 0 001.512 1.608 4.243 4.243 0 002.184.576c1.376 0 2.528-.624 3.456-1.872l1.32 1.032a5.873 5.873 0 01-2.04 1.872c-.816.448-1.736.672-2.76.672zm7.939-11.952h1.848V137h-1.848v-11.688zm9.84 11.688h-2.328l-5.424-6.336 4.92-5.352h2.304l-4.968 5.304 5.496 6.384zm12.159-11.952V137h-1.848v-8.256l-7.128 8.52h-.672v-11.952h1.848v8.28l7.128-8.544h.672zm14.383 6.672h-9.24c.112 1.152.568 2.08 1.368 2.784.8.704 1.776 1.056 2.928 1.056 1.328 0 2.52-.528 3.576-1.584l1.08 1.248a6.817 6.817 0 01-2.112 1.512 6.197 6.197 0 01-2.568.528c-1.152 0-2.2-.264-3.144-.792a6.031 6.031 0 01-2.232-2.208c-.544-.928-.816-1.96-.816-3.096 0-1.12.264-2.144.792-3.072a5.907 5.907 0 012.16-2.232 5.792 5.792 0 013.024-.816c.992 0 1.896.224 2.712.672a4.909 4.909 0 011.92 1.872c.464.8.696 1.712.696 2.736 0 .448-.048.912-.144 1.392zm-5.232-4.992c-.976 0-1.824.312-2.544.936-.72.608-1.184 1.416-1.392 2.424h7.416c-.016-1.04-.36-1.856-1.032-2.448-.656-.608-1.472-.912-2.448-.912zm15.35-1.416h1.848V137h-1.848v-11.688zm9.84 11.688h-2.328l-5.424-6.336 4.92-5.352h2.304l-4.968 5.304 5.496 6.384zm7.416.24a5.963 5.963 0 01-3.072-.816 6.087 6.087 0 01-2.208-2.208 6.047 6.047 0 01-.816-3.072c0-1.12.272-2.144.816-3.072a5.851 5.851 0 012.208-2.208 6.092 6.092 0 013.096-.816c1.12 0 2.144.272 3.072.816a6.031 6.031 0 012.232 2.208c.544.928.816 1.952.816 3.072a6.047 6.047 0 01-.816 3.072 6.031 6.031 0 01-2.232 2.208 6.092 6.092 0 01-3.096.816zm0-1.704c.784 0 1.496-.192 2.136-.576a4.108 4.108 0 001.536-1.56 4.419 4.419 0 00.576-2.232c0-.832-.184-1.584-.552-2.256a4.061 4.061 0 00-1.536-1.584 4.072 4.072 0 00-2.136-.576c-.8 0-1.52.192-2.16.576a4.114 4.114 0 00-1.512 1.584c-.368.672-.552 1.424-.552 2.256 0 .816.184 1.56.552 2.232a4.163 4.163 0 001.512 1.56c.64.384 1.352.576 2.136.576zm9.392-10.224h1.848v4.656h5.736v-4.656h1.848V137h-1.848v-5.4h-5.736v5.4h-1.848v-11.688zm18.757 11.952a6.092 6.092 0 01-3.096-.816 6.087 6.087 0 01-2.208-2.208 6.092 6.092 0 01-.816-3.096c0-1.12.272-2.144.816-3.072a6.087 6.087 0 012.208-2.208 6.092 6.092 0 013.096-.816c1.024 0 1.952.232 2.784.696a5.659 5.659 0 012.04 1.848l-1.32 1.056c-.944-1.264-2.104-1.896-3.48-1.896-.8 0-1.528.2-2.184.6a4.114 4.114 0 00-1.512 1.584 4.522 4.522 0 00-.552 2.208c0 .816.184 1.56.552 2.232a4.296 4.296 0 001.512 1.608 4.243 4.243 0 002.184.576c1.376 0 2.528-.624 3.456-1.872l1.32 1.032a5.873 5.873 0 01-2.04 1.872c-.816.448-1.736.672-2.76.672zm18.21-11.952l-5.76 13.32c-.448 1.024-1 1.768-1.656 2.232-.64.48-1.408.72-2.304.72-.592 0-1.192-.08-1.8-.24v-1.56c.608.08 1.08.12 1.416.12.608 0 1.12-.136 1.536-.408.432-.272.8-.76 1.104-1.464l.624-1.392-4.848-11.328h1.992l3.864 9.312 3.864-9.312h1.968zm10.888 0V137h-1.848v-10.032h-4.344l-.048 1.44c-.064 2.048-.216 3.696-.456 4.944-.24 1.248-.624 2.184-1.152 2.808-.528.624-1.248.936-2.16.936-.224 0-.432-.032-.624-.096v-1.56c.192.032.352.048.48.048.752 0 1.288-.584 1.608-1.752.32-1.184.504-2.976.552-5.376l.072-3.048h7.92zm4.083 0h1.848v4.032h2.784c1.328 0 2.384.352 3.168 1.056.8.688 1.2 1.608 1.2 2.76 0 1.152-.4 2.08-1.2 2.784-.784.704-1.84 1.056-3.168 1.056h-4.632v-11.688zm4.536 10.056c.816 0 1.448-.2 1.896-.6.448-.4.672-.928.672-1.584s-.232-1.184-.696-1.584c-.448-.416-1.08-.624-1.896-.624h-2.664v4.392h2.688zm9.605-8.4h-3.936v-1.656h9.696v1.656h-3.936V137h-1.824v-10.032zm12.512-1.92c1.376 0 2.48.408 3.312 1.224.832.816 1.248 1.992 1.248 3.528v7.2h-1.728v-1.512a4.194 4.194 0 01-1.656 1.32c-.672.304-1.432.456-2.28.456-1.2 0-2.184-.296-2.952-.888-.752-.592-1.128-1.392-1.128-2.4 0-.992.384-1.784 1.152-2.376.768-.592 1.784-.888 3.048-.888h3.696v-1.008c0-.96-.256-1.688-.768-2.184-.496-.512-1.184-.768-2.064-.768-.704 0-1.328.16-1.872.48-.544.304-1.056.768-1.536 1.392l-1.224-1.008c.528-.864 1.208-1.504 2.04-1.92a5.797 5.797 0 012.712-.648zm-.864 10.68c.64 0 1.232-.136 1.776-.408.544-.288.976-.68 1.296-1.176.336-.496.504-1.04.504-1.632v-.288h-3.48c-.816 0-1.44.144-1.872.432-.432.272-.648.68-.648 1.224 0 .592.232 1.048.696 1.368.464.32 1.04.48 1.728.48zM524.845 137h-9.36v-11.688h1.848v10.056h5.616v-10.056h1.848v10.056h1.896v5.016h-1.848V137zm14.398-11.952V137h-1.848v-8.256l-7.128 8.52h-.672v-11.952h1.848v8.28l7.128-8.544h.672zm13.711 0V137h-1.848v-8.256l-7.128 8.52h-.672v-11.952h1.848v8.28l7.128-8.544h.672zM82.024 191.84h-5.568v-1.68h13.032v1.68h-5.592V206h-1.872v-14.16zm18.477 8.88h-9.24c.112 1.152.568 2.08 1.368 2.784.8.704 1.776 1.056 2.928 1.056 1.328 0 2.52-.528 3.576-1.584l1.08 1.248a6.824 6.824 0 01-2.112 1.512 6.197 6.197 0 01-2.568.528c-1.152 0-2.2-.264-3.144-.792a6.031 6.031 0 01-2.232-2.208c-.544-.928-.816-1.96-.816-3.096 0-1.12.264-2.144.792-3.072a5.907 5.907 0 012.16-2.232 5.792 5.792 0 013.024-.816c.992 0 1.896.224 2.712.672a4.909 4.909 0 011.92 1.872c.464.8.696 1.712.696 2.736 0 .448-.048.912-.144 1.392zm-5.232-4.992c-.976 0-1.824.312-2.544.936-.72.608-1.184 1.416-1.392 2.424h7.416c-.016-1.04-.36-1.856-1.032-2.448-.656-.608-1.472-.912-2.448-.912zm8.623-1.416h9.336V206h-1.872v-10.032h-5.616V206h-1.848v-11.688zm22.214 0V206h-1.848v-10.032h-4.344l-.048 1.44c-.064 2.048-.216 3.696-.456 4.944-.24 1.248-.624 2.184-1.152 2.808-.528.624-1.248.936-2.16.936-.224 0-.432-.032-.624-.096v-1.56c.192.032.352.048.48.048.752 0 1.288-.584 1.608-1.752.32-1.184.504-2.976.552-5.376l.072-3.048h7.92zm9.338 11.928a5.963 5.963 0 01-3.072-.816 6.087 6.087 0 01-2.208-2.208 6.047 6.047 0 01-.816-3.072c0-1.12.272-2.144.816-3.072a5.851 5.851 0 012.208-2.208 6.092 6.092 0 013.096-.816c1.12 0 2.144.272 3.072.816a6.031 6.031 0 012.232 2.208c.544.928.816 1.952.816 3.072a6.047 6.047 0 01-.816 3.072 6.031 6.031 0 01-2.232 2.208 6.092 6.092 0 01-3.096.816zm0-1.704c.784 0 1.496-.192 2.136-.576a4.108 4.108 0 001.536-1.56 4.419 4.419 0 00.576-2.232c0-.832-.184-1.584-.552-2.256a4.061 4.061 0 00-1.536-1.584 4.072 4.072 0 00-2.136-.576c-.8 0-1.52.192-2.16.576a4.114 4.114 0 00-1.512 1.584c-.368.672-.552 1.424-.552 2.256 0 .816.184 1.56.552 2.232a4.163 4.163 0 001.512 1.56c.64.384 1.352.576 2.136.576zm16.761-4.872c.688.24 1.224.6 1.608 1.08.4.48.6 1.056.6 1.728 0 1.04-.376 1.888-1.128 2.544-.752.656-1.76.984-3.024.984h-5.424v-11.688h4.824c1.152 0 2.064.28 2.736.84.688.56 1.032 1.312 1.032 2.256 0 .464-.112.896-.336 1.296a2.678 2.678 0 01-.888.96zm-5.52-.576h3c.64 0 1.12-.136 1.44-.408.32-.288.48-.68.48-1.176 0-1.024-.64-1.536-1.92-1.536h-3v3.12zm3.456 5.28c.768 0 1.36-.176 1.776-.528.432-.352.648-.808.648-1.368 0-.544-.216-.968-.648-1.272-.416-.32-1.008-.48-1.776-.48h-3.456v3.648h3.456zm7.751-10.056h1.848v4.032h2.784c1.312 0 2.368.352 3.168 1.056.8.688 1.2 1.608 1.2 2.76 0 1.168-.4 2.104-1.2 2.808-.784.688-1.84 1.032-3.168 1.032h-4.632v-11.688zm10.704 0h1.848V206h-1.848v-11.688zm-6.168 10.056c.832 0 1.464-.184 1.896-.552.448-.384.672-.928.672-1.632 0-.704-.224-1.248-.672-1.632-.448-.384-1.088-.576-1.92-.576h-2.664v4.392h2.688zm22.401-3.648h-9.24c.112 1.152.568 2.08 1.368 2.784.8.704 1.776 1.056 2.928 1.056 1.328 0 2.52-.528 3.576-1.584l1.08 1.248a6.817 6.817 0 01-2.112 1.512 6.197 6.197 0 01-2.568.528c-1.152 0-2.2-.264-3.144-.792a6.031 6.031 0 01-2.232-2.208c-.544-.928-.816-1.96-.816-3.096 0-1.12.264-2.144.792-3.072a5.907 5.907 0 012.16-2.232 5.792 5.792 0 013.024-.816c.992 0 1.896.224 2.712.672a4.909 4.909 0 011.92 1.872c.464.8.696 1.712.696 2.736 0 .448-.048.912-.144 1.392zm-5.232-4.992c-.976 0-1.824.312-2.544.936-.72.608-1.184 1.416-1.392 2.424h7.416c-.016-1.04-.36-1.856-1.032-2.448-.656-.608-1.472-.912-2.448-.912zm21.493-1.68c1.104 0 2.096.272 2.976.816a5.538 5.538 0 012.064 2.184c.496.928.744 1.96.744 3.096 0 1.136-.256 2.176-.768 3.12a5.712 5.712 0 01-2.064 2.208c-.88.528-1.864.792-2.952.792a6.04 6.04 0 01-2.448-.504 5.024 5.024 0 01-1.848-1.44v6h-1.848v-16.008h1.728v1.872c.448-.672 1.064-1.192 1.848-1.56a5.858 5.858 0 012.568-.576zm-.264 10.512c.784 0 1.488-.184 2.112-.552a3.944 3.944 0 001.488-1.584c.368-.672.552-1.424.552-2.256 0-.832-.184-1.584-.552-2.256a3.944 3.944 0 00-1.488-1.584c-.624-.384-1.328-.576-2.112-.576-.704 0-1.368.16-1.992.48-.608.32-1.104.808-1.488 1.464-.384.656-.576 1.472-.576 2.448s.184 1.8.552 2.472c.384.656.88 1.144 1.488 1.464.624.32 1.296.48 2.016.48zm13.484-10.512c1.376 0 2.48.408 3.312 1.224.832.816 1.248 1.992 1.248 3.528v7.2h-1.728v-1.512a4.194 4.194 0 01-1.656 1.32c-.672.304-1.432.456-2.28.456-1.2 0-2.184-.296-2.952-.888-.752-.592-1.128-1.392-1.128-2.4 0-.992.384-1.784 1.152-2.376.768-.592 1.784-.888 3.048-.888h3.696v-1.008c0-.96-.256-1.688-.768-2.184-.496-.512-1.184-.768-2.064-.768-.704 0-1.328.16-1.872.48-.544.304-1.056.768-1.536 1.392l-1.224-1.008c.528-.864 1.208-1.504 2.04-1.92a5.797 5.797 0 012.712-.648zm-.864 10.68c.64 0 1.232-.136 1.776-.408.544-.288.976-.68 1.296-1.176.336-.496.504-1.04.504-1.632v-.288h-3.48c-.816 0-1.44.144-1.872.432-.432.272-.648.68-.648 1.224 0 .592.232 1.048.696 1.368.464.32 1.04.48 1.728.48zm14.624 1.536a6.092 6.092 0 01-3.096-.816 6.087 6.087 0 01-2.208-2.208 6.092 6.092 0 01-.816-3.096c0-1.12.272-2.144.816-3.072a6.087 6.087 0 012.208-2.208 6.092 6.092 0 013.096-.816c1.024 0 1.952.232 2.784.696a5.659 5.659 0 012.04 1.848l-1.32 1.056c-.944-1.264-2.104-1.896-3.48-1.896-.8 0-1.528.2-2.184.6a4.114 4.114 0 00-1.512 1.584 4.522 4.522 0 00-.552 2.208c0 .816.184 1.56.552 2.232a4.296 4.296 0 001.512 1.608 4.243 4.243 0 002.184.576c1.376 0 2.528-.624 3.456-1.872l1.32 1.032a5.873 5.873 0 01-2.04 1.872c-.816.448-1.736.672-2.76.672zm16.531-11.952V206h-1.848v-4.608c-.752.352-1.736.528-2.952.528-1.408 0-2.536-.392-3.384-1.176-.832-.784-1.248-1.912-1.248-3.384v-3.048h1.848v2.952c0 2 1.048 3 3.144 3 .416 0 .864-.04 1.344-.12a5.75 5.75 0 001.248-.384v-5.448h1.848zm14.407 6.408h-9.24c.112 1.152.568 2.08 1.368 2.784.8.704 1.776 1.056 2.928 1.056 1.328 0 2.52-.528 3.576-1.584l1.08 1.248a6.817 6.817 0 01-2.112 1.512 6.197 6.197 0 01-2.568.528c-1.152 0-2.2-.264-3.144-.792a6.031 6.031 0 01-2.232-2.208c-.544-.928-.816-1.96-.816-3.096 0-1.12.264-2.144.792-3.072a5.907 5.907 0 012.16-2.232 5.792 5.792 0 013.024-.816c.992 0 1.896.224 2.712.672a4.909 4.909 0 011.92 1.872c.464.8.696 1.712.696 2.736 0 .448-.048.912-.144 1.392zm-5.232-4.992c-.976 0-1.824.312-2.544.936-.72.608-1.184 1.416-1.392 2.424h7.416c-.016-1.04-.36-1.856-1.032-2.448-.656-.608-1.472-.912-2.448-.912zm10.812.24h-3.936v-1.656h9.696v1.656h-3.936V206h-1.824v-10.032zm8.311-1.656h1.848v4.032h2.784c1.312 0 2.368.352 3.168 1.056.8.688 1.2 1.608 1.2 2.76 0 1.168-.4 2.104-1.2 2.808-.784.688-1.84 1.032-3.168 1.032h-4.632v-11.688zm10.704 0h1.848V206h-1.848v-11.688zm-6.168 10.056c.832 0 1.464-.184 1.896-.552.448-.384.672-.928.672-1.632 0-.704-.224-1.248-.672-1.632-.448-.384-1.088-.576-1.92-.576h-2.664v4.392h2.688zm86.39 50.792h12.384V271h-1.872v-14.16h-8.64V271h-1.872v-15.84zm22.64 3.888c1.104 0 2.096.272 2.976.816a5.538 5.538 0 012.064 2.184c.496.928.744 1.96.744 3.096 0 1.136-.256 2.176-.768 3.12a5.712 5.712 0 01-2.064 2.208c-.88.528-1.864.792-2.952.792a6.04 6.04 0 01-2.448-.504 5.024 5.024 0 01-1.848-1.44v6h-1.848v-16.008h1.728v1.872c.448-.672 1.064-1.192 1.848-1.56a5.858 5.858 0 012.568-.576zm-.264 10.512c.784 0 1.488-.184 2.112-.552a3.944 3.944 0 001.488-1.584c.368-.672.552-1.424.552-2.256 0-.832-.184-1.584-.552-2.256a3.944 3.944 0 00-1.488-1.584c-.624-.384-1.328-.576-2.112-.576-.704 0-1.368.16-1.992.48-.608.32-1.104.808-1.488 1.464-.384.656-.576 1.472-.576 2.448s.184 1.8.552 2.472c.384.656.88 1.144 1.488 1.464.624.32 1.296.48 2.016.48zm14.54 1.68a5.963 5.963 0 01-3.072-.816 6.087 6.087 0 01-2.208-2.208 6.047 6.047 0 01-.816-3.072c0-1.12.272-2.144.816-3.072a5.851 5.851 0 012.208-2.208 6.092 6.092 0 013.096-.816c1.12 0 2.144.272 3.072.816a6.031 6.031 0 012.232 2.208c.544.928.816 1.952.816 3.072a6.047 6.047 0 01-.816 3.072 6.031 6.031 0 01-2.232 2.208 6.092 6.092 0 01-3.096.816zm0-1.704c.784 0 1.496-.192 2.136-.576a4.108 4.108 0 001.536-1.56 4.419 4.419 0 00.576-2.232c0-.832-.184-1.584-.552-2.256a4.061 4.061 0 00-1.536-1.584 4.072 4.072 0 00-2.136-.576c-.8 0-1.52.192-2.16.576a4.114 4.114 0 00-1.512 1.584c-.368.672-.552 1.424-.552 2.256 0 .816.184 1.56.552 2.232a4.163 4.163 0 001.512 1.56c.64.384 1.352.576 2.136.576zm19.713-3.816h-9.24c.112 1.152.568 2.08 1.368 2.784.8.704 1.776 1.056 2.928 1.056 1.328 0 2.52-.528 3.576-1.584l1.08 1.248a6.817 6.817 0 01-2.112 1.512 6.197 6.197 0 01-2.568.528c-1.152 0-2.2-.264-3.144-.792a6.031 6.031 0 01-2.232-2.208c-.544-.928-.816-1.96-.816-3.096 0-1.12.264-2.144.792-3.072a5.907 5.907 0 012.16-2.232 5.792 5.792 0 013.024-.816c.992 0 1.896.224 2.712.672a4.909 4.909 0 011.92 1.872c.464.8.696 1.712.696 2.736 0 .448-.048.912-.144 1.392zm-5.232-4.992c-.976 0-1.824.312-2.544.936-.72.608-1.184 1.416-1.392 2.424h7.416c-.016-1.04-.36-1.856-1.032-2.448-.656-.608-1.472-.912-2.448-.912zm8.623-1.416h1.848V271h-1.848v-11.688zm9.84 11.688h-2.328l-5.424-6.336 4.92-5.352h2.304l-4.968 5.304 5.496 6.384zm4.887-10.032h-3.936v-1.656h9.696v1.656h-3.936V271h-1.824v-10.032zm17.96-1.92V271h-1.848v-8.256l-7.128 8.52h-.672v-11.952h1.848v8.28l7.128-8.544h.672zm10.207 0c1.104 0 2.096.272 2.976.816a5.538 5.538 0 012.064 2.184c.496.928.744 1.96.744 3.096 0 1.136-.256 2.176-.768 3.12a5.712 5.712 0 01-2.064 2.208c-.88.528-1.864.792-2.952.792a6.04 6.04 0 01-2.448-.504 5.024 5.024 0 01-1.848-1.44v6h-1.848v-16.008h1.728v1.872c.448-.672 1.064-1.192 1.848-1.56a5.858 5.858 0 012.568-.576zm-.264 10.512c.784 0 1.488-.184 2.112-.552a3.944 3.944 0 001.488-1.584c.368-.672.552-1.424.552-2.256 0-.832-.184-1.584-.552-2.256a3.944 3.944 0 00-1.488-1.584c-.624-.384-1.328-.576-2.112-.576-.704 0-1.368.16-1.992.48-.608.32-1.104.808-1.488 1.464-.384.656-.576 1.472-.576 2.448s.184 1.8.552 2.472c.384.656.88 1.144 1.488 1.464.624.32 1.296.48 2.016.48zm14.54 1.68a5.963 5.963 0 01-3.072-.816 6.087 6.087 0 01-2.208-2.208 6.047 6.047 0 01-.816-3.072c0-1.12.272-2.144.816-3.072a5.851 5.851 0 012.208-2.208 6.092 6.092 0 013.096-.816c1.12 0 2.144.272 3.072.816a6.031 6.031 0 012.232 2.208c.544.928.816 1.952.816 3.072a6.047 6.047 0 01-.816 3.072 6.031 6.031 0 01-2.232 2.208 6.092 6.092 0 01-3.096.816zm0-1.704c.784 0 1.496-.192 2.136-.576a4.108 4.108 0 001.536-1.56 4.419 4.419 0 00.576-2.232c0-.832-.184-1.584-.552-2.256a4.061 4.061 0 00-1.536-1.584 4.072 4.072 0 00-2.136-.576c-.8 0-1.52.192-2.16.576a4.114 4.114 0 00-1.512 1.584c-.368.672-.552 1.424-.552 2.256 0 .816.184 1.56.552 2.232a4.163 4.163 0 001.512 1.56c.64.384 1.352.576 2.136.576zm16.76-4.872c.688.24 1.224.6 1.608 1.08.4.48.6 1.056.6 1.728 0 1.04-.376 1.888-1.128 2.544-.752.656-1.76.984-3.024.984h-5.424v-11.688h4.824c1.152 0 2.064.28 2.736.84.688.56 1.032 1.312 1.032 2.256 0 .464-.112.896-.336 1.296a2.678 2.678 0 01-.888.96zm-5.52-.576h3c.64 0 1.12-.136 1.44-.408.32-.288.48-.68.48-1.176 0-1.024-.64-1.536-1.92-1.536h-3v3.12zm3.456 5.28c.768 0 1.36-.176 1.776-.528.432-.352.648-.808.648-1.368 0-.544-.216-.968-.648-1.272-.416-.32-1.008-.48-1.776-.48h-3.456v3.648h3.456zm11.951-10.32c1.376 0 2.48.408 3.312 1.224.832.816 1.248 1.992 1.248 3.528v7.2h-1.728v-1.512a4.194 4.194 0 01-1.656 1.32c-.672.304-1.432.456-2.28.456-1.2 0-2.184-.296-2.952-.888-.752-.592-1.128-1.392-1.128-2.4 0-.992.384-1.784 1.152-2.376.768-.592 1.784-.888 3.048-.888h3.696v-1.008c0-.96-.256-1.688-.768-2.184-.496-.512-1.184-.768-2.064-.768-.704 0-1.328.16-1.872.48-.544.304-1.056.768-1.536 1.392l-1.224-1.008c.528-.864 1.208-1.504 2.04-1.92a5.797 5.797 0 012.712-.648zm-.864 10.68c.64 0 1.232-.136 1.776-.408.544-.288.976-.68 1.296-1.176.336-.496.504-1.04.504-1.632v-.288h-3.48c-.816 0-1.44.144-1.872.432-.432.272-.648.68-.648 1.224 0 .592.232 1.048.696 1.368.464.32 1.04.48 1.728.48zm9.344-10.416h1.848v4.656h5.736v-4.656h1.848V271h-1.848v-5.4h-5.736v5.4h-1.848v-11.688zm23.124-.264V271h-1.848v-8.256l-7.128 8.52h-.672v-11.952h1.848v8.28l7.128-8.544h.672zm14.383 6.672h-9.24c.112 1.152.568 2.08 1.368 2.784.8.704 1.776 1.056 2.928 1.056 1.328 0 2.52-.528 3.576-1.584l1.08 1.248a6.817 6.817 0 01-2.112 1.512 6.197 6.197 0 01-2.568.528c-1.152 0-2.2-.264-3.144-.792a6.031 6.031 0 01-2.232-2.208c-.544-.928-.816-1.96-.816-3.096 0-1.12.264-2.144.792-3.072a5.907 5.907 0 012.16-2.232 5.792 5.792 0 013.024-.816c.992 0 1.896.224 2.712.672a4.909 4.909 0 011.92 1.872c.464.8.696 1.712.696 2.736 0 .448-.048.912-.144 1.392zm-5.232-4.992c-.976 0-1.824.312-2.544.936-.72.608-1.184 1.416-1.392 2.424h7.416c-.016-1.04-.36-1.856-1.032-2.448-.656-.608-1.472-.912-2.448-.912zM291.182 392.896V409h-1.872v-11.352l-5.064 6.864h-.672l-5.088-6.912V409h-1.872v-16.104h.672l6.6 9.144 6.648-9.144h.648zm9.364 16.344a5.963 5.963 0 01-3.072-.816 6.087 6.087 0 01-2.208-2.208 6.047 6.047 0 01-.816-3.072c0-1.12.272-2.144.816-3.072a5.851 5.851 0 012.208-2.208 6.092 6.092 0 013.096-.816c1.12 0 2.144.272 3.072.816a6.031 6.031 0 012.232 2.208c.544.928.816 1.952.816 3.072a6.047 6.047 0 01-.816 3.072 6.031 6.031 0 01-2.232 2.208 6.092 6.092 0 01-3.096.816zm0-1.704c.784 0 1.496-.192 2.136-.576a4.108 4.108 0 001.536-1.56 4.419 4.419 0 00.576-2.232c0-.832-.184-1.584-.552-2.256a4.061 4.061 0 00-1.536-1.584 4.072 4.072 0 00-2.136-.576c-.8 0-1.52.192-2.16.576a4.114 4.114 0 00-1.512 1.584c-.368.672-.552 1.424-.552 2.256 0 .816.184 1.56.552 2.232a4.163 4.163 0 001.512 1.56c.64.384 1.352.576 2.136.576zm9.392-10.224h1.848v4.656h5.736v-4.656h1.848V409h-1.848v-5.4h-5.736v5.4h-1.848v-11.688zm15.853 1.656h-3.936v-1.656h9.696v1.656h-3.936V409h-1.824v-10.032zm12.512-1.92c1.376 0 2.48.408 3.312 1.224.832.816 1.248 1.992 1.248 3.528v7.2h-1.728v-1.512a4.194 4.194 0 01-1.656 1.32c-.672.304-1.432.456-2.28.456-1.2 0-2.184-.296-2.952-.888-.752-.592-1.128-1.392-1.128-2.4 0-.992.384-1.784 1.152-2.376.768-.592 1.784-.888 3.048-.888h3.696v-1.008c0-.96-.256-1.688-.768-2.184-.496-.512-1.184-.768-2.064-.768-.704 0-1.328.16-1.872.48-.544.304-1.056.768-1.536 1.392l-1.224-1.008c.528-.864 1.208-1.504 2.039-1.92a5.804 5.804 0 012.713-.648zm-.864 10.68c.64 0 1.232-.136 1.776-.408.544-.288.976-.68 1.296-1.176.336-.496.504-1.04.504-1.632v-.288h-3.48c-.816 0-1.44.144-1.872.432-.432.272-.648.68-.648 1.224 0 .592.232 1.048.696 1.368.464.32 1.04.48 1.728.48zm10.543-10.416l4.824 5.352-5.328 6.336h-2.256l5.352-6.336-4.896-5.352h2.304zm5.064 0h1.848V409h-1.848v-11.688zm9.72 11.688h-2.304l-5.328-6.336 4.824-5.352h2.28l-4.848 5.304 5.376 6.384zm18.93-11.952V409h-1.848v-8.256l-7.128 8.52h-.672v-11.952h1.848v8.28l7.128-8.544h.672zm10.789.264h9.336V409h-1.872v-10.032h-5.616V409h-1.848v-11.688zm23.655 0l-5.76 13.32c-.448 1.024-1 1.768-1.656 2.232-.64.48-1.408.72-2.304.72-.592 0-1.192-.08-1.8-.24v-1.56c.608.08 1.08.12 1.416.12.608 0 1.12-.136 1.536-.408.432-.272.8-.76 1.104-1.464l.624-1.392-4.848-11.328h1.992l3.864 9.312 3.864-9.312h1.968zm7.477 11.952a6.092 6.092 0 01-3.096-.816 6.087 6.087 0 01-2.208-2.208 6.092 6.092 0 01-.816-3.096c0-1.12.272-2.144.816-3.072a6.087 6.087 0 012.208-2.208 6.092 6.092 0 013.096-.816c1.024 0 1.952.232 2.784.696a5.659 5.659 0 012.04 1.848l-1.32 1.056c-.944-1.264-2.104-1.896-3.48-1.896-.8 0-1.528.2-2.184.6a4.114 4.114 0 00-1.512 1.584 4.522 4.522 0 00-.552 2.208c0 .816.184 1.56.552 2.232a4.296 4.296 0 001.512 1.608 4.243 4.243 0 002.184.576c1.376 0 2.528-.624 3.456-1.872l1.32 1.032a5.873 5.873 0 01-2.04 1.872c-.816.448-1.736.672-2.76.672zm7.939-11.952h1.848V409h-1.848v-11.688zm9.84 11.688h-2.328l-5.424-6.336 4.92-5.352h2.304l-4.968 5.304 5.496 6.384zm7.416.24a5.963 5.963 0 01-3.072-.816 6.087 6.087 0 01-2.208-2.208 6.047 6.047 0 01-.816-3.072c0-1.12.272-2.144.816-3.072a5.851 5.851 0 012.208-2.208 6.092 6.092 0 013.096-.816c1.12 0 2.144.272 3.072.816a6.031 6.031 0 012.232 2.208c.544.928.816 1.952.816 3.072a6.047 6.047 0 01-.816 3.072 6.031 6.031 0 01-2.232 2.208 6.092 6.092 0 01-3.096.816zm0-1.704c.784 0 1.496-.192 2.136-.576a4.108 4.108 0 001.536-1.56 4.419 4.419 0 00.576-2.232c0-.832-.184-1.584-.552-2.256a4.061 4.061 0 00-1.536-1.584 4.072 4.072 0 00-2.136-.576c-.8 0-1.52.192-2.16.576a4.114 4.114 0 00-1.512 1.584c-.368.672-.552 1.424-.552 2.256 0 .816.184 1.56.552 2.232a4.163 4.163 0 001.512 1.56c.64.384 1.352.576 2.136.576zm8.624-6.864h5.736v1.56h-5.736v-1.56zm9.065-3.36h1.848v4.656h5.736v-4.656h1.848V409h-1.848v-5.4h-5.736v5.4h-1.848v-11.688zm17.677-.264c1.376 0 2.48.408 3.312 1.224.832.816 1.248 1.992 1.248 3.528v7.2h-1.728v-1.512a4.194 4.194 0 01-1.656 1.32c-.672.304-1.432.456-2.28.456-1.2 0-2.184-.296-2.952-.888-.752-.592-1.128-1.392-1.128-2.4 0-.992.384-1.784 1.152-2.376.768-.592 1.784-.888 3.048-.888h3.696v-1.008c0-.96-.256-1.688-.768-2.184-.496-.512-1.184-.768-2.064-.768-.704 0-1.328.16-1.872.48-.544.304-1.056.768-1.536 1.392l-1.224-1.008c.528-.864 1.208-1.504 2.039-1.92a5.804 5.804 0 012.713-.648zm-.864 10.68c.64 0 1.232-.136 1.776-.408.544-.288.976-.68 1.296-1.176.336-.496.504-1.04.504-1.632v-.288h-3.48c-.816 0-1.44.144-1.872.432-.432.272-.648.68-.648 1.224 0 .592.232 1.048.696 1.368.464.32 1.04.48 1.728.48zm18.175-10.416V409h-1.848v-10.032h-4.344l-.048 1.44c-.064 2.048-.216 3.696-.456 4.944-.24 1.248-.624 2.184-1.152 2.808-.528.624-1.248.936-2.16.936-.224 0-.432-.032-.624-.096v-1.56c.192.032.352.048.48.048.752 0 1.288-.584 1.608-1.752.32-1.184.504-2.976.552-5.376l.072-3.048h7.92zm8.282-.264c1.376 0 2.48.408 3.312 1.224.832.816 1.248 1.992 1.248 3.528v7.2h-1.728v-1.512a4.194 4.194 0 01-1.656 1.32c-.672.304-1.432.456-2.28.456-1.2 0-2.184-.296-2.952-.888-.752-.592-1.128-1.392-1.128-2.4 0-.992.384-1.784 1.152-2.376.768-.592 1.784-.888 3.048-.888h3.696v-1.008c0-.96-.256-1.688-.768-2.184-.496-.512-1.184-.768-2.064-.768-.704 0-1.328.16-1.872.48-.544.304-1.056.768-1.536 1.392l-1.224-1.008c.528-.864 1.208-1.504 2.04-1.92a5.797 5.797 0 012.712-.648zm-.864 10.68c.64 0 1.232-.136 1.776-.408.544-.288.976-.68 1.296-1.176.336-.496.504-1.04.504-1.632v-.288h-3.48c-.816 0-1.44.144-1.872.432-.432.272-.648.68-.648 1.224 0 .592.232 1.048.696 1.368.464.32 1.04.48 1.728.48zm20.312-.36v5.016h-1.848V409h-9.192v3.384h-1.848v-5.016h1.32c.544-.56.928-1.384 1.152-2.472.224-1.104.352-2.536.384-4.296l.072-3.288h8.064v10.056h1.896zm-8.28-6.744c-.032 1.632-.168 3.032-.408 4.2-.24 1.152-.552 2-.936 2.544h5.88v-8.4h-4.464l-.072 1.656zm11.187-3.312h1.848V409h-1.848v-11.688zm9.84 11.688h-2.328l-5.424-6.336 4.92-5.352h2.304l-4.968 5.304 5.496 6.384zm6.594-11.952c1.376 0 2.48.408 3.312 1.224.832.816 1.248 1.992 1.248 3.528v7.2h-1.728v-1.512a4.194 4.194 0 01-1.656 1.32c-.672.304-1.432.456-2.28.456-1.2 0-2.184-.296-2.952-.888-.752-.592-1.128-1.392-1.128-2.4 0-.992.384-1.784 1.152-2.376.768-.592 1.784-.888 3.048-.888h3.696v-1.008c0-.96-.256-1.688-.768-2.184-.496-.512-1.184-.768-2.064-.768-.704 0-1.328.16-1.872.48-.544.304-1.056.768-1.536 1.392l-1.224-1.008c.528-.864 1.208-1.504 2.04-1.92a5.797 5.797 0 012.712-.648zm-.864 10.68c.64 0 1.232-.136 1.776-.408.544-.288.976-.68 1.296-1.176.336-.496.504-1.04.504-1.632v-.288h-3.48c-.816 0-1.44.144-1.872.432-.432.272-.648.68-.648 1.224 0 .592.232 1.048.696 1.368.464.32 1.04.48 1.728.48zM78.184 324.16h12.384V340h-1.872v-14.16h-8.64V340h-1.872v-15.84zm21.753 16.08a5.963 5.963 0 01-3.072-.816 6.087 6.087 0 01-2.208-2.208 6.047 6.047 0 01-.816-3.072c0-1.12.272-2.144.816-3.072a5.851 5.851 0 012.208-2.208 6.092 6.092 0 013.096-.816c1.12 0 2.144.272 3.072.816a6.031 6.031 0 012.232 2.208c.544.928.816 1.952.816 3.072a6.047 6.047 0 01-.816 3.072 6.031 6.031 0 01-2.232 2.208 6.093 6.093 0 01-3.096.816zm0-1.704c.784 0 1.496-.192 2.136-.576a4.108 4.108 0 001.536-1.56 4.419 4.419 0 00.576-2.232c0-.832-.184-1.584-.552-2.256a4.061 4.061 0 00-1.536-1.584 4.072 4.072 0 00-2.136-.576c-.8 0-1.52.192-2.16.576a4.114 4.114 0 00-1.512 1.584c-.368.672-.552 1.424-.552 2.256 0 .816.184 1.56.552 2.232a4.163 4.163 0 001.512 1.56c.64.384 1.352.576 2.136.576zm14.672 1.728a6.092 6.092 0 01-3.096-.816 6.087 6.087 0 01-2.208-2.208 6.092 6.092 0 01-.816-3.096c0-1.12.272-2.144.816-3.072a6.087 6.087 0 012.208-2.208 6.092 6.092 0 013.096-.816c1.024 0 1.952.232 2.784.696a5.659 5.659 0 012.04 1.848l-1.32 1.056c-.944-1.264-2.104-1.896-3.48-1.896-.8 0-1.528.2-2.184.6a4.114 4.114 0 00-1.512 1.584 4.522 4.522 0 00-.552 2.208c0 .816.184 1.56.552 2.232a4.296 4.296 0 001.512 1.608 4.243 4.243 0 002.184.576c1.376 0 2.528-.624 3.456-1.872l1.32 1.032a5.873 5.873 0 01-2.04 1.872c-.816.448-1.736.672-2.76.672zm10.315-10.296h-3.936v-1.656h9.696v1.656h-3.936V340h-1.824v-10.032zm12.511-1.92c1.376 0 2.48.408 3.312 1.224.832.816 1.248 1.992 1.248 3.528v7.2h-1.728v-1.512a4.194 4.194 0 01-1.656 1.32c-.672.304-1.432.456-2.28.456-1.2 0-2.184-.296-2.952-.888-.752-.592-1.128-1.392-1.128-2.4 0-.992.384-1.784 1.152-2.376.768-.592 1.784-.888 3.048-.888h3.696v-1.008c0-.96-.256-1.688-.768-2.184-.496-.512-1.184-.768-2.064-.768-.704 0-1.328.16-1.872.48-.544.304-1.056.768-1.536 1.392l-1.224-1.008c.528-.864 1.208-1.504 2.04-1.92a5.797 5.797 0 012.712-.648zm-.864 10.68c.64 0 1.232-.136 1.776-.408.544-.288.976-.68 1.296-1.176.336-.496.504-1.04.504-1.632v-.288h-3.48c-.816 0-1.44.144-1.872.432-.432.272-.648.68-.648 1.224 0 .592.232 1.048.696 1.368.464.32 1.04.48 1.728.48zm16.712-5.064c.688.24 1.224.6 1.608 1.08.4.48.6 1.056.6 1.728 0 1.04-.376 1.888-1.128 2.544-.752.656-1.76.984-3.024.984h-5.424v-11.688h4.824c1.152 0 2.064.28 2.736.84.688.56 1.032 1.312 1.032 2.256 0 .464-.112.896-.336 1.296a2.678 2.678 0 01-.888.96zm-5.52-.576h3c.64 0 1.12-.136 1.44-.408.32-.288.48-.68.48-1.176 0-1.024-.64-1.536-1.92-1.536h-3v3.12zm3.456 5.28c.768 0 1.36-.176 1.776-.528.432-.352.648-.808.648-1.368 0-.544-.216-.968-.648-1.272-.416-.32-1.008-.48-1.776-.48h-3.456v3.648h3.456zm7.751-10.056h1.848V340h-1.848v-11.688zM168.81 340h-2.328l-5.424-6.336 4.92-5.352h2.304l-4.968 5.304L168.81 340zm6.594-11.952c1.376 0 2.48.408 3.312 1.224.832.816 1.248 1.992 1.248 3.528v7.2h-1.728v-1.512a4.194 4.194 0 01-1.656 1.32c-.672.304-1.432.456-2.28.456-1.2 0-2.184-.296-2.952-.888-.752-.592-1.128-1.392-1.128-2.4 0-.992.384-1.784 1.152-2.376.768-.592 1.784-.888 3.048-.888h3.696v-1.008c0-.96-.256-1.688-.768-2.184-.496-.512-1.184-.768-2.064-.768-.704 0-1.328.16-1.872.48-.544.304-1.056.768-1.536 1.392l-1.224-1.008c.528-.864 1.208-1.504 2.04-1.92a5.797 5.797 0 012.712-.648zm-.864 10.68c.64 0 1.232-.136 1.776-.408.544-.288.976-.68 1.296-1.176.336-.496.504-1.04.504-1.632v-.288h-3.48c-.816 0-1.44.144-1.872.432-.432.272-.648.68-.648 1.224 0 .592.232 1.048.696 1.368.464.32 1.04.48 1.728.48zm21.326 1.512a5.963 5.963 0 01-3.072-.816 6.087 6.087 0 01-2.208-2.208 6.047 6.047 0 01-.816-3.072c0-1.12.272-2.144.816-3.072a5.851 5.851 0 012.208-2.208 6.092 6.092 0 013.096-.816c1.12 0 2.144.272 3.072.816a6.031 6.031 0 012.232 2.208c.544.928.816 1.952.816 3.072a6.047 6.047 0 01-.816 3.072 6.031 6.031 0 01-2.232 2.208 6.092 6.092 0 01-3.096.816zm0-1.704c.784 0 1.496-.192 2.136-.576a4.108 4.108 0 001.536-1.56 4.419 4.419 0 00.576-2.232c0-.832-.184-1.584-.552-2.256a4.061 4.061 0 00-1.536-1.584 4.072 4.072 0 00-2.136-.576c-.8 0-1.52.192-2.16.576a4.114 4.114 0 00-1.512 1.584c-.368.672-.552 1.424-.552 2.256 0 .816.184 1.56.552 2.232a4.163 4.163 0 001.512 1.56c.64.384 1.352.576 2.136.576zm15.081-10.056c1.056 0 2.032.264 2.928.792a5.704 5.704 0 012.112 2.16c.528.896.792 1.872.792 2.928a5.705 5.705 0 01-.816 2.976 6.019 6.019 0 01-2.208 2.136c-.928.512-1.952.768-3.072.768-1.184 0-2.232-.272-3.144-.816-.912-.56-1.624-1.336-2.136-2.328-.496-1.008-.744-2.152-.744-3.432v-2.04c0-1.792.176-3.264.528-4.416.368-1.152 1.072-2.112 2.112-2.88 1.056-.768 2.576-1.32 4.56-1.656 1.984-.352 3.296-.664 3.936-.936v1.776c-.736.32-1.976.608-3.72.864-1.664.24-2.904.664-3.72 1.272-.816.592-1.336 1.296-1.56 2.112-.224.8-.336 1.824-.336 3.072a5.247 5.247 0 011.92-1.728 5.486 5.486 0 012.568-.624zm-.24 10.056c.768 0 1.472-.184 2.112-.552a4.034 4.034 0 001.512-1.512c.368-.64.552-1.344.552-2.112s-.184-1.472-.552-2.112a4.034 4.034 0 00-1.512-1.512 4.162 4.162 0 00-2.112-.552c-.752 0-1.448.184-2.088.552a4.217 4.217 0 00-1.536 1.512 4.162 4.162 0 00-.552 2.112c0 .752.184 1.448.552 2.088.384.64.896 1.152 1.536 1.536.64.368 1.336.552 2.088.552zm14.573 1.704a5.963 5.963 0 01-3.072-.816 6.087 6.087 0 01-2.208-2.208 6.047 6.047 0 01-.816-3.072c0-1.12.272-2.144.816-3.072a5.851 5.851 0 012.208-2.208 6.092 6.092 0 013.096-.816c1.12 0 2.144.272 3.072.816a6.031 6.031 0 012.232 2.208c.544.928.816 1.952.816 3.072a6.047 6.047 0 01-.816 3.072 6.031 6.031 0 01-2.232 2.208 6.092 6.092 0 01-3.096.816zm0-1.704c.784 0 1.496-.192 2.136-.576a4.108 4.108 0 001.536-1.56 4.419 4.419 0 00.576-2.232c0-.832-.184-1.584-.552-2.256a4.061 4.061 0 00-1.536-1.584 4.072 4.072 0 00-2.136-.576c-.8 0-1.52.192-2.16.576a4.114 4.114 0 00-1.512 1.584c-.368.672-.552 1.424-.552 2.256 0 .816.184 1.56.552 2.232a4.163 4.163 0 001.512 1.56c.64.384 1.352.576 2.136.576zm15.537-10.488c1.104 0 2.096.272 2.976.816a5.538 5.538 0 012.064 2.184c.496.928.744 1.96.744 3.096 0 1.136-.256 2.176-.768 3.12a5.712 5.712 0 01-2.064 2.208c-.88.528-1.864.792-2.952.792a6.04 6.04 0 01-2.448-.504 5.024 5.024 0 01-1.848-1.44v6h-1.848v-16.008h1.728v1.872c.448-.672 1.064-1.192 1.848-1.56a5.858 5.858 0 012.568-.576zm-.264 10.512c.784 0 1.488-.184 2.112-.552a3.944 3.944 0 001.488-1.584c.368-.672.552-1.424.552-2.256 0-.832-.184-1.584-.552-2.256a3.944 3.944 0 00-1.488-1.584c-.624-.384-1.328-.576-2.112-.576-.704 0-1.368.16-1.992.48-.608.32-1.104.808-1.488 1.464-.384.656-.576 1.472-.576 2.448s.184 1.8.552 2.472c.384.656.88 1.144 1.488 1.464.624.32 1.296.48 2.016.48zm19.04-10.248l-5.76 13.32c-.448 1.024-1 1.768-1.656 2.232-.64.48-1.408.72-2.304.72-.592 0-1.192-.08-1.8-.24v-1.56c.608.08 1.08.12 1.416.12.608 0 1.12-.136 1.536-.408.432-.272.8-.76 1.104-1.464l.624-1.392-4.848-11.328h1.992l3.864 9.312 3.864-9.312h1.968zm12.485 10.056v5.016h-1.848V340h-9.192v3.384h-1.848v-5.016h1.32c.544-.56.928-1.384 1.152-2.472.224-1.104.352-2.536.384-4.296l.072-3.288h8.064v10.056h1.896zm-8.28-6.744c-.032 1.632-.168 3.032-.408 4.2-.24 1.152-.552 2-.936 2.544h5.88v-8.4h-4.464l-.072 1.656zm16.209 8.616a5.963 5.963 0 01-3.072-.816 6.087 6.087 0 01-2.208-2.208 6.047 6.047 0 01-.816-3.072c0-1.12.272-2.144.816-3.072a5.851 5.851 0 012.208-2.208 6.092 6.092 0 013.096-.816c1.12 0 2.144.272 3.072.816a6.031 6.031 0 012.232 2.208c.544.928.816 1.952.816 3.072a6.047 6.047 0 01-.816 3.072 6.031 6.031 0 01-2.232 2.208 6.092 6.092 0 01-3.096.816zm0-1.704c.784 0 1.496-.192 2.136-.576a4.108 4.108 0 001.536-1.56 4.419 4.419 0 00.576-2.232c0-.832-.184-1.584-.552-2.256a4.061 4.061 0 00-1.536-1.584 4.072 4.072 0 00-2.136-.576c-.8 0-1.52.192-2.16.576a4.114 4.114 0 00-1.512 1.584c-.368.672-.552 1.424-.552 2.256 0 .816.184 1.56.552 2.232a4.163 4.163 0 001.512 1.56c.64.384 1.352.576 2.136.576zm16.76-4.872c.688.24 1.224.6 1.608 1.08.4.48.6 1.056.6 1.728 0 1.04-.376 1.888-1.128 2.544-.752.656-1.76.984-3.024.984h-5.424v-11.688h4.824c1.152 0 2.064.28 2.736.84.688.56 1.032 1.312 1.032 2.256 0 .464-.112.896-.336 1.296a2.678 2.678 0 01-.888.96zm-5.52-.576h3c.64 0 1.12-.136 1.44-.408.32-.288.48-.68.48-1.176 0-1.024-.64-1.536-1.92-1.536h-3v3.12zm3.456 5.28c.768 0 1.36-.176 1.776-.528.432-.352.648-.808.648-1.368 0-.544-.216-.968-.648-1.272-.416-.32-1.008-.48-1.776-.48h-3.456v3.648h3.456zm11.951-10.32c1.376 0 2.48.408 3.312 1.224.832.816 1.248 1.992 1.248 3.528v7.2h-1.728v-1.512a4.194 4.194 0 01-1.656 1.32c-.672.304-1.432.456-2.28.456-1.2 0-2.184-.296-2.952-.888-.752-.592-1.128-1.392-1.128-2.4 0-.992.384-1.784 1.152-2.376.768-.592 1.784-.888 3.048-.888h3.696v-1.008c0-.96-.256-1.688-.768-2.184-.496-.512-1.184-.768-2.064-.768-.704 0-1.328.16-1.872.48-.544.304-1.056.768-1.536 1.392l-1.224-1.008c.528-.864 1.208-1.504 2.04-1.92a5.797 5.797 0 012.712-.648zm-.864 10.68c.64 0 1.232-.136 1.776-.408.544-.288.976-.68 1.296-1.176.336-.496.504-1.04.504-1.632v-.288h-3.48c-.816 0-1.44.144-1.872.432-.432.272-.648.68-.648 1.224 0 .592.232 1.048.696 1.368.464.32 1.04.48 1.728.48zm9.344-10.416h1.848v4.656h5.736v-4.656h1.848V340h-1.848v-5.4h-5.736v5.4h-1.848v-11.688zm23.124-.264V340h-1.848v-8.256l-7.128 8.52h-.672v-11.952h1.848v8.28l7.128-8.544h.672zm12.583.264V340h-1.848v-4.272h-2.208L343.569 340h-2.16l3.408-4.512c-.864-.256-1.544-.68-2.04-1.272-.48-.608-.72-1.328-.72-2.16 0-1.136.376-2.04 1.128-2.712.752-.688 1.752-1.032 3-1.032h4.656zm-1.848 1.656h-2.688c-.736 0-1.312.184-1.728.552-.416.368-.624.872-.624 1.512 0 .624.208 1.128.624 1.512.432.368 1.016.552 1.752.552h2.664v-4.128zM78.184 462.16h1.872V478h-1.872v-15.84zM90.448 478h-2.376l-7.8-8.496 7.128-7.344h2.4l-7.08 7.344L90.448 478zm7.192.24a5.963 5.963 0 01-3.072-.816 6.087 6.087 0 01-2.208-2.208 6.047 6.047 0 01-.816-3.072c0-1.12.272-2.144.816-3.072a5.851 5.851 0 012.208-2.208 6.092 6.092 0 013.096-.816c1.12 0 2.144.272 3.072.816a6.031 6.031 0 012.232 2.208c.544.928.816 1.952.816 3.072a6.047 6.047 0 01-.816 3.072 6.031 6.031 0 01-2.232 2.208 6.093 6.093 0 01-3.096.816zm0-1.704c.784 0 1.496-.192 2.136-.576a4.107 4.107 0 001.536-1.56 4.419 4.419 0 00.576-2.232c0-.832-.184-1.584-.552-2.256a4.06 4.06 0 00-1.536-1.584 4.072 4.072 0 00-2.136-.576c-.8 0-1.52.192-2.16.576a4.114 4.114 0 00-1.512 1.584c-.368.672-.552 1.424-.552 2.256 0 .816.184 1.56.552 2.232a4.163 4.163 0 001.512 1.56c.64.384 1.352.576 2.136.576zm9.392-10.488h.672l5.544 6.576 5.52-6.576h.648V478h-1.848v-7.896l-3.984 4.752h-.72l-3.984-4.752V478h-1.848v-11.952zm16.453.264h9.336V478h-1.872v-10.032h-5.616V478h-1.848v-11.688zm22.215 0V478h-1.848v-10.032h-4.344l-.048 1.44c-.064 2.048-.216 3.696-.456 4.944-.24 1.248-.624 2.184-1.152 2.808-.528.624-1.248.936-2.16.936-.224 0-.432-.032-.624-.096v-1.56c.192.032.352.048.48.048.752 0 1.288-.584 1.608-1.752.32-1.184.504-2.976.552-5.376l.072-3.048h7.92zm14.402 6.408h-9.24c.112 1.152.568 2.08 1.368 2.784.8.704 1.776 1.056 2.928 1.056 1.328 0 2.52-.528 3.576-1.584l1.08 1.248a6.817 6.817 0 01-2.112 1.512 6.197 6.197 0 01-2.568.528c-1.152 0-2.2-.264-3.144-.792a6.031 6.031 0 01-2.232-2.208c-.544-.928-.816-1.96-.816-3.096 0-1.12.264-2.144.792-3.072a5.907 5.907 0 012.16-2.232 5.792 5.792 0 013.024-.816c.992 0 1.896.224 2.712.672a4.909 4.909 0 011.92 1.872c.464.8.696 1.712.696 2.736 0 .448-.048.912-.144 1.392zm-5.232-4.992c-.976 0-1.824.312-2.544.936-.72.608-1.184 1.416-1.392 2.424h7.416c-.016-1.04-.36-1.856-1.032-2.448-.656-.608-1.472-.912-2.448-.912zm8.623-1.416h1.848V478h-1.848v-11.688zm9.84 11.688h-2.328l-5.424-6.336 4.92-5.352h2.304l-4.968 5.304 5.496 6.384zm7.44.264a6.092 6.092 0 01-3.096-.816 6.087 6.087 0 01-2.208-2.208 6.092 6.092 0 01-.816-3.096c0-1.12.272-2.144.816-3.072a6.087 6.087 0 012.208-2.208 6.092 6.092 0 013.096-.816c1.024 0 1.952.232 2.784.696a5.659 5.659 0 012.04 1.848l-1.32 1.056c-.944-1.264-2.104-1.896-3.48-1.896-.8 0-1.528.2-2.184.6a4.114 4.114 0 00-1.512 1.584 4.522 4.522 0 00-.552 2.208c0 .816.184 1.56.552 2.232a4.296 4.296 0 001.512 1.608 4.243 4.243 0 002.184.576c1.376 0 2.528-.624 3.456-1.872l1.32 1.032a5.873 5.873 0 01-2.04 1.872c-.816.448-1.736.672-2.76.672zm7.939-11.952h1.848v4.656h5.736v-4.656h1.848V478h-1.848v-5.4h-5.736v5.4h-1.848v-11.688zm18.732 11.928a5.963 5.963 0 01-3.072-.816 6.087 6.087 0 01-2.208-2.208 6.047 6.047 0 01-.816-3.072c0-1.12.272-2.144.816-3.072a5.851 5.851 0 012.208-2.208 6.092 6.092 0 013.096-.816c1.12 0 2.144.272 3.072.816a6.031 6.031 0 012.232 2.208c.544.928.816 1.952.816 3.072a6.047 6.047 0 01-.816 3.072 6.031 6.031 0 01-2.232 2.208 6.092 6.092 0 01-3.096.816zm0-1.704c.784 0 1.496-.192 2.136-.576a4.108 4.108 0 001.536-1.56 4.419 4.419 0 00.576-2.232c0-.832-.184-1.584-.552-2.256a4.061 4.061 0 00-1.536-1.584 4.072 4.072 0 00-2.136-.576c-.8 0-1.52.192-2.16.576a4.114 4.114 0 00-1.512 1.584c-.368.672-.552 1.424-.552 2.256 0 .816.184 1.56.552 2.232a4.163 4.163 0 001.512 1.56c.64.384 1.352.576 2.136.576zm19.713-3.816h-9.24c.112 1.152.568 2.08 1.368 2.784.8.704 1.776 1.056 2.928 1.056 1.328 0 2.52-.528 3.576-1.584l1.08 1.248a6.817 6.817 0 01-2.112 1.512 6.197 6.197 0 01-2.568.528c-1.152 0-2.2-.264-3.144-.792a6.031 6.031 0 01-2.232-2.208c-.544-.928-.816-1.96-.816-3.096 0-1.12.264-2.144.792-3.072a5.907 5.907 0 012.16-2.232 5.792 5.792 0 013.024-.816c.992 0 1.896.224 2.712.672a4.909 4.909 0 011.92 1.872c.464.8.696 1.712.696 2.736 0 .448-.048.912-.144 1.392zm-5.232-4.992c-.976 0-1.824.312-2.544.936-.72.608-1.184 1.416-1.392 2.424h7.416c-.016-1.04-.36-1.856-1.032-2.448-.656-.608-1.472-.912-2.448-.912zm20.605 10.512a5.963 5.963 0 01-3.072-.816 6.087 6.087 0 01-2.208-2.208 6.047 6.047 0 01-.816-3.072c0-1.12.272-2.144.816-3.072a5.851 5.851 0 012.208-2.208 6.092 6.092 0 013.096-.816c1.12 0 2.144.272 3.072.816a6.031 6.031 0 012.232 2.208c.544.928.816 1.952.816 3.072a6.047 6.047 0 01-.816 3.072 6.031 6.031 0 01-2.232 2.208 6.092 6.092 0 01-3.096.816zm0-1.704c.784 0 1.496-.192 2.136-.576a4.108 4.108 0 001.536-1.56 4.419 4.419 0 00.576-2.232c0-.832-.184-1.584-.552-2.256a4.061 4.061 0 00-1.536-1.584 4.072 4.072 0 00-2.136-.576c-.8 0-1.52.192-2.16.576a4.114 4.114 0 00-1.512 1.584c-.368.672-.552 1.424-.552 2.256 0 .816.184 1.56.552 2.232a4.163 4.163 0 001.512 1.56c.64.384 1.352.576 2.136.576zm15.081-10.056c1.056 0 2.032.264 2.928.792a5.704 5.704 0 012.112 2.16c.528.896.792 1.872.792 2.928a5.705 5.705 0 01-.816 2.976 6.019 6.019 0 01-2.208 2.136c-.928.512-1.952.768-3.072.768-1.184 0-2.232-.272-3.144-.816-.912-.56-1.624-1.336-2.136-2.328-.496-1.008-.744-2.152-.744-3.432v-2.04c0-1.792.176-3.264.528-4.416.368-1.152 1.072-2.112 2.112-2.88 1.056-.768 2.576-1.32 4.56-1.656 1.984-.352 3.296-.664 3.936-.936v1.776c-.736.32-1.976.608-3.72.864-1.664.24-2.904.664-3.72 1.272-.816.592-1.336 1.296-1.56 2.112-.224.8-.336 1.824-.336 3.072a5.247 5.247 0 011.92-1.728 5.486 5.486 0 012.568-.624zm-.24 10.056c.768 0 1.472-.184 2.112-.552a4.034 4.034 0 001.512-1.512c.368-.64.552-1.344.552-2.112s-.184-1.472-.552-2.112a4.034 4.034 0 00-1.512-1.512 4.162 4.162 0 00-2.112-.552c-.752 0-1.448.184-2.088.552a4.217 4.217 0 00-1.536 1.512 4.162 4.162 0 00-.552 2.112c0 .752.184 1.448.552 2.088.384.64.896 1.152 1.536 1.536.64.368 1.336.552 2.088.552zm14.597 1.728a6.092 6.092 0 01-3.096-.816 6.087 6.087 0 01-2.208-2.208 6.092 6.092 0 01-.816-3.096c0-1.12.272-2.144.816-3.072a6.087 6.087 0 012.208-2.208 6.092 6.092 0 013.096-.816c1.024 0 1.952.232 2.784.696a5.659 5.659 0 012.04 1.848l-1.32 1.056c-.944-1.264-2.104-1.896-3.48-1.896-.8 0-1.528.2-2.184.6a4.114 4.114 0 00-1.512 1.584 4.522 4.522 0 00-.552 2.208c0 .816.184 1.56.552 2.232a4.296 4.296 0 001.512 1.608 4.243 4.243 0 002.184.576c1.376 0 2.528-.624 3.456-1.872l1.32 1.032a5.873 5.873 0 01-2.04 1.872c-.816.448-1.736.672-2.76.672zm16.771-11.952V478h-1.848v-10.032h-4.344l-.048 1.44c-.064 2.048-.216 3.696-.456 4.944-.24 1.248-.624 2.184-1.152 2.808-.528.624-1.248.936-2.16.936-.224 0-.432-.032-.624-.096v-1.56c.192.032.352.048.48.048.752 0 1.288-.584 1.608-1.752.32-1.184.504-2.976.552-5.376l.072-3.048h7.92zm14.354 0l-5.76 13.32c-.448 1.024-1 1.768-1.656 2.232-.64.48-1.408.72-2.304.72-.592 0-1.192-.08-1.8-.24v-1.56c.608.08 1.08.12 1.416.12.608 0 1.12-.136 1.536-.408.432-.272.8-.76 1.104-1.464l.624-1.392-4.848-11.328h1.992l3.864 9.312 3.864-9.312h1.968zm3.866 0l4.824 5.352-5.328 6.336h-2.256l5.352-6.336-4.896-5.352h2.304zm5.064 0h1.848V478h-1.848v-11.688zm9.72 11.688h-2.304l-5.328-6.336 4.824-5.352h2.28l-4.848 5.304 5.376 6.384zm12.203-11.952V478h-1.848v-8.256l-7.128 8.52h-.672v-11.952h1.848v8.28l7.128-8.544h.672zm11.431 5.616c.688.24 1.224.6 1.608 1.08.4.48.6 1.056.6 1.728 0 1.04-.376 1.888-1.128 2.544-.752.656-1.76.984-3.024.984h-5.424v-11.688h4.824c1.152 0 2.064.28 2.736.84.688.56 1.032 1.312 1.032 2.256 0 .464-.112.896-.336 1.296a2.678 2.678 0 01-.888.96zm-5.52-.576h3c.64 0 1.12-.136 1.44-.408.32-.288.48-.68.48-1.176 0-1.024-.64-1.536-1.92-1.536h-3v3.12zm3.456 5.28c.768 0 1.36-.176 1.776-.528.432-.352.648-.808.648-1.368 0-.544-.216-.968-.648-1.272-.416-.32-1.008-.48-1.776-.48h-3.456v3.648h3.456zm11.95-10.32c1.376 0 2.48.408 3.312 1.224.832.816 1.248 1.992 1.248 3.528v7.2h-1.728v-1.512a4.194 4.194 0 01-1.656 1.32c-.672.304-1.432.456-2.28.456-1.2 0-2.184-.296-2.952-.888-.752-.592-1.128-1.392-1.128-2.4 0-.992.384-1.784 1.152-2.376.768-.592 1.784-.888 3.048-.888h3.696v-1.008c0-.96-.256-1.688-.768-2.184-.496-.512-1.184-.768-2.064-.768-.704 0-1.328.16-1.872.48-.544.304-1.056.768-1.536 1.392l-1.224-1.008c.528-.864 1.208-1.504 2.04-1.92a5.797 5.797 0 012.712-.648zm-.864 10.68c.64 0 1.232-.136 1.776-.408.544-.288.976-.68 1.296-1.176.336-.496.504-1.04.504-1.632v-.288h-3.48c-.816 0-1.44.144-1.872.432-.432.272-.648.68-.648 1.224 0 .592.232 1.048.696 1.368.464.32 1.04.48 1.728.48zm9.344-10.416h1.848v4.656h5.736v-4.656h1.848V478h-1.848v-5.4h-5.736v5.4h-1.848v-11.688zm23.125-.264V478h-1.848v-8.256l-7.128 8.52h-.672v-11.952h1.848v8.28l7.128-8.544h.672zm14.383 6.672h-9.24c.112 1.152.568 2.08 1.368 2.784.8.704 1.776 1.056 2.928 1.056 1.328 0 2.52-.528 3.576-1.584l1.08 1.248a6.817 6.817 0 01-2.112 1.512 6.197 6.197 0 01-2.568.528c-1.152 0-2.2-.264-3.144-.792a6.031 6.031 0 01-2.232-2.208c-.544-.928-.816-1.96-.816-3.096 0-1.12.264-2.144.792-3.072a5.907 5.907 0 012.16-2.232 5.792 5.792 0 013.024-.816c.992 0 1.896.224 2.712.672a4.909 4.909 0 011.92 1.872c.464.8.696 1.712.696 2.736 0 .448-.048.912-.144 1.392zm-5.232-4.992c-.976 0-1.824.312-2.544.936-.72.608-1.184 1.416-1.392 2.424h7.416c-.016-1.04-.36-1.856-1.032-2.448-.656-.608-1.472-.912-2.448-.912z" fill="#222"/><path d="M60.41 332.384c-.5-2.014-2.22-6.654-3.172-9.239a3.968 3.968 0 00-3.704-2.545h-7.398v-.635a3.961 3.961 0 00-2.448-3.663A3.97 3.97 0 0042.17 316H19.966a.796.796 0 00-.793.793v1.586a.795.795 0 001.354.561.795.795 0 00.232-.561v-.793H42.17a2.38 2.38 0 012.38 2.379v18.24h-12.8a6.295 6.295 0 00-6.122 0h-4.87v-7.931a.79.79 0 00-.792-.793.792.792 0 00-.793.793v13.482a.79.79 0 00.793.793h1.586a.793.793 0 000-1.586h-.793v-3.172h2.982a6.343 6.343 0 109.897 0H44.55v3.172h-8.724a.792.792 0 100 1.586h9.517a.793.793 0 00.792-.793v-21.57h7.336a2.377 2.377 0 012.22 1.53c.976 2.546 2.68 7.137 3.172 9.048.516 2.157 1.206 7.978 1.452 10.199h-.698a.792.792 0 100 1.586h1.586a.808.808 0 00.594-.262.806.806 0 00.199-.619c0-.341-.92-8.501-1.586-11.284zm-31.72 16.13a4.757 4.757 0 01-.93-9.425 4.756 4.756 0 015.687 4.667 4.756 4.756 0 01-4.758 4.758z" fill="#FF5225"/><path d="M27.896 321.551a.796.796 0 00.793-.793.795.795 0 00-.793-.793h-7.93a.792.792 0 00-.56 1.354c.148.148.35.232.56.232h7.93zm-11.103 0h.793a.792.792 0 00.56-1.353.792.792 0 00-.56-.233h-.793a.792.792 0 000 1.586zm12.688 4.758h-.793a.796.796 0 00-.793.793.795.795 0 00.793.793h.793a.792.792 0 100-1.586zm-2.379.793a.795.795 0 00-.793-.793h-7.93a.796.796 0 00-.793.793.794.794 0 00.793.793h7.93a.792.792 0 00.793-.793zm3.172-3.172a.795.795 0 00-.793-.793H16.793a.796.796 0 00-.793.793.793.793 0 00.793.793h12.688a.792.792 0 00.793-.793zm26.17 7.93H50.1v-7.137h3.965a.792.792 0 100-1.586h-4.758a.796.796 0 00-.793.793v8.723a.793.793 0 00.793.793h7.137a.791.791 0 00.56-1.353.792.792 0 00-.56-.233zm-3.965 5.552a6.345 6.345 0 100 12.69 6.345 6.345 0 000-12.69zm0 11.102a4.757 4.757 0 01-4.667-5.686 4.763 4.763 0 013.739-3.739 4.756 4.756 0 015.686 4.667 4.756 4.756 0 01-4.758 4.758z" fill="#FF5225"/><path d="M52.48 340.583a3.177 3.177 0 00-2.93 1.959 3.17 3.17 0 00.687 3.457 3.176 3.176 0 004.88-.481 3.173 3.173 0 00-2.637-4.935zm0 4.759a1.587 1.587 0 110-3.175 1.587 1.587 0 010 3.175zm-23.791-4.759a3.177 3.177 0 00-2.93 1.959 3.17 3.17 0 00.687 3.457 3.176 3.176 0 004.88-.481 3.173 3.173 0 00-2.637-4.935zm0 4.759a1.587 1.587 0 110-3.175 1.587 1.587 0 010 3.175zm581.386 48.043h-3.256a3.762 3.762 0 00-3.712-3.188h-.174a3.764 3.764 0 00-3.488-2.363h-1.492a3.44 3.44 0 00-3.38-2.834H576.17a3.44 3.44 0 00-3.436 3.435v11.398a3.44 3.44 0 003.436 3.435h1.925l-3.132 14.094h-3.038a.925.925 0 000 1.851h16.725a.926.926 0 000-1.851h-2.387l1.514-6.816h2.481c.098 0 .19-.019.278-.048a.93.93 0 00.495-.374c.006-.009.009-.018.015-.028a.913.913 0 00.109-.263c0-.004.003-.008.004-.012l.004-.014 1.452-6.54h1.958a3.439 3.439 0 003.38-2.835h1.492c1.58 0 2.932-.979 3.488-2.361h.174a3.764 3.764 0 003.64-2.835h3.328a.926.926 0 000-1.851zm-35.49 6.448v-11.398c0-.873.711-1.584 1.585-1.584h2.153v14.565h-2.153c-.874 0-1.585-.71-1.585-1.583zm14.928 8.862h-2.469a.925.925 0 00-.913.793.883.883 0 00-.046.14l-1.718 7.734h-7.508l3.131-14.094h10.729l-1.206 5.427zm6.645-8.862c0 .873-.711 1.583-1.585 1.583h-14.399v-14.565h14.399c.874 0 1.585.711 1.585 1.584v11.398zm3.287-1.251h-1.436v-8.897h1.436c1.053 0 1.909.857 1.909 1.91v5.078a1.91 1.91 0 01-1.909 1.909zm3.76-2.372v-4.152a1.905 1.905 0 011.811 1.899v.354c0 1.02-.805 1.847-1.811 1.899zm7.389-148.307c-1.736-.992-3.885-.33-4.877 1.323l-1.406 2.563-5.622 9.921v-16.948a.652.652 0 00-.661-.662h-19.843c-.331 0-8.185 7.772-8.185 8.185v33.154c0 .33.248.661.661.661h27.367c.33 0 .661-.248.661-.661v-9.26l11.823-20.917 1.488-2.563c.909-1.737.248-3.886-1.406-4.796zm-18.188 28.193l3.472 1.984-3.886 2.811.414-4.795zm1.736-.413c-.083-.083-1.571-.91-1.488-.827l12.318-21.909 1.489.826c-2.977 5.457-9.095 16.288-12.319 21.91zm-16.536-29.433v5.456h-5.456l5.456-5.456zm19.843 38.61H571.24v-31.913h6.945a.652.652 0 00.661-.662v-6.945h18.603v18.52l-6.118 10.913c-.083.248 0-.248-.662 7.359 0 .248.083.496.331.578.248.083.496.083.661 0l5.705-4.134s.083 0 .083-.082v6.366zm-.744-7.689c-.083-.083-1.571-.909-1.488-.827l6.2-10.996 6.201-10.913 1.488.827c-4.216 7.44-8.185 14.385-12.401 21.909zm14.138-25.051l-1.158 2.067-3.968-2.233h-.083l1.157-2.067c.662-1.074 2.067-1.488 3.142-.909 1.075.579 1.571 1.984.91 3.142z" fill="#FF5225"/><path d="M588.933 276.675h-13.89v-3.39h5.539a.652.652 0 00.662-.661v-5.209a.652.652 0 00-.662-.661h-5.539v-9.095h4.961v4.878h-1.571a.652.652 0 00-.662.661c0 .414.248.662.662.662h4.382c.33 0 .661-.248.661-.662 0-.413-.248-.661-.661-.661h-1.571v-4.878h6.779v4.878h-1.488a.651.651 0 00-.661.661c0 .414.248.662.661.662h4.382a.652.652 0 00.661-.662c0-.413-.248-.661-.661-.661h-1.571v-4.878h4.961v8.599c0 .33.248.661.661.661.413 0 .662-.248.662-.661v-9.178a.653.653 0 00-.662-.661h-20.504a.651.651 0 00-.661.661v25.465c0 .331.248.661.661.661h14.551a.652.652 0 00.662-.661v-5.209c-.083-.33-.414-.661-.744-.661zm-8.02 1.24h1.654v3.969h-1.654v-3.969zm-1.24 3.969h-1.654v-3.969h1.654v3.969zm4.134-3.969h1.653v3.969h-1.653v-3.969zm-3.803-9.756v3.969h-4.961v-3.969h4.961zm-4.961 9.756h1.653v3.969h-1.653v-3.969zm13.311 3.969h-1.571v-3.969h1.571v3.969zm-546.91 187.67a3.29 3.29 0 00-3.283-3.283 3.29 3.29 0 00-3.282 3.283 3.288 3.288 0 003.282 3.282 3.288 3.288 0 003.283-3.282zm-5.05 0a1.77 1.77 0 011.767-1.768 1.77 1.77 0 011.768 1.768 1.769 1.769 0 01-3.535 0z" fill="#FF5225"/><path d="M34.313 489.4a.763.763 0 00.571-.258l1.601-1.818a2.243 2.243 0 011.676-.757c.642 0 1.253.278 1.677.757l1.6 1.818c.198.223.5.308.784.228l3.237-.95a.758.758 0 00.535-.611l.364-2.393a2.233 2.233 0 011-1.546 2.221 2.221 0 011.817-.267l2.328.661a.753.753 0 00.778-.232l2.212-2.55a.765.765 0 00.121-.803l-.99-2.212a2.243 2.243 0 01.005-1.838 2.241 2.241 0 011.384-1.212l2.318-.702a.757.757 0 00.53-.616l.48-3.343a.768.768 0 00-.334-.743l-2.024-1.328a2.25 2.25 0 01-.99-1.55 2.242 2.242 0 01.51-1.767l1.57-1.844a.76.76 0 00.111-.808l-1.403-3.07a.761.761 0 00-.682-.444l-2.424-.021a2.236 2.236 0 01-2.197-2.535l.323-2.398a.753.753 0 00-.343-.738l-2.843-1.823a.755.755 0 00-.813 0l-2.05 1.293a2.227 2.227 0 01-1.823.253 2.224 2.224 0 01-1.394-1.197l-1.025-2.197a.763.763 0 00-.687-.439h-3.378a.763.763 0 00-.687.439l-1.025 2.197a2.221 2.221 0 01-1.394 1.197 2.246 2.246 0 01-1.823-.253l-2.05-1.293a.765.765 0 00-.813 0l-2.838 1.823a.767.767 0 00-.344.738l.323 2.398a2.238 2.238 0 01-2.196 2.535l-2.424.021a.753.753 0 00-.682.444l-1.404 3.07a.761.761 0 00.111.808l1.57 1.844c.415.489.602 1.131.51 1.767a2.212 2.212 0 01-.989 1.55l-2.025 1.328a.75.75 0 00-.333.743l.48 3.343a.75.75 0 00.53.616l2.318.702a2.216 2.216 0 011.383 1.212 2.26 2.26 0 01.01 1.838l-.99 2.212a.745.745 0 00.122.803l2.212 2.55a.753.753 0 00.777.232l2.328-.661a2.237 2.237 0 011.818.267c.54.349.904.909 1 1.546l.364 2.393a.75.75 0 00.535.611l3.237.95c.07.02.141.03.212.03h.045zm-2.565-2.298l-.293-1.919a3.735 3.735 0 00-1.681-2.59 3.743 3.743 0 00-3.056-.45l-1.863.53-1.58-1.823.792-1.772a3.736 3.736 0 00-.015-3.085 3.745 3.745 0 00-2.323-2.031l-1.858-.56-.343-2.389 1.62-1.06a3.755 3.755 0 001.657-2.606 3.758 3.758 0 00-.859-2.964l-1.257-1.475 1-2.191 1.939-.015a3.763 3.763 0 002.803-1.293 3.758 3.758 0 00.883-2.959l-.262-1.924 2.03-1.303 1.641 1.035a3.742 3.742 0 003.055.429 3.743 3.743 0 002.343-2.01l.819-1.757h2.413l.818 1.757a3.757 3.757 0 005.398 1.586l1.642-1.035 2.03 1.303-.263 1.924a3.74 3.74 0 00.884 2.959 3.763 3.763 0 002.803 1.293l1.939.015 1 2.191-1.258 1.475a3.758 3.758 0 00-.858 2.964 3.735 3.735 0 001.656 2.601l1.621 1.06-.343 2.389-1.858.56a3.744 3.744 0 00-2.334 5.116l.793 1.772-1.58 1.823-1.864-.53a3.748 3.748 0 00-3.055.455 3.751 3.751 0 00-1.681 2.59l-.293 1.919-2.313.682-1.283-1.454a3.752 3.752 0 00-2.813-1.273c-1.075 0-2.1.465-2.813 1.273l-1.282 1.454-2.313-.682.015-.005z" fill="#FF5225"/><path d="M51.543 469.554c0-7.378-6.004-13.382-13.382-13.382s-13.382 6.004-13.382 13.382 6.004 13.382 13.382 13.382 13.382-6.004 13.382-13.382zm-25.249 0c0-6.545 5.323-11.867 11.867-11.867 6.545 0 11.867 5.322 11.867 11.867 0 6.545-5.322 11.867-11.867 11.867-6.544 0-11.867-5.322-11.867-11.867z" fill="#FF5225"/><path d="M44.726 469.554a6.571 6.571 0 00-6.565-6.565 6.571 6.571 0 00-6.565 6.565 6.571 6.571 0 006.565 6.565 6.571 6.571 0 006.565-6.565zm-11.615 0a5.059 5.059 0 015.05-5.05 5.059 5.059 0 015.05 5.05 5.058 5.058 0 01-5.05 5.05 5.058 5.058 0 01-5.05-5.05zM50.098 178H28.922A3.926 3.926 0 0025 181.922v32.156A3.926 3.926 0 0028.922 218h21.176a3.926 3.926 0 003.922-3.922v-32.156A3.926 3.926 0 0050.098 178zm2.353 36.078a2.355 2.355 0 01-2.353 2.353H28.922a2.355 2.355 0 01-2.353-2.353v-32.156a2.355 2.355 0 012.353-2.353h21.176a2.355 2.355 0 012.353 2.353v32.156z" fill="#FF5225"/><path d="M47.746 181.921h-16.47a2.356 2.356 0 00-2.354 2.353v3.922a2.356 2.356 0 002.353 2.353h16.47a2.356 2.356 0 002.354-2.353v-3.922a2.356 2.356 0 00-2.353-2.353zm.784 6.275a.785.785 0 01-.784.784h-16.47a.785.785 0 01-.785-.784v-3.922c0-.432.352-.784.784-.784h16.47c.433 0 .785.352.785.784v3.922zm-16.078 4.706h-1.57c-1.08 0-1.96.879-1.96 1.961v1.568c0 1.081.88 1.961 1.96 1.961h1.57c1.08 0 1.96-.88 1.96-1.961v-1.568c0-1.082-.88-1.961-1.96-1.961zm.392 3.529a.392.392 0 01-.392.392h-1.57a.392.392 0 01-.391-.392v-1.568c0-.217.176-.393.392-.393h1.569c.216 0 .392.176.392.393v1.568zm7.45-3.529h-1.569c-1.08 0-1.96.879-1.96 1.961v1.568c0 1.081.88 1.961 1.96 1.961h1.57c1.08 0 1.96-.88 1.96-1.961v-1.568c0-1.082-.88-1.961-1.96-1.961zm.392 3.529a.392.392 0 01-.392.392h-1.569a.392.392 0 01-.392-.392v-1.568c0-.217.176-.393.392-.393h1.57c.215 0 .391.176.391.393v1.568zm7.451-3.529h-1.569c-1.081 0-1.96.879-1.96 1.961v1.568c0 1.081.879 1.961 1.96 1.961h1.569c1.081 0 1.96-.88 1.96-1.961v-1.568a1.962 1.962 0 00-1.96-1.961zm.392 3.529a.392.392 0 01-.392.392h-1.569a.392.392 0 01-.392-.392v-1.568c0-.217.176-.393.392-.393h1.569c.216 0 .392.176.392.393v1.568zm-16.077 4.314h-1.57c-1.08 0-1.96.88-1.96 1.961v1.569c0 1.081.88 1.96 1.96 1.96h1.57c1.08 0 1.96-.879 1.96-1.96v-1.569c0-1.081-.88-1.961-1.96-1.961zm.392 3.53a.393.393 0 01-.392.392h-1.57a.393.393 0 01-.391-.392v-1.569c0-.216.176-.392.392-.392h1.569c.216 0 .392.176.392.392v1.569zm7.45-3.53h-1.569c-1.08 0-1.96.88-1.96 1.961v1.569c0 1.081.88 1.96 1.96 1.96h1.57c1.08 0 1.96-.879 1.96-1.96v-1.569c0-1.081-.88-1.961-1.96-1.961zm.392 3.53a.393.393 0 01-.392.392h-1.569a.393.393 0 01-.392-.392v-1.569c0-.216.176-.392.392-.392h1.57c.215 0 .391.176.391.392v1.569zm-8.234 4.313h-1.57c-1.08 0-1.96.88-1.96 1.961v1.569c0 1.081.88 1.961 1.96 1.961h1.57c1.08 0 1.96-.88 1.96-1.961v-1.569c0-1.081-.88-1.961-1.96-1.961zm.392 3.53a.393.393 0 01-.392.392h-1.57a.393.393 0 01-.391-.392v-1.569c0-.216.176-.392.392-.392h1.569c.216 0 .392.176.392.392v1.569zm7.45-3.53h-1.569c-1.08 0-1.96.88-1.96 1.961v1.569c0 1.081.88 1.961 1.96 1.961h1.57c1.08 0 1.96-.88 1.96-1.961v-1.569c0-1.081-.88-1.961-1.96-1.961zm.392 3.53a.393.393 0 01-.392.392h-1.569a.393.393 0 01-.392-.392v-1.569c0-.216.176-.392.392-.392h1.57c.215 0 .391.176.391.392v1.569zm7.451-11.373h-1.569c-1.081 0-1.96.88-1.96 1.961v9.412c0 1.081.879 1.96 1.96 1.96h1.569c1.081 0 1.96-.879 1.96-1.96v-9.412a1.963 1.963 0 00-1.96-1.961zm.392 11.373a.393.393 0 01-.392.392h-1.569a.393.393 0 01-.392-.392v-9.412c0-.216.176-.392.392-.392h1.569c.216 0 .392.176.392.392v9.412zm538.418-101.119a.91.91 0 00-.81.724l-.454 2.244a8.878 8.878 0 00-1.023.426l-1.917-1.264a.912.912 0 00-1.136.128c-.688.689-1.439 1.38-2.159 2.102a.908.908 0 00-.114 1.151l1.293 1.917c-.165.335-.304.68-.426 1.037l-2.287.497a.908.908 0 00-.724.894v2.969a.91.91 0 00.724.88l2.287.497c.122.357.261.701.426 1.037l-1.293 1.932a.909.909 0 00.114 1.136c.72.722 1.471 1.412 2.159 2.102a.912.912 0 001.136.127l1.931-1.249c.328.162.67.303 1.023.426l.44 2.229a.91.91 0 00.895.739h3.011a.908.908 0 00.895-.739l.44-2.229a9.043 9.043 0 001.022-.426l1.932 1.249a.91.91 0 001.136-.127c.687-.69 1.439-1.38 2.159-2.102a.906.906 0 00.113-1.136l-1.292-1.932c.164-.336.304-.68.426-1.037l2.287-.497a.908.908 0 00.724-.88v-2.969a.905.905 0 00-.724-.894l-2.287-.497a8.883 8.883 0 00-.426-1.037l1.292-1.917a.907.907 0 00-.113-1.151c-.72-.722-1.472-1.413-2.159-2.102a.91.91 0 00-1.136-.128l-1.917 1.264a8.878 8.878 0 00-1.023-.426l-.454-2.244a.908.908 0 00-.895-.724h-3.011a1.205 1.205 0 00-.085 0zm.838 1.818h1.505l.398 1.96a.911.911 0 00.667.696 6.89 6.89 0 011.705.724.91.91 0 00.951-.028l1.704-1.108c.367.358.735.701 1.094 1.051l-1.136 1.704a.91.91 0 00-.043.952c.304.523.561 1.13.724 1.732a.91.91 0 00.682.654l2.031.426v1.505l-2.031.44a.91.91 0 00-.682.654 7.243 7.243 0 01-.724 1.718.919.919 0 00-.118.489.917.917 0 00.161.477l1.122 1.69c-.359.35-.713.707-1.08 1.065l-1.704-1.122a.906.906 0 00-.951-.014 6.85 6.85 0 01-1.705.71.91.91 0 00-.667.696l-.398 1.974h-1.505l-.398-1.974a.911.911 0 00-.667-.696 6.85 6.85 0 01-1.705-.71.902.902 0 00-.478-.127.9.9 0 00-.473.141l-1.705 1.122c-.367-.358-.72-.715-1.079-1.065l1.122-1.69a.907.907 0 00.043-.966 7.246 7.246 0 01-.725-1.718.91.91 0 00-.681-.654l-2.031-.44v-1.505l2.031-.426a.904.904 0 00.681-.654 7.348 7.348 0 01.725-1.732.918.918 0 00-.043-.952l-1.136-1.704c.359-.35.726-.693 1.093-1.051l1.705 1.108a.906.906 0 00.951.028 6.89 6.89 0 011.705-.724.91.91 0 00.667-.696l.398-1.96zm.752 5.865a3.663 3.663 0 00-3.65 3.65 3.663 3.663 0 003.65 3.65 3.663 3.663 0 003.65-3.65 3.663 3.663 0 00-3.65-3.65zm0 1.818c1.016 0 1.832.817 1.832 1.832a1.827 1.827 0 01-1.832 1.833 1.828 1.828 0 01-1.832-1.833c0-1.015.817-1.832 1.832-1.832zm16.901 8.806c-.712 0-1.356.32-1.818.795l-.014-.014-.014.028c-.021.021-1.247 1.234-2.585 2.571-1.349 1.347-2.759 2.748-3.181 3.21a.914.914 0 00-.238.657.905.905 0 00.604.815.92.92 0 00.698-.037.921.921 0 00.285-.214c.288-.315 1.763-1.794 3.11-3.139 1.347-1.345 2.599-2.599 2.599-2.599l.029-.014a.7.7 0 01.525-.241c.408 0 .824.391.824 1.022 0 .272-.086.506-.213.682-.003.004.002.011 0 .014-.04.048-5.476 6.571-8.99 10.68-.971 1.135-2.305 2.258-4.19 2.258H582.09c-1.16 0-2.378.211-3.324 1.136l-2.57 2.514a.928.928 0 00-.207.294.922.922 0 00-.01.704.909.909 0 001.495.295l2.57-2.514c.519-.507 1.068-.611 2.046-.611h10.779c2.61 0 4.438-1.576 5.567-2.897 3.543-4.143 9.033-10.737 9.033-10.737a.635.635 0 00.028-.043 2.973 2.973 0 00.583-1.775c0-1.51-1.135-2.84-2.642-2.84zm-23.973 6.774c-1.929 0-3.917.271-5.511 1.577l-6.632 5.425a.91.91 0 00-.121 1.285.913.913 0 001.285.121l6.619-5.425c1.105-.906 2.598-1.165 4.36-1.165h13.378c.156.447.136.993-.156 1.534-.368.68-.991 1.052-1.292 1.022a1.282 1.282 0 00-.086-.014h-8.677a.92.92 0 00-.651.262.909.909 0 00.651 1.556h8.677v-.014c1.332.078 2.388-.86 2.983-1.96.61-1.128.809-2.645-.1-3.835a.902.902 0 00-.724-.369h-14.003z" fill="#FF5225"/></svg>